<?xml version="1.0" encoding="UTF-8" standalone="no"?>
<!-- Created with Inkscape (http://www.inkscape.org/) -->

<svg
   xmlns:dc="http://purl.org/dc/elements/1.1/"
   xmlns:cc="http://creativecommons.org/ns#"
   xmlns:rdf="http://www.w3.org/1999/02/22-rdf-syntax-ns#"
   xmlns:svg="http://www.w3.org/2000/svg"
   xmlns="http://www.w3.org/2000/svg"
   xmlns:sodipodi="http://sodipodi.sourceforge.net/DTD/sodipodi-0.dtd"
   xmlns:inkscape="http://www.inkscape.org/namespaces/inkscape"
   width="135.46666mm"
   height="135.46666mm"
   viewBox="0 0 135.46666 135.46666"
   version="1.1"
   id="svg8"
   inkscape:version="0.92.3 (2405546, 2018-03-11)"
   sodipodi:docname="settings.svg">
  <defs
     id="defs2" />
  <sodipodi:namedview
     id="base"
     pagecolor="#ffffff"
     bordercolor="#666666"
     borderopacity="1.0"
     inkscape:pageopacity="0.0"
     inkscape:pageshadow="2"
     inkscape:zoom="0.35"
     inkscape:cx="-182.57143"
     inkscape:cy="133.14285"
     inkscape:document-units="mm"
     inkscape:current-layer="layer1"
     showgrid="false"
     inkscape:window-width="930"
     inkscape:window-height="1025"
     inkscape:window-x="990"
     inkscape:window-y="27"
     inkscape:window-maximized="0" />
  <metadata
     id="metadata5">
    <rdf:RDF>
      <cc:Work
         rdf:about="">
        <dc:format>image/svg+xml</dc:format>
        <dc:type
           rdf:resource="http://purl.org/dc/dcmitype/StillImage" />
        <dc:title></dc:title>
      </cc:Work>
    </rdf:RDF>
  </metadata>
  <g
     inkscape:label="Layer 1"
     inkscape:groupmode="layer"
     id="layer1"
     transform="translate(-22.225,-48.594048)">
    <g
       id="g876"
       transform="matrix(0.26458333,0,0,0.26458333,22.225,48.594048)"
       style="fill:#193349;fill-opacity:1">
      <g
         id="g819"
         style="fill:#193349;fill-opacity:1">
	<g
   id="g817"
   style="fill:#193349;fill-opacity:1">
		<path
   id="path815"
   d="m 500.6,212.6 -59.9,-14.7 c -3.3,-10.5 -7.5,-20.7 -12.6,-30.6 l 30.6,-51 c 3.6,-6 2.7,-13.5 -2.1,-18.3 L 414,55.4 c -4.8,-4.8 -12.3,-5.7 -18.3,-2.1 l -51,30.6 C 334.8,78.8 324.6,74.6 314.1,71.3 L 299.7,11.4 C 297.9,4.8 291.9,0 285,0 h -60 c -6.9,0 -12.9,4.8 -14.7,11.4 l -14.4,59.9 c -10.5,3.3 -20.7,7.5 -30.6,12.6 l -51,-30.6 c -6,-3.6 -13.5,-2.7 -18.3,2.1 L 53.4,98 c -4.8,4.8 -5.7,12.3 -2.1,18.3 l 30.6,51 c -5.1,9.9 -9.3,20.1 -12.6,30.6 L 11.4,212.6 C 4.8,214.1 0,220.1 0,227 v 60 c 0,6.9 4.8,12.9 11.4,14.4 l 57.9,14.7 c 3.3,10.5 7.5,20.7 12.6,30.6 l -30.6,51 c -3.6,6 -2.7,13.5 2.1,18.3 L 96,458.6 c 4.8,4.8 12.3,5.7 18.3,2.1 l 51,-30.6 c 9.9,5.1 20.1,9.3 30.6,12.6 l 14.4,57.9 c 1.8,6.6 7.8,11.4 14.7,11.4 h 60 c 6.9,0 12.9,-4.8 14.7,-11.4 l 14.4,-57.9 c 10.5,-3.3 20.7,-7.5 30.6,-12.6 l 51,30.6 c 6,3.6 13.5,2.7 18.3,-2.1 L 456.6,416 c 4.8,-4.8 5.7,-12.3 2.1,-18.3 l -30.6,-51 c 5.1,-9.9 9.3,-20.1 12.6,-30.6 l 59.9,-14.7 c 6.6,-1.5 11.4,-7.5 11.4,-14.4 v -60 c 0,-6.9 -4.8,-12.9 -11.4,-14.4 z M 255,332 c -41.4,0 -75,-33.6 -75,-75 0,-41.4 33.6,-75 75,-75 41.4,0 75,33.6 75,75 0,41.4 -33.6,75 -75,75 z"
   inkscape:connector-curvature="0"
   style="fill:#193349;fill-opacity:1" />

	</g>

</g>
      <g
         id="g821"
         style="fill:#193349;fill-opacity:1">
</g>
      <g
         id="g823"
         style="fill:#193349;fill-opacity:1">
</g>
      <g
         id="g825"
         style="fill:#193349;fill-opacity:1">
</g>
      <g
         id="g827"
         style="fill:#193349;fill-opacity:1">
</g>
      <g
         id="g829"
         style="fill:#193349;fill-opacity:1">
</g>
      <g
         id="g831"
         style="fill:#193349;fill-opacity:1">
</g>
      <g
         id="g833"
         style="fill:#193349;fill-opacity:1">
</g>
      <g
         id="g835"
         style="fill:#193349;fill-opacity:1">
</g>
      <g
         id="g837"
         style="fill:#193349;fill-opacity:1">
</g>
      <g
         id="g839"
         style="fill:#193349;fill-opacity:1">
</g>
      <g
         id="g841"
         style="fill:#193349;fill-opacity:1">
</g>
      <g
         id="g843"
         style="fill:#193349;fill-opacity:1">
</g>
      <g
         id="g845"
         style="fill:#193349;fill-opacity:1">
</g>
      <g
         id="g847"
         style="fill:#193349;fill-opacity:1">
</g>
      <g
         id="g849"
         style="fill:#193349;fill-opacity:1">
</g>
    </g>
  </g>
</svg>
