<svg xmlns="http://www.w3.org/2000/svg" width="511.981" height="492.146" viewBox="0 0 135.462 130.214"><path style="fill:#a67e4f;fill-opacity:1;stroke-width:.26458332" d="M-141.692 128.629c-26.019-10.021-23.754-9.102-24.154-9.798-.239-.418-.354-5.343-.452-19.431l-.133-18.872-5.82-2.236c-13.26-5.092-13.212-5.072-13.7-5.898-.25-.424-.456-1.138-.456-1.587 0-.931-.843.057 10.833-12.694 4.447-4.857 8.123-8.93 8.17-9.054.047-.123-4.12-4.815-9.26-10.426-6.71-7.325-9.414-10.456-9.586-11.1-.36-1.348.213-2.488 1.544-3.069.592-.258 11.138-4.305 23.435-8.992l22.357-8.522 1.058.363c.888.305 2.488 1.95 9.997 10.285 4.917 5.457 9.05 9.922 9.186 9.922.135 0 4.269-4.465 9.185-9.922 7.516-8.342 9.108-9.98 9.997-10.284l1.058-.361 23.019 8.767c19.303 7.352 23.136 8.895 23.746 9.56.716.78.897 1.729.51 2.685-.098.245-4.346 4.999-9.44 10.563-5.093 5.565-9.26 10.257-9.26 10.426 0 .17 4.167 4.864 9.26 10.432 6.108 6.675 9.29 10.349 9.347 10.786.11.843-.36 1.987-1.102 2.684-.317.298-4.683 2.145-9.702 4.103l-9.126 3.562-.132 19.066c-.13 18.637-.144 19.078-.661 19.563-.665.624-46.116 18.049-46.986 18.014-.352-.014-10.581-3.855-22.732-8.535zm20.108-26.95c0-24.158-.054-28.31-.366-27.98-.201.213-3.612 4.019-7.58 8.457-6.829 7.638-7.924 8.69-9.071 8.72-.265.006-5.146-1.79-10.848-3.993-5.702-2.203-10.576-4.062-10.832-4.133-.44-.12-.462.733-.397 16.23l.068 16.357 19.182 7.337c10.55 4.035 19.332 7.345 19.513 7.354.263.014.331-5.823.331-28.35zm25.93 20.883 18.917-7.226.068-16.193c.038-8.906-.014-16.193-.115-16.193-.1 0-4.96 1.845-10.797 4.1-5.837 2.256-10.846 4.096-11.13 4.09-.283-.007-.827-.155-1.207-.33-.38-.176-3.94-3.951-7.91-8.39-3.969-4.438-7.379-8.244-7.576-8.457-.302-.326-.359 4.064-.359 27.876v28.264l.595-.158c.328-.086 9.109-3.409 19.513-7.383zm-35.766-46.44c4.246-4.7 7.72-8.63 7.72-8.733 0-.14-37.403-14.536-38.77-14.922-.15-.042-3.885 3.848-8.299 8.644-6.798 7.388-7.95 8.752-7.532 8.929 1.892.8 38.89 14.725 39.01 14.683.083-.03 3.625-3.9 7.871-8.6zm45.158 4.254c5.82-2.246 14.362-5.526 18.98-7.287l8.396-3.203-.591-.733c-2.144-2.66-14.952-16.594-15.267-16.61-.704-.036-38.642 14.653-38.552 14.926.049.147 3.532 4.098 7.74 8.78 6.249 6.95 7.75 8.484 8.182 8.362.29-.082 5.291-1.988 11.112-4.235zm-14.362-24.173c9.936-3.797 18.226-6.993 18.421-7.102.254-.142.141-.284-.397-.499-.413-.165-8.7-3.33-18.413-7.034l-17.662-6.734-17.66 6.733c-20.615 7.86-19.163 7.292-19.017 7.438.082.082 36.122 13.95 36.604 14.085.032.009 8.188-3.09 18.124-6.887zm-41.531-18.507c10.004-3.842 18.19-7.066 18.19-7.163 0-.146-10.462-11.843-14.463-16.169l-1.155-1.25-19.112 7.294a60318.305 60318.305 0 0 0-19.603 7.483c-.408.158.854 1.654 7.54 8.94l8.031 8.752 1.191-.45c.655-.247 9.376-3.594 19.38-7.437zm75.867-1.03c6.495-7.205 7.658-8.613 7.243-8.774-.272-.105-9.095-3.473-19.606-7.485l-19.112-7.293-1.156 1.25c-3.94 4.26-14.463 16.022-14.463 16.165 0 .094 2.47 1.096 5.49 2.226s11.8 4.48 19.513 7.446c7.713 2.964 14.098 5.312 14.189 5.218.09-.095 3.647-4.034 7.902-8.754z" transform="translate(186.42 -6.95)"/></svg>