<?xml version="1.0" encoding="UTF-8" standalone="no"?>
<!-- Created with Inkscape (http://www.inkscape.org/) -->

<svg
   xmlns:dc="http://purl.org/dc/elements/1.1/"
   xmlns:cc="http://creativecommons.org/ns#"
   xmlns:rdf="http://www.w3.org/1999/02/22-rdf-syntax-ns#"
   xmlns:svg="http://www.w3.org/2000/svg"
   xmlns="http://www.w3.org/2000/svg"
   xmlns:sodipodi="http://sodipodi.sourceforge.net/DTD/sodipodi-0.dtd"
   xmlns:inkscape="http://www.inkscape.org/namespaces/inkscape"
   width="135.46158mm"
   height="130.21361mm"
   viewBox="0 0 135.46158 130.21361"
   version="1.1"
   id="svg2452"
   inkscape:version="0.92.3 (2405546, 2018-03-11)"
   sodipodi:docname="groupicon.svg">
  <defs
     id="defs2446" />
  <sodipodi:namedview
     id="base"
     pagecolor="#ffffff"
     bordercolor="#666666"
     borderopacity="1.0"
     inkscape:pageopacity="0.0"
     inkscape:pageshadow="2"
     inkscape:zoom="0.35"
     inkscape:cx="348.92283"
     inkscape:cy="104.19601"
     inkscape:document-units="mm"
     inkscape:current-layer="layer1"
     showgrid="false"
     inkscape:window-width="1859"
     inkscape:window-height="1025"
     inkscape:window-x="61"
     inkscape:window-y="27"
     inkscape:window-maximized="1" />
  <metadata
     id="metadata2449">
    <rdf:RDF>
      <cc:Work
         rdf:about="">
        <dc:format>image/svg+xml</dc:format>
        <dc:type
           rdf:resource="http://purl.org/dc/dcmitype/StillImage" />
        <dc:title />
      </cc:Work>
    </rdf:RDF>
  </metadata>
  <g
     inkscape:label="Layer 1"
     inkscape:groupmode="layer"
     id="layer1"
     transform="translate(186.42021,-6.9501494)">
    <path
       style="fill:#a67e4f;fill-opacity:1;stroke-width:0.26458332"
       d="m -141.6922,128.62901 c -26.01843,-10.02102 -23.75427,-9.10251 -24.15334,-9.79832 -0.23934,-0.41732 -0.35415,-5.34291 -0.45291,-19.430931 l -0.13229,-18.87192 -5.82083,-2.23556 c -13.25959,-5.0925 -13.21184,-5.07194 -13.69971,-5.89783 -0.25053,-0.42411 -0.4555,-1.13842 -0.4555,-1.58737 0,-0.9311 -0.84325,0.0571 10.83266,-12.69439 4.44678,-4.8564 8.12348,-8.93053 8.17046,-9.05363 0.047,-0.1231 -4.12022,-4.81504 -9.26042,-10.42653 -6.70955,-7.32473 -9.41344,-10.45547 -9.58552,-11.09874 -0.36077,-1.34857 0.21229,-2.48831 1.54331,-3.06947 0.5927,-0.25879 11.13841,-4.30534 23.43492,-8.99235 l 22.35729,-8.5218196 1.05773,0.36284 c 0.88845,0.30477 2.48844,1.95078 9.99719,10.2847196 4.9167,5.45703 9.05027,9.92187 9.18571,9.92187 0.13544,0 4.269,-4.46484 9.18571,-9.92187 7.51565,-8.3416096 9.10792,-9.9794696 9.997194,-10.2834996 l 1.057717,-0.36162 23.01875,8.7670996 c 19.302833,7.35183 23.136215,8.89511 23.746354,9.56006 0.716183,0.78052 0.896552,1.72918 0.510572,2.68534 -0.0989,0.24503 -4.347019,4.99842 -9.440251,10.56308 -5.093229,5.56466 -9.260419,10.25644 -9.260419,10.42617 0,0.16974 4.16719,4.86388 9.260419,10.43144 6.10697,6.67571 9.289859,10.34881 9.34688,10.78644 0.109741,0.84229 -0.36032,1.98642 -1.102641,2.68379 -0.317209,0.298 -4.683178,2.14451 -9.702159,4.10334 l -9.125421,3.5615 -0.132289,19.0666 c -0.1293,18.636531 -0.144219,19.077781 -0.661451,19.562831 -0.664689,0.62334 -46.115725,18.04837 -46.985805,18.01343 -0.35156,-0.0141 -10.58092,-3.85474 -22.73191,-8.5347 z m 20.10833,-26.9505 c 0,-24.157691 -0.0543,-28.309621 -0.36588,-27.979691 -0.20124,0.21308 -3.61243,4.01883 -7.58043,8.45722 -6.82861,7.6381 -7.92384,8.69085 -9.07116,8.71931 -0.26456,0.007 -5.14612,-1.79012 -10.84792,-3.99263 -5.70179,-2.2025 -10.57617,-4.0621 -10.83195,-4.13243 -0.44057,-0.12114 -0.46146,0.73311 -0.39687,16.22921 l 0.0682,16.357061 19.18229,7.3371 c 10.55026,4.03539 19.33112,7.34494 19.51302,7.35453 0.26264,0.0138 0.33073,-5.82308 0.33073,-28.34968 z m 25.929171,20.88338 18.917714,-7.22584 0.0682,-16.193131 c 0.0375,-8.90623 -0.01429,-16.19313 -0.115038,-16.19313 -0.100761,0 -4.95935,1.84546 -10.79686,4.10104 -5.83751,2.25557 -10.845901,4.09567 -11.129762,4.08911 -0.28386,-0.007 -0.82719,-0.1554 -1.207389,-0.33073 -0.380216,-0.17534 -3.939356,-3.95021 -7.909226,-8.38859 -3.96985,-4.43839 -7.37948,-8.24413 -7.57693,-8.45722 -0.30248,-0.32641 -0.35901,4.06372 -0.35901,27.876091 v 28.2635 l 0.59531,-0.15763 c 0.32741,-0.0867 9.10828,-3.40926 19.513016,-7.38347 z M -131.41997,76.122369 c 4.24569,-4.70097 7.71944,-8.63104 7.71944,-8.7335 0,-0.14081 -37.40261,-14.53598 -38.77004,-14.92145 -0.15024,-0.0423 -3.88446,3.84726 -8.29828,8.64358 -6.79843,7.38761 -7.94974,8.75244 -7.53204,8.92897 1.89179,0.79947 38.88912,14.7248 39.00956,14.68271 0.0836,-0.0292 3.62566,-3.89935 7.87136,-8.60031 z m 45.157985,4.25413 c 5.820828,-2.24683 14.361621,-5.52633 18.979542,-7.28778 l 8.39621,-3.20263 -0.590999,-0.73319 c -2.143782,-2.65956 -14.951652,-16.59416 -15.267223,-16.61031 -0.703361,-0.036 -38.641125,14.65301 -38.551155,14.92649 0.0483,0.14694 3.5313,4.09757 7.73993,8.77918 6.248305,6.95055 7.749093,8.48463 8.181192,8.36271 0.291039,-0.0821 5.291659,-1.98763 11.112503,-4.23447 z m -14.361995,-24.17358 c 9.936381,-3.79671 18.225856,-6.99245 18.421042,-7.10164 0.254021,-0.1421 0.141224,-0.28394 -0.39687,-0.49902 -0.413467,-0.16527 -8.699431,-3.33079 -18.413252,-7.0345 l -17.66148,-6.73402 -17.66039,6.73323 c -20.61543,7.85986 -19.16343,7.29194 -19.01717,7.43819 0.0821,0.0821 36.12199,13.94967 36.60416,14.08469 0.0318,0.009 8.18757,-3.09022 18.12396,-6.88693 z m -41.53124,-18.50648 c 10.00456,-3.84266 18.1901,-7.06601 18.1901,-7.16299 0,-0.14638 -10.46194,-11.84314 -14.46246,-16.16946 l -1.15526,-1.24934 -19.11249,7.29381 c -10.51187,4.0116 -19.33298,7.37889 -19.60246,7.48286 -0.40796,0.1574 0.85411,1.65376 7.54063,8.94053 l 8.03059,8.75149 1.19062,-0.45013 c 0.65484,-0.24757 9.37617,-3.59412 19.38073,-7.43677 z m 75.867427,-1.03138 c 6.49513,-7.20412 7.657719,-8.61229 7.242879,-8.77284 -0.27179,-0.10519 -9.094621,-3.47334 -19.606292,-7.48479 l -19.11214,-7.29355 -1.15561,1.24973 c -3.940044,4.26089 -14.462824,16.02231 -14.462824,16.16523 0,0.0945 2.47054,1.09643 5.4901,2.2266 3.01956,1.13018 11.800424,4.48051 19.513023,7.44519 7.712602,2.96468 14.097373,5.31285 14.188371,5.21818 0.091,-0.0947 3.64712,-4.03387 7.902493,-8.75375 z"
       id="path844"
       inkscape:connector-curvature="0" />
  </g>
</svg>
