{
  "asset": {
    "generator": "Khronos glTF Blender I/O v1.2.75",
    "version": "2.0"
  },
  "scene": 0,
  "scenes": [
    {
      "name": "Scene",
      "nodes": [
        1,
        2,
        3
      ]
    }
  ],
  "nodes": [
    {
      "mesh": 0,
      "name": "Mesh_0",
      "scale": [
        1,
        1,
        -0.001463989494368434
      ]
    },
    {
      "children": [
        0
      ],
      "name": "lacleman_depth30",
      "rotation": [
        -0.7071068286895752,
        0,
        0,
        0.7071068286895752
      ]
    },
    {
      "name": "Light",
      "rotation": [
        0.16907575726509094,
        0.7558803558349609,
        -0.27217137813568115,
        0.570947527885437
      ],
      "translation": [
        4.076245307922363,
        5.903861999511719,
        -1.0054539442062378
      ]
    },
    {
      "name": "Camera",
      "rotation": [
        0.483536034822464,
        0.33687159419059753,
        -0.20870360732078552,
        0.7804827094078064
      ],
      "translation": [
        7.358891487121582,
        4.958309173583984,
        6.925790786743164
      ]
    }
  ],
  "materials": [
    {
      "alphaMode": "BLEND",
      "doubleSided": true,
      "emissiveFactor": [
        0,
        0,
        0
      ],
      "name": "Material_0",
      "pbrMetallicRoughness": {
        "baseColorFactor": [
          0.5058823823928833,
          0.5058823823928833,
          0.5058823823928833,
          0.5099999904632568
        ],
        "metallicFactor": 0.5,
        "roughnessFactor": 0.5
      }
    }
  ],
  "meshes": [
    {
      "name": "Mesh_0",
      "primitives": [
        {
          "attributes": {
            "POSITION": 0,
            "NORMAL": 1,
            "TEXCOORD_0": 2
          },
          "indices": 3,
          "material": 0
        }
      ]
    }
  ],
  "accessors": [
    {
      "bufferView": 0,
      "componentType": 5126,
      "count": 9598,
      "max": [
        45.52238845825195,
        25.161516189575195,
        9289.9677734375
      ],
      "min": [
        -44.776119232177734,
        -25.53428077697754,
        0
      ],
      "type": "VEC3"
    },
    {
      "bufferView": 1,
      "componentType": 5126,
      "count": 9598,
      "type": "VEC3"
    },
    {
      "bufferView": 2,
      "componentType": 5126,
      "count": 9598,
      "type": "VEC2"
    },
    {
      "bufferView": 3,
      "componentType": 5123,
      "count": 55359,
      "type": "SCALAR"
    }
  ],
  "bufferViews": [
    {
      "buffer": 0,
      "byteLength": 115176,
      "byteOffset": 0
    },
    {
      "buffer": 0,
      "byteLength": 115176,
      "byteOffset": 115176
    },
    {
      "buffer": 0,
      "byteLength": 76784,
      "byteOffset": 230352
    },
    {
      "buffer": 0,
      "byteLength": 110720,
      "byteOffset": 307136
    }
  ],
  "buffers": [
    {
      "uri": "lakegeneva_data.bin",
      "byteLength": 417856
    }
  ]
}