<?xml version="1.0" encoding="UTF-8" standalone="no"?>
<!-- Generator: Adobe Illustrator 23.0.3, SVG Export Plug-In . SVG Version: 6.00 Build 0)  -->

<svg
   xmlns:dc="http://purl.org/dc/elements/1.1/"
   xmlns:cc="http://creativecommons.org/ns#"
   xmlns:rdf="http://www.w3.org/1999/02/22-rdf-syntax-ns#"
   xmlns:svg="http://www.w3.org/2000/svg"
   xmlns="http://www.w3.org/2000/svg"
   xmlns:sodipodi="http://sodipodi.sourceforge.net/DTD/sodipodi-0.dtd"
   xmlns:inkscape="http://www.inkscape.org/namespaces/inkscape"
   version="1.1"
   id="Icons"
   x="0px"
   y="0px"
   viewBox="0 0 92.000077 91.999991"
   xml:space="preserve"
   sodipodi:docname="print.svg"
   width="92.000076"
   height="91.999992"
   inkscape:version="0.92.3 (2405546, 2018-03-11)"><metadata
   id="metadata17"><rdf:RDF><cc:Work
       rdf:about=""><dc:format>image/svg+xml</dc:format><dc:type
         rdf:resource="http://purl.org/dc/dcmitype/StillImage" /></cc:Work></rdf:RDF></metadata><defs
   id="defs15" /><sodipodi:namedview
   pagecolor="#ffffff"
   bordercolor="#666666"
   borderopacity="1"
   objecttolerance="10"
   gridtolerance="10"
   guidetolerance="10"
   inkscape:pageopacity="0"
   inkscape:pageshadow="2"
   inkscape:window-width="1859"
   inkscape:window-height="1025"
   id="namedview13"
   showgrid="false"
   inkscape:zoom="1.84375"
   inkscape:cx="26.053419"
   inkscape:cy="30.939185"
   inkscape:window-x="61"
   inkscape:window-y="27"
   inkscape:window-maximized="1"
   inkscape:current-layer="Icons" />
<style
   type="text/css"
   id="style2">
	.st0{fill:none;stroke:#000000;stroke-width:2;stroke-miterlimit:10;}
	.st1{fill:none;stroke:#000000;stroke-width:2;stroke-linejoin:round;stroke-miterlimit:10;}
	.st2{fill:none;stroke:#000000;stroke-width:2;stroke-linecap:round;stroke-linejoin:round;stroke-miterlimit:10;}
	.st3{fill:none;stroke:#000000;stroke-width:2;stroke-linecap:round;stroke-miterlimit:10;}
	.st4{fill:none;stroke:#000000;stroke-width:2;stroke-linejoin:round;stroke-miterlimit:10;stroke-dasharray:3;}
</style>




<path
   style="fill:#28b5f5;fill-opacity:1"
   d="m 28.460593,80.936165 c -1.53019,-2.47589 1.81131,-2.97601 18.11442,-2.71114 14.25559,0.2316 16.92503,0.51155 16.92503,1.77497 0,1.26451 -2.69665,1.54291 -17.17659,1.7733 -11.78456,0.1875 -17.39202,-0.0753 -17.86286,-0.83713 z m 0.003,-7.99481 c -1.47796,-2.39139 1.64628,-2.99389 14.11738,-2.7225 10.69182,0.23268 12.91887,0.53972 12.91887,1.78114 0,1.24333 -2.25415,1.54766 -13.17338,1.77849 -8.89347,0.18802 -13.39738,-0.084 -13.86287,-0.83713 z m -0.003,-8.00519 c -1.53019,-2.47589 1.81131,-2.97601 18.11442,-2.71114 14.25559,0.2316 16.92503,0.51155 16.92503,1.77497 0,1.26451 -2.69665,1.54291 -17.17659,1.7733 -11.78456,0.1875 -17.39202,-0.0753 -17.86286,-0.83713 z"
   id="path817-3"
   inkscape:connector-curvature="0"
   sodipodi:nodetypes="csssccsssccsssc" /><path
   style="fill:#fb0000;fill-opacity:1"
   d="m 75.039903,42.548035 c -2.65645,-3.20083 1.24524,-8.11777 4.71013,-5.93574 2.22173,1.39914 2.76473,4.06257 1.21013,5.93574 -1.54461,1.86114 -4.37565,1.86114 -5.92026,0 z"
   id="path817-6"
   inkscape:connector-curvature="0"
   sodipodi:nodetypes="cssc" /><path
   style="fill:#000000"
   d="m 18.000043,82.999995 v -9 h -7 c -11.11128009,0 -11.000000090131,0.24279 -11.000000090131,-24 0,-24.24278 -0.111279999869,-24 11.000000090131,-24 h 7 V 12.999996 0 h 28 28 v 12.999996 12.999999 h 6.99999 c 11.11128,0 11,-0.24278 11,24 0,24.24279 0.11128,24 -11,24 h -6.99999 v 9 9 h -28 -28 z m 52,-11 v -16 h -24 -24 v 16 16 h 24 24 z m -52,-11 v -9 h 28 28 v 9.04569 9.04569 l 6.74999,-0.29569 6.75,-0.29569 v -19.5 -19.5 H 46.000043 4.5000429 l -0.2734,18.46783 c -0.15038,10.1573 -0.052,19.0448 0.21861,19.75 0.33071,0.8618 2.63338,1.28217 7.0234001,1.28217 h 6.53139 z m 52,-46 V 3.999996 h -24 -24 v 10.999999 11 h 24 24 z"
   id="path817"
   inkscape:connector-curvature="0"
   sodipodi:nodetypes="ccssscccccccssscccccccccccccccccccccccccccscsccccccccccc" /></svg>