<svg xmlns="http://www.w3.org/2000/svg" width="511.765" height="512" viewBox="0 0 135.405 135.467"><path style="fill:#102a43;fill-opacity:1;stroke-width:.26458332" d="M-166.14 224.366c-3.967-1.077-7.417-3.46-9.364-6.47-1.314-2.032-1.37-3.247-.197-4.235.539-.453 1.13-.685 1.746-.685.982 0 1.757.632 3.34 2.727 1.603 2.123 5.35 3.887 8.255 3.887 2.928 0 6.446-1.632 8.15-3.78 1.89-2.384 2.451-2.834 3.532-2.828 1.18.007 1.794.446 2.974 2.132 1.053 1.505 3.013 3.023 4.85 3.756 1.064.425 1.997.562 3.924.573 2.398.014 2.629-.035 4.522-.97 1.923-.951 2.313-1.296 5.15-4.553.698-.801.99-.944 1.93-.944 1.264 0 2.26.78 2.57 2.012.471 1.88-3.416 6.35-7.078 8.143-2.18 1.067-5.053 1.751-7.348 1.751-3.24 0-7.394-1.553-10.142-3.792l-1.416-1.153-1.147 1.018c-3.707 3.29-9.546 4.687-14.25 3.411zm70.323.093c-2.548-.548-5.32-2.02-7.311-3.882-3.044-2.848-3.97-4.673-3.163-6.234.524-1.013 1.152-1.367 2.424-1.367.795 0 1.137.18 1.804.944 2.555 2.933 3.181 3.53 4.414 4.2 1.706.93 3.688 1.463 5.442 1.467 3.076.007 6.752-1.883 8.56-4.401 1.313-1.828 1.83-2.21 2.988-2.21 1.108 0 1.36.206 3.848 3.145 1.543 1.822 4.294 3.17 6.918 3.39 3.673.308 7.293-1.34 9.637-4.385 1.418-1.843 1.87-2.15 3.16-2.15.702 0 1.081.192 1.604.814 1.344 1.596.746 3.371-2.093 6.218-3.298 3.307-7.965 5.11-12.412 4.795-3.536-.25-7.92-2.131-9.914-4.254l-.616-.655-1.442 1.175c-3.92 3.193-8.992 4.434-13.848 3.39zm-82.23-17.451c-4.594-1.237-6.227-3.038-4.83-5.329.765-1.253 1.96-1.396 4.2-.5 3.308 1.321 6.384 1.334 9.214.038 1.542-.706 3.76-2.64 4.617-4.028 1.208-1.955 3.356-2.152 4.667-.429 1.687 2.217 3.058 3.479 4.627 4.256.905.45 1.689.773 1.741.72.053-.052-.116-1.027-.376-2.166-.595-2.617-.593-7.148.006-9.864 1.3-5.892 4.878-11.258 9.528-14.287 3.502-2.282 8.444-3.466 12.546-3.006 1.989.222 2.218.201 2.449-.23.737-1.378 11.875-24.65 11.817-24.692-.038-.027-1.375-.39-2.972-.808-3.442-.9-4.426-1.582-4.426-3.071 0-1.306.459-2.049 1.544-2.502.86-.36 1.149-.323 4.512.569 1.976.524 3.685.856 3.798.737.113-.119 3.173-6.407 6.8-13.974 6.436-13.425 6.624-13.863 7.738-18.07 1.325-5.005 1.244-5.515-.587-3.684-1.411 1.411-3.581 2.307-5.59 2.307-4.218 0-7.843-3.6-7.843-7.788 0-5.656 5.864-9.534 11.04-7.301 2.183.941 4.546 3.92 4.564 5.753.003.322.225.703.492.846.444.237.583-.109 1.622-4.026.625-2.357 1.315-4.736 1.532-5.288.385-.977 1.423-1.776 2.308-1.776.348 0 10.527 2.682 22.062 5.813 1.508.409 3.055.977 3.438 1.263 1.255.937 1.236 1.604-.203 6.947-.771 2.863-1.22 4.993-1.083 5.132.138.138.808-.279 1.62-1.008 1.669-1.501 2.758-1.989 4.89-2.189 4.503-.423 8.371 3.169 8.392 7.793.028 6.474-7.436 10.235-12.569 6.333-1.342-1.021-2.749-3.234-3-4.72-.13-.776-.29-1.03-.608-.968-.313.06-.744 1.208-1.574 4.182l-1.143 4.099-1.195 15.572c-.657 8.564-1.154 15.612-1.105 15.661.05.05 1.456.457 3.125.905 3.965 1.065 4.307 1.214 4.837 2.11.841 1.424.305 3.12-1.18 3.736-.774.32-1.17.273-4.04-.478-1.749-.458-3.2-.81-3.223-.781-.023.028-.474 5.945-1.002 13.148-.528 7.204-1.015 13.423-1.082 13.82-.115.673.009.785 1.788 1.614 3.793 1.768 6.924 4.757 9.054 8.644 3.017 5.504 8.611 7.497 14.445 5.149 2.26-.91 3.452-.772 4.22.487 1.429 2.344-.275 4.144-5.09 5.377-1.222.314-2.426.393-4.574.303-2.477-.104-3.234-.248-5.032-.96-1.164-.461-2.653-1.25-3.307-1.753-.655-.504-1.506-1.156-1.89-1.45l-.7-.535-1.426 1.173c-2.95 2.43-6.286 3.586-10.348 3.586-3.89 0-7.274-1.236-10.308-3.764l-1.255-1.046-1.24 1.09c-1.44 1.268-4.35 2.772-6.435 3.327-1.847.49-6.06.499-7.877.015-2.136-.568-4.536-1.786-6.214-3.153l-1.52-1.238-1.521 1.24c-1.74 1.419-4.579 2.804-6.628 3.234-2.014.423-5.666.363-7.555-.125-2.063-.532-4.856-1.99-6.38-3.332l-1.18-1.04-1.706 1.307c-3.155 2.419-6.241 3.485-10.087 3.485-3.853 0-7.215-1.19-10.14-3.59l-1.41-1.156-1.766 1.357c-3.176 2.44-6.045 3.4-10.09 3.371-1.387-.01-3.153-.187-3.923-.394zm55.307-5.902c1.945-.976 2.614-1.538 4.148-3.486 1.306-1.659 1.935-2.084 3.1-2.097.94-.01 1.415.357 2.894 2.238 1.443 1.838 2.105 2.386 4.075 3.375 1.61.807 1.885.86 4.504.86 2.626 0 2.894-.052 4.58-.882 1.68-.827 2.167-1.25 5.245-4.566.788-.85 1.139-1.035 1.955-1.035.811 0 1.146.175 1.817.947 2.824 3.25 3.515 3.875 5.169 4.68 1.618.788 1.933.847 4.53.851 2.688.004 2.864-.032 4.763-.97 1.084-.537 2.384-1.403 2.888-1.924l.917-.949-.505-.938c-.76-1.41-3.507-3.836-5.438-4.802-1.992-.996.072-.421-40.248-11.205-6.497-1.738-12.664-3.267-13.704-3.397-2.145-.27-5.055.032-6.894.714-4.692 1.741-8.398 6.13-9.798 11.602-.87 3.398-.57 8.874.605 11.072l.33.616 1.327-.498c.73-.274 1.732-.835 2.226-1.248.855-.714.883-.792.588-1.638-1.4-4.018.112-9.96 3.305-12.98 2.67-2.525 5.494-3.133 9.807-2.112 2.797.662 3.69 1.238 3.934 2.538.234 1.247-.269 2.334-1.348 2.915-.847.456-.988.458-2.825.042-2.12-.48-2.554-.535-3.897-.49-1.886.064-3.99 3.297-3.99 6.132 0 .816.121 1.03.728 1.287.4.17 1.233 1.002 1.85 1.85 1.27 1.745 3.355 3.3 5.417 4.037 1.1.393 1.92.478 3.844.396 2.094-.089 2.685-.223 4.101-.935zm-.091-10.43c-1.777-1.194-1.608-3.55.322-4.494 2.95-1.443 5.336 2.873 2.533 4.582-1.1.67-1.757.65-2.855-.088zm39.728-6.341c.008-.328.467-6.49 1.021-13.692.554-7.204.934-13.166.846-13.251-.387-.37-12.77-3.482-12.978-3.261-.198.21-6.73 24.307-6.944 25.617-.074.452.836.754 8.516 2.824 4.73 1.276 8.807 2.328 9.062 2.339.306.012.468-.183.477-.576zm-23.234-5.953c4.027-14.878 6.867-25.768 6.751-25.884-.133-.133-12.53-3.533-12.93-3.546-.089-.003-.47.68-.845 1.516-.664 1.478-1.344 2.895-8.088 16.867-1.756 3.638-3.077 6.655-2.936 6.703.38.13 17.56 4.76 17.755 4.785.093.012.224-.187.293-.441zm25.715-27.385c.195-1.22 2.055-26.697 1.954-26.774-.244-.188-7.078-1.836-7.167-1.729-.138.166-6.873 25.376-6.91 25.866-.021.27 1.42.765 5.13 1.76 2.838.76 5.338 1.454 5.556 1.54.934.366 1.3.198 1.437-.663zm-16.983-5.16c3.405-12.48 6.598-24.713 6.481-24.83-.322-.322-6.908-1.965-7.095-1.77-.332.346-11.973 24.683-11.86 24.792.09.085 11.436 3.237 11.904 3.307.085.013.341-.661.57-1.498zm20.813-30.255c.468-1.762.814-3.238.769-3.282-.235-.223-18.258-4.93-18.387-4.8-.168.167-1.942 6.34-1.848 6.433.145.145 17.568 4.797 18.06 4.823.49.025.653-.343 1.406-3.174zm3.185-11.904c.466-1.76.809-3.238.762-3.285-.197-.197-18.053-4.9-18.295-4.82-.147.05-.648 1.529-1.115 3.288l-.85 3.198 4.531 1.21c2.492.667 6.496 1.742 8.897 2.392 2.4.649 4.558 1.188 4.794 1.199.33.014.627-.727 1.276-3.182zm12.808 92.12c-1.801-1.099-1.652-3.85.253-4.646 1.73-.723 3.623.484 3.623 2.312 0 1.366-.388 2.017-1.468 2.469-1.165.486-1.41.472-2.408-.136zm-3.63-6.398c-.417-.114-1.608-1.027-2.646-2.028-1.038-1.002-2.815-2.445-3.95-3.207-2.215-1.487-2.71-2.227-2.442-3.652.211-1.13 1.268-1.933 2.54-1.933 1.388 0 5.037 2.475 7.72 5.237 1.76 1.812 2.05 2.24 2.05 3.031 0 1.702-1.657 2.995-3.272 2.552z" transform="translate(183.36 -89.415)"/></svg>