<?xml version="1.0" encoding="UTF-8" standalone="no"?>
<!-- Created with Inkscape (http://www.inkscape.org/) -->

<svg
   xmlns:dc="http://purl.org/dc/elements/1.1/"
   xmlns:cc="http://creativecommons.org/ns#"
   xmlns:rdf="http://www.w3.org/1999/02/22-rdf-syntax-ns#"
   xmlns:svg="http://www.w3.org/2000/svg"
   xmlns="http://www.w3.org/2000/svg"
   xmlns:sodipodi="http://sodipodi.sourceforge.net/DTD/sodipodi-0.dtd"
   xmlns:inkscape="http://www.inkscape.org/namespaces/inkscape"
   width="135.40459mm"
   height="135.46667mm"
   viewBox="0 0 135.40459 135.46667"
   version="1.1"
   id="svg1998"
   inkscape:version="0.92.3 (2405546, 2018-03-11)"
   sodipodi:docname="measurement.svg">
  <defs
     id="defs1992" />
  <sodipodi:namedview
     id="base"
     pagecolor="#ffffff"
     bordercolor="#666666"
     borderopacity="1.0"
     inkscape:pageopacity="0.0"
     inkscape:pageshadow="2"
     inkscape:zoom="0.7"
     inkscape:cx="886.70744"
     inkscape:cy="268.88732"
     inkscape:document-units="mm"
     inkscape:current-layer="layer1"
     showgrid="false"
     inkscape:window-width="1859"
     inkscape:window-height="1025"
     inkscape:window-x="61"
     inkscape:window-y="27"
     inkscape:window-maximized="1" />
  <metadata
     id="metadata1995">
    <rdf:RDF>
      <cc:Work
         rdf:about="">
        <dc:format>image/svg+xml</dc:format>
        <dc:type
           rdf:resource="http://purl.org/dc/dcmitype/StillImage" />
        <dc:title></dc:title>
      </cc:Work>
    </rdf:RDF>
  </metadata>
  <g
     inkscape:label="Layer 1"
     inkscape:groupmode="layer"
     id="layer1"
     transform="translate(183.36055,-89.415472)">
    <path
       style="fill:#102a43;fill-opacity:1;stroke-width:0.26458332"
       d="m -166.1391,224.36595 c -3.9683,-1.07656 -7.41768,-3.45966 -9.36511,-6.47014 -1.31421,-2.03161 -1.37064,-3.24706 -0.19662,-4.23494 0.53868,-0.45327 1.12938,-0.68498 1.74625,-0.68498 0.98202,0 1.75642,0.63255 3.33894,2.72728 1.60405,2.12326 5.3506,3.88731 8.25597,3.88731 2.92774,0 6.44612,-1.63253 8.14944,-3.78136 1.88933,-2.38348 2.4516,-2.83358 3.53191,-2.82734 1.1809,0.007 1.79422,0.44655 2.97407,2.13235 1.05287,1.50437 3.0134,3.02282 4.84965,3.75612 1.06482,0.42523 1.99797,0.56146 3.92427,0.57291 2.39856,0.0143 2.62885,-0.0352 4.52188,-0.97076 1.92369,-0.95074 2.31315,-1.29497 5.15046,-4.55225 0.69798,-0.80129 0.99022,-0.94426 1.93025,-0.94426 1.26379,0 2.26039,0.78049 2.56957,2.01236 0.4716,1.87901 -3.4155,6.35066 -7.07822,8.14265 -2.18014,1.06665 -5.05233,1.75124 -7.34721,1.75124 -3.23956,0 -7.39428,-1.55324 -10.14266,-3.79182 l -1.41593,-1.1533 -1.14658,1.0175 c -3.70714,3.2898 -9.54619,4.68763 -14.25033,3.41143 z m 70.322136,0.0932 c -2.54806,-0.54794 -5.320006,-2.01999 -7.311166,-3.88262 -3.04368,-2.84721 -3.96992,-4.67261 -3.16288,-6.23326 0.52406,-1.01341 1.15165,-1.36741 2.42425,-1.36741 0.7945,0 1.13706,0.17937 1.80333,0.94426 2.555076,2.93328 3.181766,3.52959 4.414526,4.20054 1.7058,0.92842 3.68792,1.4626 5.44209,1.46665 3.07586,0.007 6.75155,-1.88288 8.56035,-4.40158 1.31228,-1.82732 1.82937,-2.20987 2.9871,-2.20987 1.10811,0 1.36053,0.20627 3.84872,3.14502 1.54301,1.82241 4.29368,3.17063 6.91765,3.39061 3.67266,0.3079 7.29312,-1.33979 9.637,-4.38584 1.41756,-1.84222 1.86959,-2.14979 3.15957,-2.14979 0.70242,0 1.08187,0.19247 1.6049,0.81406 1.34335,1.59648 0.74599,3.37107 -2.09305,6.21783 -3.29804,3.30701 -7.96551,5.11018 -12.41284,4.79541 -3.53552,-0.25022 -7.91998,-2.13162 -9.91399,-4.25413 l -0.61522,-0.65489 -1.44224,1.17473 c -3.92004,3.19291 -8.99182,4.43458 -13.8481,3.39028 z m -82.230356,-17.45121 c -4.59408,-1.23658 -6.22619,-3.03749 -4.82919,-5.32863 0.76431,-1.2535 1.95955,-1.39598 4.2002,-0.50068 3.30718,1.32146 6.38339,1.33442 9.21336,0.0388 1.542,-0.70595 3.75936,-2.64067 4.61717,-4.02864 1.20799,-1.95458 3.356,-2.15177 4.66691,-0.42843 1.68641,2.21698 3.05754,3.47827 4.62661,4.25597 0.90544,0.44878 1.6892,0.77301 1.74169,0.72052 0.0525,-0.0525 -0.1168,-1.02775 -0.37619,-2.16726 -0.59573,-2.61704 -0.59289,-7.14787 0.006,-9.86364 1.29974,-5.89209 4.87813,-11.25836 9.52727,-14.28739 3.50251,-2.28198 8.44408,-3.46595 12.54646,-3.00606 1.98906,0.22298 2.21775,0.20148 2.4488,-0.23023 0.73727,-1.37761 11.8749,-24.64949 11.81683,-24.69107 -0.0376,-0.027 -1.37473,-0.39057 -2.97131,-0.80803 -3.4427,-0.90018 -4.42609,-1.58253 -4.42609,-3.0712 0,-1.30579 0.45841,-2.0489 1.5436,-2.50233 0.86008,-0.35936 1.14899,-0.3229 4.51176,0.56934 1.97607,0.52431 3.68524,0.856 3.79816,0.73708 0.11293,-0.11892 3.17327,-6.40746 6.80076,-13.97455 6.43533,-13.42433 6.62315,-13.86301 7.73734,-18.07043 1.325026,-5.00364 1.243726,-5.51368 -0.58704,-3.68291 -1.41125,1.41123 -3.58113,2.30647 -5.59048,2.30647 -4.21718,0 -7.84243,-3.59988 -7.84243,-7.78757 0,-5.655661 5.86456,-9.534031 11.04028,-7.301203 2.18256,0.941562 4.546156,3.920661 4.564326,5.752901 0.003,0.3223 0.2243,0.702932 0.49134,0.845852 0.44381,0.23752 0.58322,-0.1084 1.62229,-4.025582 0.62521,-2.356995 1.31445,-4.7365 1.53164,-5.287793 0.3849,-0.977002 1.42297,-1.775773 2.30777,-1.775773 0.34861,0 10.52757,2.681504 22.06262,5.81209 1.50817,0.409316 3.055,0.9778 3.4374,1.263296 1.25573,0.93754 1.23628,1.60373 -0.20286,6.947532 -0.77094,2.86265 -1.22045,4.99294 -1.08272,5.13119 0.13803,0.13856 0.80832,-0.27861 1.61945,-1.00789 1.66938,-1.50091 2.75857,-1.98842 4.88987,-2.18867 4.50365,-0.42313 8.37214,3.16891 8.39229,7.79257 0.0282,6.47459 -7.43586,10.23578 -12.56809,6.33313 -1.34246,-1.02083 -2.74924,-3.23369 -3.00024,-4.71934 -0.13115,-0.77627 -0.29023,-1.02945 -0.60832,-0.96819 -0.31257,0.0602 -0.74432,1.20737 -1.57377,4.18164 l -1.14304,4.09868 -1.1948,15.57223 c -0.65714,8.56472 -1.15452,15.6125 -1.10528,15.66174 0.0492,0.0492 1.45548,0.4563 3.12499,0.9046 3.96522,1.06473 4.30738,1.21404 4.83715,2.11087 0.84087,1.42349 0.30501,3.11964 -1.1799,3.73471 -0.77408,0.32064 -1.17087,0.27372 -4.0396,-0.47762 -1.74966,-0.45826 -3.20013,-0.80985 -3.22326,-0.78132 -0.0231,0.0285 -0.47408,5.94547 -1.00209,13.14875 -0.52801,7.20328 -1.01521,13.42225 -1.08267,13.81994 -0.11416,0.67307 0.009,0.78465 1.78806,1.61363 3.79297,1.76785 6.92383,4.75665 9.05455,8.64368 3.01701,5.50387 8.61071,7.49772 14.44521,5.14894 2.25934,-0.90954 3.45155,-0.77175 4.21946,0.48764 1.42894,2.34356 -0.27481,4.14378 -5.08903,5.37712 -1.22264,0.31323 -2.42681,0.39295 -4.57486,0.30289 -2.47677,-0.10385 -3.23394,-0.24835 -5.03212,-0.96038 -1.16418,-0.46097 -2.65245,-1.24992 -3.30729,-1.75321 -0.65484,-0.50329 -1.50543,-1.15574 -1.8902,-1.44988 l -0.69957,-0.53482 -1.42536,1.17344 c -2.95137,2.42973 -6.28663,3.58517 -10.34884,3.58517 -3.8897,0 -7.27337,-1.23549 -10.30717,-3.76348 l -1.25552,-1.04619 -1.23938,1.09094 c -1.4397,1.26728 -4.3507,2.77148 -6.436036,3.3257 -1.84644,0.49073 -6.06018,0.49912 -7.87621,0.0157 -2.13653,-0.56875 -4.53625,-1.78647 -6.2147,-3.15358 l -1.51952,-1.23766 -1.52135,1.24048 c -1.73906,1.41799 -4.57857,2.80342 -6.62761,3.23369 -2.0143,0.42297 -5.66573,0.36256 -7.55556,-0.125 -2.06257,-0.53212 -4.85562,-1.99101 -6.37895,-3.3319 l -1.18148,-1.03998 -1.70481,1.30666 c -3.15553,2.41858 -6.2416,3.48463 -10.08753,3.48463 -3.85279,0 -7.21486,-1.19023 -10.14068,-3.58997 l -1.40943,-1.15601 -1.76557,1.35684 c -3.17649,2.44112 -6.04469,3.39964 -10.08939,3.37173 -1.38825,-0.01 -3.15416,-0.187 -3.92425,-0.39429 z m 55.30776,-5.90158 c 1.94469,-0.97641 2.61307,-1.53828 4.14709,-3.48626 1.30651,-1.65908 1.93501,-2.08417 3.10088,-2.09733 0.93982,-0.0106 1.41483,0.35694 2.89325,2.23871 1.4437,1.83758 2.10564,2.38556 4.07582,3.37409 1.60963,0.80763 1.88442,0.86012 4.50348,0.86012 2.62621,0 2.89392,-0.0515 4.579896,-0.88154 1.68025,-0.82718 2.16673,-1.25068 5.2447,-4.56568 0.78893,-0.84969 1.13919,-1.03507 1.95561,-1.03507 0.81106,0 1.14631,0.17463 1.81707,0.9465 2.82414,3.2499 3.5143,3.87485 5.16864,4.68034 1.6183,0.78794 1.93342,0.84714 4.5302,0.85115 2.68749,0.004 2.86399,-0.0319 4.7625,-0.97098 1.08437,-0.53641 2.38428,-1.40208 2.8887,-1.92372 l 0.91711,-0.94842 -0.50513,-0.93797 c -0.75935,-1.41003 -3.50722,-3.83652 -5.43791,-4.80192 -1.99278,-0.99645 0.0714,-0.42176 -40.248316,-11.20567 -6.49736,-1.73779 -12.66411,-3.26643 -13.70388,-3.39699 -2.14541,-0.26939 -5.0554,0.0321 -6.8942,0.71436 -4.69228,1.74093 -8.39823,6.12923 -9.79792,11.60196 -0.86912,3.39822 -0.56997,8.87365 0.6049,11.07194 l 0.32948,0.61649 1.3276,-0.49826 c 0.73017,-0.27405 1.73169,-0.83563 2.2256,-1.24796 0.85508,-0.71385 0.88319,-0.79218 0.58815,-1.63855 -1.40061,-4.01779 0.11264,-9.95982 3.30545,-12.97945 2.67026,-2.52542 5.49336,-3.13355 9.80635,-2.11241 2.79764,0.66236 3.69007,1.23815 3.93395,2.53814 0.23402,1.24743 -0.26813,2.334 -1.34722,2.91513 -0.8471,0.45619 -0.98845,0.4583 -2.82517,0.042 -2.12074,-0.48063 -2.55443,-0.53516 -3.89704,-0.48997 -1.88563,0.0635 -3.98954,3.29711 -3.98954,6.1318 0,0.81593 0.12071,1.02942 0.7276,1.28688 0.40018,0.16976 1.23237,1.00229 1.84931,1.85005 1.2701,1.74531 3.35577,3.29951 5.41725,4.03685 1.10044,0.39361 1.91994,0.47809 3.8447,0.39637 2.09374,-0.0889 2.68456,-0.22357 4.10104,-0.93477 z m -0.0919,-10.43051 c -1.77643,-1.1939 -1.60749,-3.55014 0.32221,-4.49383 2.95031,-1.4428 5.3359,2.87251 2.53284,4.58165 -1.09963,0.67049 -1.75681,0.65028 -2.85505,-0.0878 z m 39.728736,-6.3411 c 0.008,-0.32742 0.46717,-6.48891 1.02078,-13.69219 0.55362,-7.20328 0.93417,-13.16603 0.84568,-13.25056 -0.38715,-0.36983 -12.76993,-3.48155 -12.97736,-3.26113 -0.19811,0.21051 -6.730526,24.30699 -6.944566,25.6168 -0.0739,0.45206 0.83639,0.75397 8.516246,2.82472 4.72943,1.27521 8.80732,2.32736 9.06198,2.33812 0.30568,0.0129 0.46785,-0.18275 0.47724,-0.57576 z m -23.233956,-5.95312 c 4.02639,-14.87757 6.866816,-25.76768 6.751076,-25.88342 -0.13355,-0.13355 -12.530376,-3.53361 -12.930096,-3.54632 -0.0893,-0.003 -0.46981,0.67945 -0.84566,1.5162 -0.66363,1.47745 -1.34344,2.8952 -8.08779,16.86718 -1.7561,3.63802 -3.07714,6.65426 -2.93565,6.70275 0.38037,0.13035 17.55907,4.76022 17.75523,4.78525 0.0922,0.0118 0.22397,-0.18698 0.29289,-0.44164 z m 25.714676,-27.38438 c 0.19548,-1.22105 2.05472,-26.69726 1.95399,-26.77466 -0.24367,-0.18725 -7.07829,-1.83556 -7.16732,-1.72854 -0.1378,0.16563 -6.87263,25.37555 -6.91016,25.8662 -0.0207,0.2702 1.42071,0.76448 5.13063,1.75942 2.83766,0.761 5.33797,1.45386 5.55625,1.53968 0.93361,0.36703 1.29879,0.19873 1.43661,-0.6621 z m -16.98333,-5.15937 c 3.40497,-12.48121 6.59795,-24.71353 6.48135,-24.83013 -0.32248,-0.32248 -6.90804,-1.96583 -7.09549,-1.77059 -0.33176,0.34551 -11.973006,24.68304 -11.858626,24.79197 0.0888,0.0845 11.434846,3.23676 11.902676,3.30687 0.0853,0.0128 0.34182,-0.66138 0.57009,-1.49812 z m 20.81334,-30.25636 c 0.46836,-1.76149 0.81443,-3.23801 0.76904,-3.28116 -0.2355,-0.22384 -18.25787,-4.93002 -18.3866,-4.8013 -0.16817,0.16818 -1.94203,6.34081 -1.84894,6.4339 0.14505,0.14505 17.5681,4.79752 18.06106,4.82283 0.48968,0.0251 0.65259,-0.34279 1.40544,-3.17427 z m 3.1851,-11.90362 c 0.4657,-1.76005 0.8084,-3.23836 0.76157,-3.28514 -0.19698,-0.19675 -18.05235,-4.900022 -18.2951,-4.819106 -0.14634,0.04878 -0.64805,1.528014 -1.11489,3.287174 l -0.84881,3.198472 4.53057,1.21047 c 2.49181,0.66575 6.4951,1.74168 8.89619,2.39094 2.4011,0.64927 4.5587,1.18877 4.79469,1.19888 0.32914,0.0141 0.62624,-0.72685 1.27578,-3.18169 z m 12.80837,92.11957 c -1.80148,-1.09848 -1.6521,-3.84967 0.25224,-4.64535 1.73104,-0.72328 3.62309,0.48384 3.62309,2.3115 0,1.36591 -0.38745,2.01756 -1.46801,2.46905 -1.16444,0.48654 -1.41032,0.47273 -2.40732,-0.1352 z m -3.63024,-6.39701 c -0.41728,-0.11436 -1.60791,-1.02728 -2.64583,-2.0287 -1.03793,-1.00142 -2.81569,-2.44428 -3.9506,-3.20635 -2.21435,-1.48692 -2.70956,-2.22763 -2.44217,-3.6529 0.21176,-1.12879 1.26792,-1.93245 2.5396,-1.93245 1.38912,0 5.03802,2.47489 7.72072,5.23663 1.76041,1.81229 2.05052,2.2412 2.05052,3.03168 0,1.7017 -1.65771,2.99458 -3.27224,2.55209 z"
       id="path2554"
       inkscape:connector-curvature="0" />
  </g>
</svg>
