<svg xmlns="http://www.w3.org/2000/svg" width="208.069" height="239.951" viewBox="0 0 55.051 63.487"><path style="fill:#102a43;fill-opacity:1;stroke-width:.26458332" d="M56.964 157.581c-2.553-1.484-4.964-2.91-5.358-3.168l-.715-.469.004-6.145c.002-3.38.092-6.277.199-6.438.107-.161.828-.652 1.602-1.092l1.409-.8 1.037.563c.57.31 1.037.626 1.039.704 0 .078-.357.354-.797.613-.439.26-.738.57-.664.69.074.119 1.743 1.137 3.71 2.263l3.574 2.047 3.574-2.047c1.966-1.126 3.635-2.144 3.71-2.264.073-.12-.226-.43-.665-.689-.44-.26-.798-.535-.796-.613 0-.078.468-.394 1.039-.704l1.037-.563 1.408.8c.775.44 1.496.93 1.603 1.092.107.16.196 3.059.198 6.44l.004 6.148-.992.637c-2.36 1.516-9.848 5.72-10.167 5.707-.193-.007-2.44-1.227-4.993-2.712zm3.922-4.85-.073-4.399-3.77-2.197-3.77-2.198v8.89l3.638 2.123c2 1.167 3.73 2.136 3.842 2.152.113.016.173-1.95.133-4.37zm6.214 2.187 3.635-2.08v-8.9l-3.77 2.197-3.77 2.197-.073 4.424c-.04 2.433.02 4.383.135 4.333.115-.05 1.844-1.026 3.843-2.171zm-27.26-7.233-5.362-3.093.07-6.48.071-6.48 1.432-.86 1.432-.86 1.016.518c1.223.624 1.265.894.221 1.434-.436.225-.793.454-.793.508 0 .113 7.344 4.386 7.537 4.386.07 0 .708-.357 1.418-.793.71-.437 1.396-.79 1.525-.783.13.006.488.409.798.895l.562.884-1.554.874-1.555.875V147.589l.926-.547.926-.546v2.659l-1.421.813c-.782.447-1.526.813-1.654.812-.128-.001-2.645-1.394-5.595-3.095zm4.435-4.51-.002-4.432-2.308-1.323-3.84-2.202-1.535-.879.073 4.443.073 4.442 3.704 2.18c2.037 1.2 3.734 2.186 3.77 2.192.037.006.066-1.984.065-4.422zm32.612 6.792c-1.383-.813-1.39-.823-1.39-2.144v-1.327l.927.546.926.546V138.71l-1.574-.885-1.574-.885.515-.655c.284-.36.516-.83.516-1.042 0-.363.613-.085 2.923 1.327.306.187 1.362-.3 4.167-1.924 2.067-1.196 3.758-2.219 3.758-2.273 0-.054-.357-.283-.794-.508-1.043-.54-1.001-.81.222-1.434l1.015-.518 1.432.86 1.432.86.07 6.478.071 6.48-5.188 2.994c-2.853 1.647-5.385 3.041-5.626 3.098-.242.056-1.064-.265-1.828-.715zm7.87-5.276 2.514-1.475.073-4.439.073-4.438-1.534.879-3.841 2.202-2.308 1.323-.002 4.443-.002 4.443 1.257-.731c.691-.402 2.388-1.395 3.77-2.207zm-28.151-6.459c-2.897-1.665-5.365-3.184-5.486-3.375-.375-.592-.282-12.22.102-12.695.182-.226 2.682-1.754 5.556-3.397l5.226-2.987 5.225 2.987c2.874 1.643 5.375 3.171 5.556 3.397.243.3.331 2.002.331 6.394 0 4.394-.088 6.093-.33 6.392-.302.372-9.586 5.812-10.518 6.163-.228.087-2.629-1.134-5.662-2.879zm4.34-4.715v-4.3l-2.448-1.389a404.372 404.372 0 0 1-3.836-2.205l-1.39-.815.003 4.454.003 4.454 3.504 2.026c1.926 1.114 3.652 2.037 3.834 2.05.252.019.33-.999.33-4.275zm6.296 2.183 3.491-1.984v-4.454l.002-4.454-1.39.815c-.763.449-2.49 1.44-3.836 2.205l-2.447 1.39v4.319c0 3.416.072 4.3.345 4.233.19-.047 1.915-.979 3.835-2.07zm-1.52-10.61c2.03-1.18 3.687-2.221 3.684-2.315-.003-.095-1.67-1.107-3.704-2.249l-3.698-2.077-3.698 2.077c-2.034 1.142-3.67 2.171-3.635 2.286.05.167 6.983 4.365 7.281 4.41.044.006 1.741-.953 3.77-2.132zm-20.931 6.28c-1.04-.544-8.226-4.69-9.312-5.372l-.992-.623v-12.857l5.114-2.952c2.812-1.623 5.307-3.026 5.544-3.117.274-.105 2.143.82 5.139 2.543 6.684 3.845 6.163 3.376 6.163 5.554v1.829l-1.058.54-1.058.54v-1.064c0-.585-.066-1.064-.147-1.064-.08 0-1.807.965-3.836 2.144l-3.69 2.143v4.34c0 2.385.096 4.338.214 4.338s.445-.175.728-.389c.799-.605.91-.497.91.881v1.286l-1.537.819c-1.36.725-1.61.78-2.182.48zm-.514-7.411v-4.333l-3.62-2.083c-1.99-1.146-3.72-2.124-3.843-2.174-.123-.05-.19 1.898-.15 4.328l.072 4.418 3.572 2.085c1.964 1.146 3.661 2.086 3.77 2.088.11.002.199-1.946.199-4.329zm5.027-8.506c1.964-1.131 3.611-2.089 3.66-2.128.087-.07-3.514-2.224-6.2-3.712l-1.35-.747-3.614 2.07c-1.988 1.138-3.666 2.153-3.73 2.256-.123.2 7.287 4.528 7.523 4.396.076-.043 1.746-1.003 3.71-2.135zm27.694 15.395c-1.498-.83-1.5-.833-1.5-2.09 0-1.352.112-1.458.91-.855.282.214.61.389.728.389.117 0 .214-1.953.214-4.339v-4.339l-3.69-2.143c-2.03-1.18-3.756-2.144-3.837-2.144-.08 0-.146.479-.146 1.064v1.064l-1.059-.54-1.058-.54v-1.829c0-2.178-.52-1.709 6.164-5.554 2.995-1.723 4.865-2.648 5.138-2.543.237.09 2.732 1.494 5.545 3.117l5.113 2.952v6.4c0 4.8-.082 6.465-.33 6.664-.434.348-9.799 5.755-10.302 5.949-.214.082-1.065-.225-1.89-.683zM83.7 126.2l3.571-2.085.073-4.418c.04-2.43-.028-4.378-.151-4.328-.123.05-1.852 1.028-3.843 2.174l-3.62 2.083v4.333c0 2.383.09 4.331.2 4.33.108-.003 1.805-.943 3.77-2.09zm-.609-11.132c1.63-.927 2.911-1.77 2.847-1.874-.064-.104-1.743-1.12-3.73-2.258l-3.614-2.07-1.35.747c-.742.411-2.467 1.402-3.832 2.202l-2.482 1.454 2.085 1.198c1.147.658 2.856 1.653 3.797 2.211 1.711 1.013 1.713 1.014 2.514.545.44-.258 2.135-1.228 3.765-2.155zm-22.146-3.135v-1.807l-3.77-2.164-3.77-2.164-.082 1.06c-.044.584-.14 1.06-.212 1.06-.072 0-.6-.267-1.173-.595l-1.043-.595-.002-1.782c-.002-1.77.004-1.786.99-2.42 2.111-1.356 9.833-5.72 10.12-5.72.289 0 8.01 4.364 10.121 5.72.986.634.992.65.99 2.42l-.002 1.782-1.042.595c-.574.328-1.102.596-1.174.596-.072 0-.167-.477-.212-1.06l-.081-1.06-3.77 2.163-3.77 2.164v3.614H60.944v-1.807zm4.937-6.057c1.942-1.123 3.53-2.108 3.53-2.188 0-.216-7.03-4.236-7.408-4.236-.377 0-7.409 4.02-7.409 4.235 0 .23 6.973 4.221 7.384 4.227.205.003 1.962-.914 3.903-2.038z" transform="translate(-34.478 -96.806)"/></svg>