<?xml version="1.0" encoding="UTF-8" standalone="no"?>
<!-- Created with Inkscape (http://www.inkscape.org/) -->

<svg
   xmlns:dc="http://purl.org/dc/elements/1.1/"
   xmlns:cc="http://creativecommons.org/ns#"
   xmlns:rdf="http://www.w3.org/1999/02/22-rdf-syntax-ns#"
   xmlns:svg="http://www.w3.org/2000/svg"
   xmlns="http://www.w3.org/2000/svg"
   xmlns:sodipodi="http://sodipodi.sourceforge.net/DTD/sodipodi-0.dtd"
   xmlns:inkscape="http://www.inkscape.org/namespaces/inkscape"
   width="55.05146mm"
   height="63.486946mm"
   viewBox="0 0 55.05146 63.486946"
   version="1.1"
   id="svg821"
   inkscape:version="0.92.3 (2405546, 2018-03-11)"
   sodipodi:docname="model.svg">
  <defs
     id="defs815" />
  <sodipodi:namedview
     id="base"
     pagecolor="#ffffff"
     bordercolor="#666666"
     borderopacity="1.0"
     inkscape:pageopacity="0.0"
     inkscape:pageshadow="2"
     inkscape:zoom="0.49497475"
     inkscape:cx="649.06673"
     inkscape:cy="247.1172"
     inkscape:document-units="mm"
     inkscape:current-layer="layer1"
     showgrid="false"
     inkscape:window-width="1859"
     inkscape:window-height="1025"
     inkscape:window-x="61"
     inkscape:window-y="27"
     inkscape:window-maximized="1" />
  <metadata
     id="metadata818">
    <rdf:RDF>
      <cc:Work
         rdf:about="">
        <dc:format>image/svg+xml</dc:format>
        <dc:type
           rdf:resource="http://purl.org/dc/dcmitype/StillImage" />
        <dc:title></dc:title>
      </cc:Work>
    </rdf:RDF>
  </metadata>
  <g
     inkscape:label="Layer 1"
     inkscape:groupmode="layer"
     id="layer1"
     transform="translate(-34.478035,-96.806258)">
    <path
       style="fill:#102a43;fill-opacity:1;stroke-width:0.26458332"
       d="m 56.964145,157.5812 c -2.55348,-1.4844 -4.96449,-2.91001 -5.35781,-3.16802 l -0.71512,-0.46913 0.004,-6.14546 c 0.002,-3.38 0.0915,-6.27704 0.19844,-6.43785 0.10691,-0.16082 0.82814,-0.65219 1.60273,-1.09194 l 1.40834,-0.79955 1.03687,0.56277 c 0.57028,0.30953 1.03785,0.6264 1.03905,0.70417 0.001,0.0778 -0.3571,0.35362 -0.79623,0.61302 -0.43913,0.2594 -0.738,0.56939 -0.66416,0.68887 0.0738,0.11947 1.74281,1.13835 3.70883,2.26417 l 3.57458,2.04695 3.57458,-2.04695 c 1.96602,-1.12582 3.63499,-2.1447 3.70883,-2.26417 0.0738,-0.11948 -0.22503,-0.42947 -0.66416,-0.68887 -0.43913,-0.2594 -0.79743,-0.53526 -0.79623,-0.61302 0.001,-0.0778 0.46877,-0.39464 1.03905,-0.70417 l 1.03687,-0.56277 1.40834,0.79955 c 0.77459,0.43975 1.49582,0.93112 1.60273,1.09194 0.10692,0.16081 0.19621,3.0589 0.19844,6.4402 l 0.004,6.1478 -0.99219,0.63735 c -2.36046,1.51628 -9.84744,5.71901 -10.16691,5.70709 -0.19265,-0.007 -2.43949,-1.22758 -4.99297,-2.71198 z m 3.92149,-4.84953 -0.0725,-4.39959 -3.77032,-2.19743 -3.77031,-2.19742 v 4.44496 4.44496 l 3.63802,2.12259 c 2.00091,1.16742 3.7302,2.13585 3.84286,2.15205 0.11266,0.0162 0.17219,-1.95035 0.13229,-4.37012 z m 6.21482,2.18634 3.63451,-2.08096 v -4.44991 -4.44991 l -3.77031,2.19742 -3.77031,2.19743 -0.0727,4.4238 c -0.04,2.4331 0.0211,4.38314 0.13581,4.33344 0.11465,-0.0497 1.84398,-1.02679 3.84296,-2.17131 z m -27.2601,-7.23296 -5.36232,-3.09287 0.0707,-6.48026 0.0707,-6.48027 1.43199,-0.85972 1.43199,-0.85971 1.0154,0.51802 c 1.22317,0.62401 1.26489,0.89383 0.22166,1.4333 -0.43656,0.22576 -0.79375,0.45463 -0.79375,0.50861 0,0.11261 7.34399,4.38619 7.5375,4.38619 0.0701,0 0.70797,-0.35719 1.41747,-0.79375 0.70951,-0.43657 1.39591,-0.78871 1.52533,-0.78255 0.12943,0.006 0.48843,0.40887 0.79779,0.89492 l 0.56247,0.88373 -1.55466,0.87445 -1.55465,0.87446 v 4.4394 4.43941 l 0.92604,-0.54638 0.92604,-0.54638 v 1.32963 1.32964 l -1.42127,0.81317 c -0.7817,0.44724 -1.52584,0.81241 -1.65365,0.8115 -0.1278,-8e-4 -2.64542,-1.39346 -5.59469,-3.09454 z m 4.43453,-4.51057 -0.002,-4.43177 -2.30747,-1.32292 c -1.26911,-0.7276 -2.99765,-1.7184 -3.8412,-2.20178 l -1.53372,-0.87888 0.0726,4.44239 0.0726,4.44238 3.70416,2.18057 c 2.0373,1.19931 3.73394,2.18534 3.77032,2.19118 0.0364,0.006 0.0654,-1.98369 0.0644,-4.42117 z m 32.61164,6.79265 c -1.38249,-0.81319 -1.38906,-0.82333 -1.38906,-2.14427 v -1.32721 l 0.92604,0.54638 0.92604,0.54638 v -4.43941 -4.4394 l -1.57377,-0.88521 -1.57377,-0.8852 0.51544,-0.65528 c 0.28349,-0.3604 0.51544,-0.82912 0.51544,-1.0416 0,-0.36346 0.61277,-0.0854 2.92325,1.32638 0.30595,0.18695 1.3614,-0.30036 4.16719,-1.92402 2.06661,-1.19591 3.75747,-2.21854 3.75747,-2.27252 0,-0.054 -0.35718,-0.28285 -0.79375,-0.50861 -1.04323,-0.53947 -1.0015,-0.80929 0.22166,-1.4333 l 1.0154,-0.51802 1.43199,0.85971 1.432,0.85972 0.0707,6.4787 0.0707,6.47871 -5.18806,2.9949 c -2.85344,1.64719 -5.38555,3.0411 -5.62691,3.09757 -0.24136,0.0565 -1.06391,-0.26501 -1.8279,-0.7144 z m 7.87136,-5.27581 2.51354,-1.47558 0.0726,-4.4383 0.0726,-4.43831 -1.53373,0.87888 c -0.84355,0.48338 -2.57208,1.47418 -3.84119,2.20178 l -2.30747,1.32292 -0.002,4.44292 -0.002,4.44293 1.25677,-0.73083 c 0.69123,-0.40195 2.38787,-1.39484 3.77032,-2.20641 z m -28.15233,-6.45896 c -2.89622,-1.66571 -5.36495,-3.18481 -5.48605,-3.37577 -0.37493,-0.59123 -0.28111,-12.21911 0.10244,-12.69481 0.1819,-0.22561 2.68221,-1.75415 5.55625,-3.39675 l 5.22552,-2.98654 5.22552,2.98654 c 2.87404,1.6426 5.37435,3.17114 5.55625,3.39675 0.24275,0.30107 0.33073,2.00221 0.33073,6.39447 0,4.39355 -0.0879,6.09268 -0.33073,6.39207 -0.30109,0.37124 -9.58539,5.8118 -10.51719,6.16302 -0.22864,0.0862 -2.62905,-1.1342 -5.66274,-2.87898 z m 4.33976,-4.71517 -7e-5,-4.29948 -2.44733,-1.38968 c -1.34603,-0.76433 -3.0724,-1.75642 -3.83639,-2.20465 l -1.38906,-0.81497 0.003,4.45361 0.003,4.45361 3.50318,2.02604 c 1.92674,1.11433 3.652,2.03706 3.8339,2.05053 0.25202,0.0187 0.33071,-0.99873 0.33066,-4.27501 z m 6.29711,2.18281 3.4907,-1.98437 7.9e-4,-4.45361 8e-4,-4.45361 -1.38907,0.81497 c -0.76398,0.44823 -2.49035,1.44032 -3.83639,2.20465 l -2.44732,1.38968 -7e-5,4.31888 c -6e-5,3.41676 0.072,4.30101 0.34477,4.23333 0.18966,-0.0471 1.91565,-0.97851 3.83554,-2.06992 z m -1.52006,-10.61034 c 2.02933,-1.17902 3.68708,-2.22082 3.6839,-2.3151 -0.003,-0.0943 -1.67005,-1.10607 -3.70417,-2.2484 l -3.69838,-2.07696 -3.69788,2.07696 c -2.03383,1.14233 -3.66936,2.17099 -3.63452,2.2859 0.0506,0.16687 6.983,4.36525 7.28074,4.40934 0.0444,0.007 1.74099,-0.95272 3.77031,-2.13174 z m -20.93182,6.28026 c -1.03869,-0.54347 -8.22596,-4.68996 -9.31131,-5.3719 l -0.99219,-0.62341 v -6.42818 -6.42818 l 5.11375,-2.952 c 2.81257,-1.62361 5.30747,-3.02634 5.54423,-3.1172 0.27387,-0.10509 2.14344,0.82015 5.13886,2.54319 6.68427,3.84495 6.16358,3.37578 6.16358,5.55374 v 1.82868 l -1.05833,0.53993 -1.05834,0.53992 v -1.06371 c 0,-0.58504 -0.0661,-1.06371 -0.14677,-1.06371 -0.0807,0 -1.80714,0.96465 -3.83646,2.14367 l -3.68968,2.14367 v 4.33862 c 0,2.38624 0.0963,4.33862 0.21401,4.33862 0.11771,0 0.44513,-0.17481 0.72761,-0.38846 0.79952,-0.60473 0.91046,-0.4974 0.91046,0.88076 v 1.28606 l -1.5366,0.819 c -1.36043,0.72509 -1.6107,0.78023 -2.18282,0.48089 z m -0.51391,-7.41095 v -4.33269 l -3.61918,-2.08345 c -1.99054,-1.1459 -3.71988,-2.12412 -3.84296,-2.17382 -0.12309,-0.0497 -0.1911,1.89778 -0.15114,4.32773 l 0.0727,4.41809 3.57188,2.08481 c 1.96453,1.14664 3.66117,2.08643 3.77031,2.08842 0.10914,0.002 0.19844,-1.9461 0.19844,-4.32909 z m 5.02708,-8.5057 c 1.96453,-1.13135 3.61168,-2.08901 3.66033,-2.12814 0.0865,-0.0695 -3.51384,-2.2246 -6.20084,-3.71168 l -1.3499,-0.74708 -3.61375,2.06937 c -1.98756,1.13816 -3.66584,2.15367 -3.72952,2.2567 -0.12284,0.19876 7.28672,4.52804 7.52304,4.3956 0.0763,-0.0428 1.74611,-1.00343 3.71064,-2.13477 z m 27.69441,15.3952 c -1.49794,-0.82978 -1.50066,-0.83357 -1.50066,-2.09092 0,-1.35168 0.11288,-1.4576 0.91047,-0.85434 0.28247,0.21365 0.60989,0.38846 0.7276,0.38846 0.11771,0 0.21401,-1.95238 0.21401,-4.33862 v -4.33862 l -3.68968,-2.14367 c -2.02932,-1.17902 -3.75573,-2.14367 -3.83645,-2.14367 -0.0807,0 -0.14678,0.47867 -0.14678,1.06371 v 1.06371 l -1.05834,-0.53992 -1.05833,-0.53993 v -1.82868 c 0,-2.17796 -0.52069,-1.70879 6.16358,-5.55374 2.99542,-1.72304 4.86499,-2.64828 5.13886,-2.54319 0.23676,0.0909 2.73167,1.49359 5.54423,3.1172 l 5.11375,2.952 v 6.3991 c 0,4.80139 -0.0826,6.46536 -0.33073,6.66444 -0.4341,0.34826 -9.7983,5.75546 -10.30214,5.9488 -0.2138,0.082 -1.06403,-0.22491 -1.88939,-0.68212 z m 6.70142,-4.64883 3.57188,-2.08481 0.0727,-4.41809 c 0.04,-2.42995 -0.0281,-4.37742 -0.15114,-4.32773 -0.12308,0.0497 -1.85242,1.02792 -3.84296,2.17382 l -3.61918,2.08345 v 4.33269 c 0,2.38299 0.0893,4.33107 0.19844,4.32909 0.10914,-0.002 1.80578,-0.94178 3.77031,-2.08842 z m -0.60843,-11.13158 c 1.62989,-0.92733 2.91103,-1.77085 2.84697,-1.8745 -0.0641,-0.10364 -1.74265,-1.11966 -3.73021,-2.25782 l -3.61375,-2.06937 -1.34989,0.74708 c -0.74244,0.41089 -2.46696,1.40146 -3.83226,2.20126 l -2.48236,1.45418 2.08549,1.19763 c 1.14702,0.6587 2.8558,1.65389 3.7973,2.21154 1.7108,1.0133 1.7123,1.01362 2.51354,0.54498 0.44095,-0.25791 2.13528,-1.22765 3.76517,-2.15498 z m -22.14573,-3.13524 v -1.80676 l -3.77031,-2.16389 -3.77032,-2.16389 -0.0814,1.06024 c -0.0447,0.58313 -0.14022,1.06023 -0.21216,1.06023 -0.0719,0 -0.59996,-0.26789 -1.17337,-0.59531 l -1.04257,-0.59531 -0.002,-1.78219 c -0.002,-1.77052 0.004,-1.78635 0.99015,-2.41952 2.11105,-1.35602 9.83226,-5.720162 10.12039,-5.720162 0.28813,0 8.00935,4.364142 10.12031,5.720162 0.9857,0.63317 0.99218,0.649 0.99015,2.41952 l -0.002,1.78219 -1.04257,0.59531 c -0.57342,0.32742 -1.10143,0.59531 -1.17338,0.59531 -0.0719,0 -0.16741,-0.4771 -0.21216,-1.06023 l -0.0814,-1.06024 -3.77031,2.16389 -3.77032,2.16389 v 1.80676 1.80677 h -1.05833 -1.05833 v -1.80677 z m 4.93667,-6.05668 c 1.9415,-1.12343 3.52999,-2.10799 3.52999,-2.1879 0,-0.21616 -7.03031,-4.236149 -7.40833,-4.236149 -0.3767,0 -7.40833,4.019609 -7.40833,4.234949 0,0.23016 6.97231,4.22118 7.38407,4.22671 0.20494,0.003 1.96111,-0.91417 3.9026,-2.03761 z"
       id="path1377"
       inkscape:connector-curvature="0" />
  </g>
</svg>
