<?xml version="1.0" encoding="UTF-8" standalone="no"?>
<!-- Created with Inkscape (http://www.inkscape.org/) -->

<svg
   xmlns:dc="http://purl.org/dc/elements/1.1/"
   xmlns:cc="http://creativecommons.org/ns#"
   xmlns:rdf="http://www.w3.org/1999/02/22-rdf-syntax-ns#"
   xmlns:svg="http://www.w3.org/2000/svg"
   xmlns="http://www.w3.org/2000/svg"
   xmlns:sodipodi="http://sodipodi.sourceforge.net/DTD/sodipodi-0.dtd"
   xmlns:inkscape="http://www.inkscape.org/namespaces/inkscape"
   width="135.07738mm"
   height="124.816mm"
   viewBox="0 0 135.07738 124.816"
   version="1.1"
   id="svg1404"
   inkscape:version="0.92.3 (2405546, 2018-03-11)"
   sodipodi:docname="satellite.svg">
  <defs
     id="defs1398" />
  <sodipodi:namedview
     id="base"
     pagecolor="#ffffff"
     bordercolor="#666666"
     borderopacity="1.0"
     inkscape:pageopacity="0.0"
     inkscape:pageshadow="2"
     inkscape:zoom="0.35"
     inkscape:cx="-378.83474"
     inkscape:cy="406.03992"
     inkscape:document-units="mm"
     inkscape:current-layer="layer1"
     showgrid="false"
     inkscape:window-width="1859"
     inkscape:window-height="1025"
     inkscape:window-x="61"
     inkscape:window-y="27"
     inkscape:window-maximized="1" />
  <metadata
     id="metadata1401">
    <rdf:RDF>
      <cc:Work
         rdf:about="">
        <dc:format>image/svg+xml</dc:format>
        <dc:type
           rdf:resource="http://purl.org/dc/dcmitype/StillImage" />
        <dc:title></dc:title>
      </cc:Work>
    </rdf:RDF>
  </metadata>
  <g
     inkscape:label="Layer 1"
     inkscape:groupmode="layer"
     id="layer1"
     transform="translate(153.06185,-62.359049)">
    <path
       style="fill:#102a43;fill-opacity:1;stroke-width:0.26458332"
       d="m -110.38139,169.48804 c 11.034276,-9.71937 20.340966,-17.95747 20.681536,-18.30689 l 0.61922,-0.63532 -4.3304,-4.89479 c -2.38171,-2.69213 -4.3363,-4.96949 -4.34351,-5.0608 -0.007,-0.0913 0.85872,-0.94631 1.92432,-1.90001 l 1.93746,-1.73402 2.51533,2.8635 2.51533,2.8635 2.06957,-1.82338 c 1.13826,-1.00285 2.1215,-1.82337 2.18497,-1.82337 0.0635,0 0.611,0.53955 1.21671,1.19899 l 1.10131,1.199 5.15937,-4.52846 c 2.83766,-2.49066 5.38492,-4.74734 5.66059,-5.01485 0.49058,-0.47607 0.47797,-0.51351 -0.59374,-1.76377 l -1.09497,-1.27737 1.3875,-1.21658 c 0.76312,-0.66912 1.7234,-1.50371 2.13395,-1.85464 l 0.74645,-0.63805 -2.4001,-2.75141 c -1.32005,-1.51328 -2.4001,-2.84573 -2.4001,-2.96099 0,-0.23289 5.32653,-4.99321 5.59048,-4.99622 0.0916,-10e-4 2.09511,2.20217 4.45226,4.89603 l 4.28575,4.89793 0.74338,-0.59845 c 0.40887,-0.32915 9.80304,-8.57067 20.87594,-18.3145 19.93509,-17.542292 20.12779,-17.721342 19.64666,-18.256252 -0.26724,-0.29711 -5.27602,-5.993664 -11.13062,-12.65901 -5.8546,-6.665346 -10.73819,-12.082689 -10.85241,-12.038541 -0.11423,0.04415 -8.94392,7.765719 -19.62154,17.159046 -10.67762,9.393325 -19.54111,17.155845 -19.69664,17.250045 -0.18406,0.11148 -0.15242,-0.44736 0.0906,-1.60065 1.00252,-4.75717 -0.74606,-9.48938 -4.26936,-11.554163 -1.18223,-0.692835 -3.99065,-1.452256 -5.39421,-1.45864 -0.84332,-0.0038 -0.85989,0.01903 -0.85989,1.186714 0,0.654844 0.0893,1.191529 0.19843,1.192619 0.99591,0.01 3.76749,0.64996 4.55493,1.05167 2.85014,1.45404 4.07795,4.66936 3.36365,8.80857 -2.27449,13.180202 -20.058136,28.959882 -33.526186,29.748262 -5.87835,0.3441 -9.08413,-2.24785 -9.08413,-7.34472 v -2.05774 l -1.17386,-0.0934 c -1.44309,-0.11477 -1.49753,-10e-4 -1.29025,2.68643 0.35673,4.62603 2.38513,7.34207 6.52469,8.73659 1.38578,0.46683 2.16446,0.54871 4.5717,0.48072 l 2.90142,-0.082 -1.28634,1.13973 c -0.70749,0.62685 -9.7687,8.5984 -20.13603,17.71456 l -18.84968,16.57484 0.6175,0.67398 c 0.33963,0.37068 5.34522,6.06155 11.12352,12.64637 5.7783,6.58482 10.5895,11.96542 10.69155,11.95689 0.10205,-0.009 9.21359,-7.96772 20.24787,-17.68708 z m -24.8006,9.66151 c -2.41441,-2.7491 -4.38145,-5.07081 -4.37119,-5.15937 0.0177,-0.15325 9.4809,-8.50507 11.04597,-9.74875 l 0.74486,-0.59191 4.55773,5.18695 4.55773,5.18695 -1.00362,0.86906 c -0.55199,0.47797 -3.14674,2.77933 -5.76611,5.11412 -2.61938,2.33479 -4.90043,4.22173 -5.06902,4.19319 -0.16858,-0.0285 -2.28194,-2.30114 -4.69635,-5.05024 z m 13.50686,-11.65625 c -2.42162,-2.75712 -4.40295,-5.09974 -4.40295,-5.20582 0,-0.22965 11.37593,-10.28644 11.63572,-10.28644 0.30237,0 9.04558,10.05691 8.95466,10.30013 -0.12493,0.33416 -11.43353,10.30955 -11.62336,10.25304 -0.0886,-0.0264 -2.14244,-2.30379 -4.56407,-5.06091 z m -23.2177,0.58118 c -2.06938,-2.36471 -4.10857,-4.67121 -4.53153,-5.12555 l -0.76903,-0.82606 5.50922,-4.84052 c 3.03007,-2.66228 5.70707,-5.00817 5.94889,-5.21308 0.39493,-0.33465 0.89307,0.14244 4.89479,4.68795 2.45031,2.78328 4.45512,5.16274 4.45512,5.28769 0,0.24689 -11.25943,10.29331 -11.56102,10.31551 -0.10116,0.007 -1.87706,-1.92123 -3.94644,-4.28594 z m 37.33558,-11.47374 c -1.96453,-2.25162 -3.96,-4.55437 -4.43437,-5.11724 l -0.8625,-1.02339 5.36041,-4.6987 c 2.94823,-2.58428 5.61239,-4.92227 5.92036,-5.19554 0.55917,-0.49617 0.56625,-0.4897 5.126646,4.68608 2.51169,2.85062 4.4861,5.26355 4.38759,5.36207 -1.2777,1.2777 -11.466896,10.09035 -11.661676,10.08621 -0.14552,-0.003 -1.87193,-1.84787 -3.83646,-4.09949 z m -24.62317,-1.04703 -4.56285,-5.17857 0.63624,-0.62459 c 0.34993,-0.34352 3.00547,-2.70176 5.90119,-5.24053 l 5.26494,-4.61595 2.14339,2.421 c 5.14681,5.81341 6.77901,7.71634 6.80603,7.93491 0.0206,0.16669 -11.24003,10.34149 -11.58394,10.46694 -0.0232,0.008 -2.09542,-2.31499 -4.605,-5.16321 z m 13.42396,-11.74219 c -2.42616,-2.75799 -4.41121,-5.12443 -4.41121,-5.25876 0,-0.27889 11.2947,-10.23192 11.61118,-10.23192 0.30967,0 9.04502,9.99808 8.9595,10.25463 -0.0875,0.26243 -11.37337,10.23203 -11.5954,10.24301 -0.0841,0.004 -2.1379,-2.24897 -4.56407,-5.00696 z m 11.75185,-13.62593 c -1.90468,-2.17585 -3.46306,-4.02389 -3.46306,-4.10676 0,-0.19294 4.18956,-1.6319 4.90865,-1.68594 0.38842,-0.0292 1.44007,0.96927 3.69378,3.50694 l 3.150746,3.54774 -1.973976,1.79865 c -1.85353,1.68888 -2.00081,1.77109 -2.41353,1.34705 -0.24176,-0.24838 -1.99793,-2.23184 -3.90261,-4.40768 z m 43.276706,-14.02476 c -2.42354,-2.75894 -4.40644,-5.08878 -4.40644,-5.17742 0,-0.17303 11.28182,-10.13006 11.6167,-10.25259 0.11026,-0.0403 2.23708,2.24416 4.72627,5.07666 l 4.5258,5.14999 -5.87032,5.17163 c -3.22868,2.8444 -5.94125,5.14381 -6.02794,5.10981 -0.0867,-0.034 -2.14053,-2.31914 -4.56407,-5.07808 z m -18.0782,-5.6745 -2.95614,-3.37767 1.04788,-1.6573 c 0.57634,-0.91151 1.46161,-2.47884 1.96728,-3.48297 0.50567,-1.00412 1.0072,-1.81682 1.11451,-1.806 0.10731,0.0108 1.02855,0.98276 2.04719,2.15985 1.01865,1.17709 2.71502,3.12225 3.76971,4.32256 l 1.91763,2.1824 -2.84367,2.52498 c -1.56402,1.38874 -2.9032,2.52202 -2.97596,2.5184 -0.0728,-0.004 -1.46255,-1.52654 -3.08843,-3.38425 z m 30.87967,-6.77174 c -1.65517,-1.89177 -3.22835,-3.68629 -3.49596,-3.987822 -0.48238,-0.54352 -0.44609,-0.58369 4.21168,-4.66283 2.58404,-2.26303 5.25406,-4.60748 5.93338,-5.20989 l 1.23512,-1.09529 4.56119,5.18131 4.5612,5.18131 -0.63695,0.62529 c -0.35032,0.343912 -3.00119,2.698092 -5.89082,5.231512 l -5.25388,4.60622 -1.10779,-1.21511 c -0.60928,-0.66832 -2.46201,-2.76293 -4.11717,-4.6547 z m -23.31856,0.49286 -4.57383,-5.195672 0.77818,-0.66709 c 0.428,-0.3669 3.05718,-2.67228 5.84262,-5.12307 2.78544,-2.4508 5.16669,-4.44751 5.29167,-4.43714 0.19096,0.0159 5.21521,5.64842 8.23859,9.23611 l 0.86763,1.02956 -5.89089,5.176492 c -3.23999,2.84707 -5.91096,5.17649 -5.9355,5.17649 -0.0246,0 -2.10285,-2.33806 -4.61847,-5.19568 z m 37.14798,-11.779342 c -2.30016,-2.62031 -4.18212,-4.86386 -4.18212,-4.98569 0,-0.2123 11.09285,-10.102933 11.51241,-10.26472 0.11204,-0.04321 1.9612,1.921326 4.10924,4.365624 2.14804,2.444298 4.19499,4.758666 4.54878,5.143026 l 0.64326,0.69885 -5.88737,5.18352 c -4.44785,3.91609 -5.96987,5.11506 -6.22473,4.90354 -0.18554,-0.15398 -2.2193,-2.42385 -4.51947,-5.04415 z m -23.75805,0.006 c -3.1437,-3.57366 -4.38274,-5.16054 -4.21277,-5.39545 0.36455,-0.50383 11.51253,-10.242117 11.60537,-10.137843 4.20127,4.718564 8.87604,10.145713 8.87604,10.304583 0,0.24575 -11.35261,10.29137 -11.63033,10.29137 -0.10161,0 -2.18885,-2.2782 -4.63831,-5.06267 z m 12.97288,-12.235277 c -2.28286,-2.601626 -4.05279,-4.815661 -3.93318,-4.920079 0.11962,-0.104417 2.75083,-2.419725 5.84714,-5.145128 3.09631,-2.725403 5.7358,-4.91668 5.86553,-4.869504 0.31183,0.113394 9.0157,10.026447 8.99052,10.239528 -0.0107,0.09075 -2.65211,2.46139 -5.86976,5.268094 -5.57183,4.860226 -5.87166,5.080596 -6.29993,4.630206 -0.24731,-0.26009 -2.31746,-2.601492 -4.60032,-5.203117 z m -67.487866,34.700789 c 0.0622,-0.18548 0.36209,-4.38535 0.66644,-9.33306 0.30435,-4.94771 0.57842,-9.166712 0.60904,-9.375572 0.0306,-0.20886 2.8979,2.857 6.37174,6.813022 3.47383,3.95602 6.40203,7.19276 6.5071,7.19276 0.23546,0 1.06681,-0.89855 1.06681,-1.15303 0,-0.10194 -2.79651,-3.35831 -6.21447,-7.2364 -3.41797,-3.878082 -6.18617,-7.078782 -6.15157,-7.112652 0.0346,-0.0339 4.22336,0.28898 9.30835,0.71746 5.084986,0.42848 9.401006,0.71935 9.591146,0.64639 0.19014,-0.073 0.34571,-0.47115 0.34571,-0.88486 v -0.7522 l -11.142526,-0.91927 c -7.41202,-0.6115 -11.17207,-0.8275 -11.23076,-0.64517 -0.12713,0.39505 -1.48537,21.882652 -1.38819,21.961692 0.0447,0.0363 0.41131,0.1453 0.81469,0.24211 0.49005,0.11761 0.77093,0.0641 0.84649,-0.16122 z m -13.91282,-20.818322 c 0.26914,-0.17044 0.33034,-0.61059 0.22935,-1.64959 -0.61815,-6.35977 3.43996,-11.442019 10.25148,-12.838637 2.0638,-0.423155 4.33642,-0.311416 6.38257,0.313816 0.45555,0.139202 0.61396,0.02181 0.83807,-0.621083 l 0.27635,-0.792729 -2.16099,-0.584008 c -1.75837,-0.475197 -2.60467,-0.557974 -4.54225,-0.444282 -1.30969,0.07685 -2.93685,0.337059 -3.61591,0.578246 -2.8453,1.010582 -6.10273,4.039123 -7.69116,7.150717 -1.1481,2.24903 -1.51848,3.8747 -1.52208,6.68073 -0.003,2.36378 0.0172,2.44726 0.59217,2.44335 0.32742,-0.002 0.7605,-0.10867 0.9624,-0.23653 z m 3.6506,-0.73764 c 0.52562,-0.1022 0.5744,-0.26108 0.53733,-1.74991 -0.0874,-3.50971 1.38844,-6.04206 4.42381,-7.59062 1.71682,-0.875873 1.96604,-0.927561 4.60031,-0.954075 2.65808,-0.02675 2.79549,-0.05599 3.0118,-0.640729 0.29108,-0.786847 0.0281,-0.944665 -2.20071,-1.320599 -3.29888,-0.556429 -6.22255,0.449039 -8.58594,2.952759 -2.0647,2.187304 -2.85102,4.040094 -2.98159,7.025434 -0.11437,2.61492 -0.15369,2.53998 1.19499,2.27774 z m 3.45679,-0.90529 c 0.69619,-0.20102 0.861,-0.38536 0.86571,-0.96833 0.009,-1.11232 0.86944,-2.75343 1.93355,-3.68773 1.04476,-0.91731 2.8089,-1.52527 3.74453,-1.29045 0.45119,0.11325 0.65889,-0.0135 0.90406,-0.55156 0.42204,-0.92629 0.0754,-1.13414 -1.9001,-1.13937 -3.58723,-0.01 -6.17596,2.49652 -6.47902,6.27202 -0.0734,0.91379 -0.0873,1.65069 -0.031,1.63757 0.0563,-0.0131 0.48932,-0.13559 0.96226,-0.27215 z m 3.77921,-0.97936 c 0.85111,-0.37721 1.51565,-1.00434 1.94287,-1.83348 l 0.44307,-0.8599 h -1.03772 c -0.85665,0 -1.181,0.16319 -1.85887,0.93525 -1.26281,1.43826 -0.97824,2.41801 0.51065,1.75813 z"
       id="path1971"
       inkscape:connector-curvature="0" />
  </g>
</svg>
