<svg xmlns="http://www.w3.org/2000/svg" width="510.529" height="471.746" viewBox="0 0 135.077 124.816"><path style="fill:#102a43;fill-opacity:1;stroke-width:.26458332" d="M-110.381 169.488c11.034-9.72 20.34-17.957 20.681-18.307l.62-.635-4.331-4.895c-2.382-2.692-4.336-4.97-4.344-5.06-.007-.092.86-.947 1.925-1.9l1.937-1.735 2.516 2.864 2.515 2.863 2.07-1.823c1.138-1.003 2.121-1.824 2.184-1.824.064 0 .611.54 1.217 1.2l1.101 1.198 5.16-4.528c2.837-2.49 5.385-4.747 5.66-5.015.491-.476.478-.513-.593-1.764l-1.095-1.277 1.387-1.217c.763-.669 1.724-1.503 2.134-1.854l.747-.638-2.4-2.752c-1.32-1.513-2.4-2.845-2.4-2.96 0-.234 5.326-4.994 5.59-4.997.091 0 2.095 2.202 4.452 4.896l4.286 4.898.743-.598c.41-.33 9.803-8.571 20.876-18.315 19.935-17.542 20.128-17.721 19.647-18.256-.267-.297-5.276-5.994-11.13-12.66-5.855-6.664-10.739-12.082-10.853-12.038-.114.044-8.944 7.766-19.622 17.16-10.677 9.393-19.54 17.155-19.696 17.25-.184.11-.153-.448.09-1.601 1.003-4.757-.746-9.49-4.27-11.554-1.181-.693-3.99-1.453-5.393-1.459-.844-.004-.86.019-.86 1.187 0 .655.09 1.191.198 1.192.996.01 3.768.65 4.555 1.052 2.85 1.454 4.078 4.67 3.364 8.809-2.275 13.18-20.058 28.96-33.526 29.748-5.879.344-9.084-2.248-9.084-7.345v-2.058l-1.174-.093c-1.443-.115-1.498-.001-1.29 2.686.356 4.626 2.385 7.342 6.524 8.737 1.386.467 2.165.549 4.572.48l2.901-.081-1.286 1.14c-.708.626-9.769 8.598-20.136 17.714l-18.85 16.575.618.674c.34.37 5.345 6.061 11.123 12.646 5.778 6.585 10.59 11.966 10.692 11.957.102-.009 9.213-7.968 20.248-17.687zm-24.801 9.662c-2.414-2.75-4.381-5.071-4.371-5.16.018-.153 9.48-8.505 11.046-9.749l.745-.591 4.557 5.186 4.558 5.187-1.004.87c-.551.477-3.146 2.779-5.766 5.114-2.619 2.334-4.9 4.221-5.069 4.193-.168-.029-2.282-2.301-4.696-5.05zm13.507-11.657c-2.422-2.757-4.403-5.1-4.403-5.206 0-.23 11.376-10.286 11.636-10.286.302 0 9.045 10.057 8.954 10.3-.125.334-11.433 10.31-11.623 10.253-.089-.026-2.142-2.304-4.564-5.06zm-23.218.581c-2.07-2.364-4.108-4.67-4.531-5.125l-.77-.826 5.51-4.84c3.03-2.663 5.707-5.009 5.949-5.214.395-.334.893.143 4.895 4.688 2.45 2.783 4.455 5.163 4.455 5.288 0 .247-11.26 10.293-11.561 10.315-.102.007-1.877-1.92-3.947-4.286zm37.336-11.473a708.564 708.564 0 0 1-4.435-5.117l-.862-1.024 5.36-4.699c2.949-2.584 5.613-4.922 5.92-5.195.56-.496.567-.49 5.127 4.686 2.512 2.85 4.486 5.263 4.388 5.362-1.278 1.278-11.467 10.09-11.662 10.086-.145-.003-1.872-1.848-3.836-4.1zm-24.623-1.047-4.563-5.179.636-.624c.35-.344 3.005-2.702 5.901-5.241l5.265-4.616 2.143 2.421c5.147 5.813 6.78 7.716 6.807 7.935.02.167-11.24 10.341-11.584 10.467-.024.008-2.096-2.315-4.605-5.163zm13.424-11.742c-2.427-2.758-4.412-5.125-4.412-5.26 0-.278 11.295-10.231 11.612-10.231.31 0 9.045 9.998 8.959 10.254-.087.263-11.373 10.233-11.595 10.243-.084.004-2.138-2.248-4.564-5.006zm11.751-13.626c-1.904-2.176-3.463-4.024-3.463-4.107 0-.193 4.19-1.632 4.909-1.686.388-.03 1.44.97 3.694 3.507l3.15 3.548-1.973 1.798c-1.854 1.69-2.001 1.771-2.414 1.347-.242-.248-1.998-2.232-3.903-4.407zm43.277-14.025c-2.423-2.76-4.406-5.089-4.406-5.178 0-.173 11.281-10.13 11.616-10.252.11-.04 2.237 2.244 4.727 5.076l4.525 5.15-5.87 5.172c-3.229 2.844-5.941 5.144-6.028 5.11-.087-.034-2.14-2.32-4.564-5.078zm-18.078-5.675-2.956-3.377 1.048-1.658a49.826 49.826 0 0 0 1.967-3.483c.506-1.004 1.007-1.816 1.114-1.806.108.011 1.029.983 2.048 2.16a921.401 921.401 0 0 0 3.77 4.323l1.917 2.182-2.844 2.525c-1.564 1.389-2.903 2.522-2.976 2.519-.072-.004-1.462-1.527-3.088-3.385zm30.88-6.771a1737.427 1737.427 0 0 0-3.496-3.988c-.483-.544-.446-.584 4.211-4.663 2.584-2.263 5.254-4.608 5.934-5.21l1.235-1.095 4.561 5.181 4.561 5.181-.637.626c-.35.344-3.001 2.698-5.89 5.231l-5.254 4.606-1.108-1.215c-.61-.668-2.462-2.763-4.117-4.654zm-23.319.492-4.574-5.195.778-.667c.428-.367 3.058-2.673 5.843-5.123 2.785-2.451 5.167-4.448 5.292-4.438.19.016 5.215 5.649 8.238 9.237l.868 1.03-5.891 5.176c-3.24 2.847-5.911 5.176-5.936 5.176-.024 0-2.102-2.338-4.618-5.196zm37.148-11.779c-2.3-2.62-4.182-4.864-4.182-4.986 0-.212 11.093-10.103 11.512-10.264.112-.044 1.961 1.921 4.11 4.365a690.553 690.553 0 0 0 4.548 5.143l.644.7-5.888 5.183c-4.448 3.916-5.97 5.115-6.225 4.903-.185-.154-2.219-2.424-4.519-5.044zm-23.758.006c-3.144-3.574-4.383-5.16-4.213-5.395.365-.504 11.513-10.242 11.606-10.138 4.2 4.718 8.876 10.146 8.876 10.304 0 .246-11.353 10.292-11.63 10.292-.102 0-2.19-2.278-4.64-5.063zM-47.882 80.2c-2.283-2.602-4.053-4.816-3.933-4.92l5.847-5.145c3.096-2.726 5.736-4.917 5.865-4.87.312.114 9.016 10.027 8.99 10.24-.01.09-2.651 2.461-5.869 5.268-5.572 4.86-5.872 5.08-6.3 4.63-.247-.26-2.317-2.602-4.6-5.203zm-67.488 34.7c.062-.185.362-4.385.666-9.332.305-4.948.579-9.167.61-9.376.03-.209 2.897 2.857 6.371 6.813 3.474 3.956 6.402 7.193 6.507 7.193.236 0 1.067-.899 1.067-1.153 0-.102-2.796-3.359-6.214-7.237-3.418-3.878-6.187-7.078-6.152-7.112.035-.034 4.223.289 9.308.717 5.085.429 9.401.72 9.592.647.19-.073.345-.472.345-.885v-.753l-11.142-.919c-7.412-.611-11.172-.827-11.231-.645-.127.395-1.485 21.883-1.388 21.962.044.036.411.145.814.242.49.117.771.064.847-.161zm-13.913-20.818c.27-.17.33-.61.23-1.65-.619-6.36 3.44-11.441 10.251-12.838 2.064-.423 4.336-.311 6.383.314.455.14.613.022.838-.621l.276-.793-2.161-.584c-1.758-.475-2.605-.558-4.542-.444-1.31.077-2.937.337-3.616.578-2.845 1.01-6.103 4.04-7.691 7.15-1.148 2.25-1.519 3.875-1.522 6.681-.003 2.364.017 2.448.592 2.444.327-.002.76-.109.962-.237zm3.65-.737c.526-.103.575-.261.538-1.75-.087-3.51 1.389-6.042 4.424-7.59 1.717-.877 1.966-.928 4.6-.955 2.658-.027 2.796-.056 3.012-.64.291-.788.028-.945-2.2-1.321-3.3-.557-6.223.449-8.587 2.952-2.064 2.188-2.85 4.04-2.981 7.026-.115 2.615-.154 2.54 1.195 2.278zm3.458-.906c.696-.2.86-.385.865-.968.01-1.112.87-2.753 1.934-3.688 1.045-.917 2.809-1.525 3.744-1.29.452.113.66-.014.904-.552.422-.926.076-1.134-1.9-1.14-3.587-.01-6.176 2.497-6.479 6.273-.073.914-.087 1.65-.03 1.638.056-.014.489-.136.962-.273zm3.779-.979a3.955 3.955 0 0 0 1.943-1.833l.443-.86h-1.038c-.857 0-1.181.163-1.859.935-1.263 1.438-.978 2.418.51 1.758z" transform="translate(153.062 -62.359)"/></svg>