<?xml version="1.0" encoding="UTF-8" standalone="no"?>
<svg
   xmlns:dc="http://purl.org/dc/elements/1.1/"
   xmlns:cc="http://creativecommons.org/ns#"
   xmlns:rdf="http://www.w3.org/1999/02/22-rdf-syntax-ns#"
   xmlns:svg="http://www.w3.org/2000/svg"
   xmlns="http://www.w3.org/2000/svg"
   xmlns:sodipodi="http://sodipodi.sourceforge.net/DTD/sodipodi-0.dtd"
   xmlns:inkscape="http://www.inkscape.org/namespaces/inkscape"
   viewBox="0 0 19.99106 19.982571"
   class="icon-search"
   version="1.1"
   id="svg6"
   sodipodi:docname="search.svg"
   width="19.99106"
   height="19.982571"
   inkscape:version="0.92.3 (2405546, 2018-03-11)">
  <metadata
     id="metadata12">
    <rdf:RDF>
      <cc:Work
         rdf:about="">
        <dc:format>image/svg+xml</dc:format>
        <dc:type
           rdf:resource="http://purl.org/dc/dcmitype/StillImage" />
        <dc:title></dc:title>
      </cc:Work>
    </rdf:RDF>
  </metadata>
  <defs
     id="defs10" />
  <sodipodi:namedview
     pagecolor="#ffffff"
     bordercolor="#666666"
     borderopacity="1"
     objecttolerance="10"
     gridtolerance="10"
     guidetolerance="10"
     inkscape:pageopacity="0"
     inkscape:pageshadow="2"
     inkscape:window-width="1859"
     inkscape:window-height="1025"
     id="namedview8"
     showgrid="false"
     inkscape:zoom="27.812867"
     inkscape:cx="5.9146227"
     inkscape:cy="8.8359535"
     inkscape:window-x="61"
     inkscape:window-y="27"
     inkscape:window-maximized="1"
     inkscape:current-layer="svg6" />
  <path
     d="M 7.9831171,1.7201596e-5 A 8,8 0 1 0 12.906946,14.318376 l 1.099609,1.09961 a 1.5,1.5 0 0 0 0.439453,1.140625 l 3,3 a 1.5,1.5 0 0 0 2.121094,-2.121094 l -3,-3 c -0.31,-0.31 -0.740625,-0.459453 -1.140625,-0.439453 l -1.09961,-1.099609 -0.0098,0.0098 A 8,8 0 0 0 7.9831171,1.7201596e-5 Z M 8.0299931,1.4843922 a 6.5,6.5 0 0 1 6.4999999,6.5 6.5,6.5 0 0 1 -6.4999999,6.4999998 6.5,6.5 0 0 1 -6.5000005,-6.4999998 6.5,6.5 0 0 1 6.5000005,-6.5 z"
     id="path4"
     inkscape:connector-curvature="0"
     style="fill:#999999;fill-opacity:1" />
</svg>
