<?xml version="1.0" encoding="UTF-8" standalone="no"?>
<!-- Created with Inkscape (http://www.inkscape.org/) -->

<svg
   xmlns:dc="http://purl.org/dc/elements/1.1/"
   xmlns:cc="http://creativecommons.org/ns#"
   xmlns:rdf="http://www.w3.org/1999/02/22-rdf-syntax-ns#"
   xmlns:svg="http://www.w3.org/2000/svg"
   xmlns="http://www.w3.org/2000/svg"
   xmlns:sodipodi="http://sodipodi.sourceforge.net/DTD/sodipodi-0.dtd"
   xmlns:inkscape="http://www.inkscape.org/namespaces/inkscape"
   width="6.205133mm"
   height="5.835824mm"
   viewBox="0 0 6.205133 5.835824"
   version="1.1"
   id="svg1080"
   inkscape:version="0.92.3 (2405546, 2018-03-11)"
   sodipodi:docname="folder.svg">
  <defs
     id="defs1074" />
  <sodipodi:namedview
     id="base"
     pagecolor="#ffffff"
     bordercolor="#666666"
     borderopacity="1.0"
     inkscape:pageopacity="0.0"
     inkscape:pageshadow="2"
     inkscape:zoom="15.839192"
     inkscape:cx="18.207269"
     inkscape:cy="6.052338"
     inkscape:document-units="mm"
     inkscape:current-layer="layer1"
     showgrid="false"
     inkscape:window-width="1859"
     inkscape:window-height="1025"
     inkscape:window-x="61"
     inkscape:window-y="27"
     inkscape:window-maximized="1" />
  <metadata
     id="metadata1077">
    <rdf:RDF>
      <cc:Work
         rdf:about="">
        <dc:format>image/svg+xml</dc:format>
        <dc:type
           rdf:resource="http://purl.org/dc/dcmitype/StillImage" />
        <dc:title></dc:title>
      </cc:Work>
    </rdf:RDF>
  </metadata>
  <g
     inkscape:label="Layer 1"
     inkscape:groupmode="layer"
     id="layer1"
     transform="translate(-133.72478,-109.62974)">
    <path
       style="fill:#243b53;fill-opacity:1;stroke-width:0.0120642"
       d="m 134.26045,115.4583 c -0.24121,-0.0376 -0.45413,-0.25526 -0.50966,-0.52088 -0.0252,-0.12067 -0.0371,-4.63184 -0.0125,-4.75568 0.0383,-0.19318 0.16276,-0.38403 0.3062,-0.4697 0.13918,-0.0831 0.11192,-0.081 1.02288,-0.0811 l 0.82916,-1.2e-4 0.30959,0.36643 0.74678,0.32969 0.98201,0.0368 c 0.89858,7e-5 1.44572,0.005 1.49149,0.0133 0.17306,0.0316 0.35316,0.18586 0.43508,0.37266 0.0747,0.17036 0.0703,0.0287 0.0669,2.1724 -0.003,2.14489 0.001,2.00897 -0.0721,2.17239 -0.0799,0.17853 -0.26532,0.33161 -0.43553,0.35964 -0.0741,0.0122 -5.08302,0.0163 -5.1604,0.004 z"
       id="path883-6"
       inkscape:connector-curvature="0"
       sodipodi:nodetypes="cccccccccccccccc" />
    <path
       style="fill:#102a43;fill-opacity:1;stroke-width:0.01308673"
       d="m 133.73348,110.54454 c 0,-0.34064 0.009,-0.40215 0.0822,-0.53975 0.0559,-0.10562 0.19107,-0.23943 0.29077,-0.28785 0.17173,-0.0834 0.10545,-0.0787 1.17717,-0.0832 l 0.98086,-0.004 0.34417,0.34399 c 0.18929,0.18919 0.34416,0.34823 0.34416,0.35342 0,0.005 -0.59331,0.0114 -1.31848,0.0137 -1.14797,0.004 -1.32695,0.007 -1.38392,0.0247 -0.20702,0.0644 -0.37524,0.20232 -0.46462,0.3809 l -0.0523,0.10451 z"
       id="path881"
       inkscape:connector-curvature="0" />
  </g>
</svg>
