<svg xmlns="http://www.w3.org/2000/svg" width="223.177" height="185.382" viewBox="0 0 59.049 49.049"><path style="fill:none;fill-opacity:1;fill-rule:evenodd;stroke:none;stroke-width:.95106727;stroke-miterlimit:4;stroke-dasharray:none;stroke-opacity:1" d="M-8.358 83.487h59.049v49.049H-8.358z" transform="translate(8.358 -83.487)"/><g style="fill:#102a43;fill-opacity:1"><path d="M256 512C114.836 512 0 397.164 0 256S114.836 0 256 0s256 114.836 256 256-114.836 256-256 256Zm0-480C132.48 32 32 132.48 32 256s100.48 224 224 224 224-100.48 224-224S379.52 32 256 32Zm0 0" style="fill:#102a43;fill-opacity:1" transform="translate(19.546 9.49) scale(.03906)"/><text xml:space="preserve" style="font-style:normal;font-variant:normal;font-weight:400;font-stretch:normal;font-size:270.93331909px;line-height:1.25;font-family:Roboto;-inkscape-font-specification:Roboto;letter-spacing:0;word-spacing:0;fill:#102a43;fill-opacity:1;stroke:none;stroke-width:6.77333307" x="153.117" y="406.769" transform="translate(19.546 9.49) scale(.03906)"><tspan x="153.117" y="406.769" style="font-size:433.49334717px;stroke-width:6.77333307;fill:#102a43;fill-opacity:1">?</tspan></text></g><text xml:space="preserve" style="font-style:normal;font-variant:normal;font-weight:400;font-stretch:normal;font-size:10.58333302px;line-height:1.25;font-family:Roboto;-inkscape-font-specification:Roboto;letter-spacing:0;word-spacing:0;fill:#102a43;fill-opacity:1;stroke:none;stroke-width:.26458332" x="6.989" y="126.909" transform="translate(8.358 -83.487)"><tspan x="6.989" y="126.909" style="stroke-width:.26458332;fill:#102a43;fill-opacity:1">About </tspan></text></svg>