<svg xmlns="http://www.w3.org/2000/svg" width="223.177" height="185.382" viewBox="0 0 59.049 49.049"><path style="fill:none;fill-opacity:1;fill-rule:evenodd;stroke:none;stroke-width:.95106727;stroke-miterlimit:4;stroke-dasharray:none;stroke-opacity:1" d="M-95.928 136.503h59.049v49.049h-59.049z" transform="translate(95.928 -136.503)"/><text y="179.924" x="-74.231" style="font-style:normal;font-variant:normal;font-weight:400;font-stretch:normal;font-size:10.58333302px;line-height:1.25;font-family:Roboto;-inkscape-font-specification:Roboto;letter-spacing:0;word-spacing:0;fill:#102a43;fill-opacity:1;stroke:none;stroke-width:.26458332" xml:space="preserve" transform="translate(95.928 -136.503)"><tspan style="stroke-width:.26458332;fill:#102a43;fill-opacity:1" y="179.924" x="-74.231">API</tspan></text><g style="fill:#102a43;fill-opacity:1"><path style="fill:#102a43;fill-opacity:1" d="M484.333 256c0-19.73-2.515-39.248-7.484-58.162l28.9-21.261-56.093-97.155-32.913 14.42c-28.138-27.938-62.594-47.847-100.689-58.18L312.093 0H199.907l-3.962 35.662c-38.096 10.333-72.551 30.242-100.689 58.18l-32.912-14.42-56.093 97.155 28.9 21.261c-4.97 18.914-7.484 38.432-7.484 58.162 0 19.73 2.515 39.248 7.484 58.162l-28.9 21.26 56.093 97.155 32.912-14.42c28.139 27.939 62.594 47.848 100.689 58.18L199.907 512h112.186l3.962-35.663c38.096-10.332 72.551-30.242 100.689-58.18l32.912 14.42 56.093-97.155-28.9-21.26c4.969-18.914 7.484-38.432 7.484-58.162zM299.061 449.633l-10.481 2.32L285.241 482h-58.482l-3.339-30.047-10.481-2.32c-39.739-8.795-75.382-29.389-103.074-59.555l-7.25-7.898-27.716 12.143-29.241-50.647 24.325-17.894-3.216-10.228c-6.038-19.207-9.1-39.244-9.1-59.554 0-20.311 3.062-40.348 9.1-59.554l3.216-10.228-24.325-17.894 29.241-50.647 27.716 12.143 7.25-7.898c27.692-30.166 63.335-50.76 103.074-59.555l10.481-2.32L226.759 30h58.482l3.339 30.047 10.481 2.32c39.739 8.796 75.382 29.39 103.074 59.555l7.25 7.898 27.716-12.143 29.241 50.647-24.325 17.894 3.216 10.228c6.038 19.207 9.1 39.244 9.1 59.554 0 20.31-3.061 40.347-9.1 59.554l-3.216 10.228 24.325 17.894-29.241 50.647-27.716-12.143-7.25 7.898c-27.692 30.166-63.334 50.76-103.074 59.555z" transform="matrix(.04004 0 0 .03906 19.221 9.455)"/><path style="fill:#102a43;fill-opacity:1" d="m196.448 221.66-21.433-20.99-54.863 56.019 56.02 54.863 20.99-21.434-34.586-33.872zm119.104 0 33.872 34.586-34.586 33.872 20.99 21.434 56.02-54.863-54.863-56.019z" transform="matrix(.04004 0 0 .03906 19.221 9.455)"/><path style="fill:#102a43;fill-opacity:1" d="M152.445 240.999h207.109V271H152.445Z" transform="matrix(.00825 -.03824 .0392 .00805 17.33 27.18)"/></g></svg>