<svg xmlns="http://www.w3.org/2000/svg" width="20mm" height="20mm" viewBox="0 0 20 20"><g style="fill:#102a43;fill-opacity:1"><g style="fill:#102a43;fill-opacity:1"><path d="M256 0C136.384 0 42.667 42.176 42.667 96S136.384 192 256 192s213.333-42.176 213.333-96S375.616 0 256 0Zm0 170.667c-113.152 0-192-39.36-192-74.667s78.848-74.667 192-74.667S448 60.693 448 96s-78.848 74.667-192 74.667zM458.667 192c-5.888 0-10.667 4.779-10.667 10.667 0 35.307-78.848 74.667-192 74.667s-192-39.36-192-74.667C64 196.779 59.221 192 53.333 192s-10.667 4.779-10.667 10.667c0 53.824 93.717 96 213.333 96s213.333-42.176 213.333-96c.001-5.888-4.777-10.667-10.665-10.667Z" style="fill:#102a43;fill-opacity:1" transform="matrix(.04687 0 0 .03906 -2 0)"/><path d="M458.667 298.667c-5.888 0-10.667 4.779-10.667 10.667C448 344.64 369.152 384 256 384S64 344.64 64 309.333c0-5.888-4.779-10.667-10.667-10.667s-10.667 4.779-10.667 10.667c0 53.824 93.717 96 213.333 96s213.333-42.176 213.333-96c.001-5.888-4.777-10.666-10.665-10.666z" style="fill:#102a43;fill-opacity:1" transform="matrix(.04687 0 0 .03906 -2 0)"/><path d="M458.667 85.333C452.779 85.333 448 90.112 448 96v320c0 35.307-78.848 74.667-192 74.667S64 451.307 64 416V96c0-5.888-4.779-10.667-10.667-10.667S42.667 90.112 42.667 96v320c0 53.824 93.717 96 213.333 96s213.333-42.176 213.333-96V96c0-5.888-4.778-10.667-10.666-10.667z" style="fill:#102a43;fill-opacity:1" transform="matrix(.04687 0 0 .03906 -2 0)"/></g></g></svg>