<svg xmlns="http://www.w3.org/2000/svg" width="223.177" height="185.382" viewBox="0 0 59.049 49.049"><path style="fill:none;fill-opacity:1;fill-rule:evenodd;stroke:none;stroke-width:.95106727;stroke-miterlimit:4;stroke-dasharray:none;stroke-opacity:1" d="M-210.979-82.664h59.049v49.049h-59.049z" transform="translate(210.98 82.664)"/><text y="-39.243" x="-207.888" style="font-style:normal;font-variant:normal;font-weight:400;font-stretch:normal;font-size:10.58333302px;line-height:1.25;font-family:Roboto;-inkscape-font-specification:Roboto;letter-spacing:0;word-spacing:0;fill:#102a43;fill-opacity:1;stroke:none;stroke-width:.26458332" xml:space="preserve" transform="translate(210.98 82.664)"><tspan style="stroke-width:.26458332;fill:#102a43;fill-opacity:1" y="-39.243" x="-207.888">Data Portal</tspan></text><g style="fill:#102a43;fill-opacity:1"><g style="fill:#102a43;fill-opacity:1"><path d="M256 0C136.384 0 42.667 42.176 42.667 96S136.384 192 256 192s213.333-42.176 213.333-96S375.616 0 256 0Zm0 170.667c-113.152 0-192-39.36-192-74.667s78.848-74.667 192-74.667S448 60.693 448 96s-78.848 74.667-192 74.667zM458.667 192c-5.888 0-10.667 4.779-10.667 10.667 0 35.307-78.848 74.667-192 74.667s-192-39.36-192-74.667C64 196.779 59.221 192 53.333 192s-10.667 4.779-10.667 10.667c0 53.824 93.717 96 213.333 96s213.333-42.176 213.333-96c.001-5.888-4.777-10.667-10.665-10.667Z" style="fill:#102a43;fill-opacity:1" transform="matrix(.04687 0 0 .03906 17.538 9.524)"/><path d="M458.667 298.667c-5.888 0-10.667 4.779-10.667 10.667C448 344.64 369.152 384 256 384S64 344.64 64 309.333c0-5.888-4.779-10.667-10.667-10.667s-10.667 4.779-10.667 10.667c0 53.824 93.717 96 213.333 96s213.333-42.176 213.333-96c.001-5.888-4.777-10.666-10.665-10.666z" style="fill:#102a43;fill-opacity:1" transform="matrix(.04687 0 0 .03906 17.538 9.524)"/><path d="M458.667 85.333C452.779 85.333 448 90.112 448 96v320c0 35.307-78.848 74.667-192 74.667S64 451.307 64 416V96c0-5.888-4.779-10.667-10.667-10.667S42.667 90.112 42.667 96v320c0 53.824 93.717 96 213.333 96s213.333-42.176 213.333-96V96c0-5.888-4.778-10.667-10.666-10.667z" style="fill:#102a43;fill-opacity:1" transform="matrix(.04687 0 0 .03906 17.538 9.524)"/></g><path style="opacity:1;fill:#102a43;fill-opacity:1;fill-rule:evenodd;stroke:#102a43;stroke-width:1.02425196;stroke-miterlimit:4;stroke-dasharray:none;stroke-opacity:1" d="M105.226 76.673c-12.135-.872-22.215-3.896-26.019-7.807-1.454-1.495-1.473-1.584-1.477-7.218l-.004-4.943 1.507.946c4.977 3.124 12.752 5.268 23.136 6.38 3.552.38 15.558.326 19.286-.088 9.99-1.107 17.79-3.33 22.589-6.435l1.25-.81.051 4.68c.062 5.637.028 5.811-1.441 7.382-3.433 3.67-12.092 6.534-23.164 7.663-3.28.334-12.5.481-15.714.25zm0 31.504c-9.284-.8-16.003-2.266-21.156-4.614-1.8-.82-4.14-2.377-4.996-3.325-1.309-1.449-1.34-1.613-1.344-7.183l-.004-4.964.58.431c.94.699 2.97 1.815 4.58 2.519 13.629 5.956 38.376 6.528 54.244 1.254 2.187-.727 6.108-2.566 7.516-3.524l.937-.638-.004 4.944c-.004 4.45-.037 5.017-.34 5.682-1.562 3.44-8.915 6.768-18.485 8.366-5.214.87-7.147 1.017-14.117 1.07-3.634.029-6.969.02-7.411-.018z" transform="scale(.26458)"/></g></svg>