<?xml version="1.0" encoding="UTF-8" standalone="no"?>
<!-- Created with Inkscape (http://www.inkscape.org/) -->

<svg
   xmlns:dc="http://purl.org/dc/elements/1.1/"
   xmlns:cc="http://creativecommons.org/ns#"
   xmlns:rdf="http://www.w3.org/1999/02/22-rdf-syntax-ns#"
   xmlns:svg="http://www.w3.org/2000/svg"
   xmlns="http://www.w3.org/2000/svg"
   xmlns:sodipodi="http://sodipodi.sourceforge.net/DTD/sodipodi-0.dtd"
   xmlns:inkscape="http://www.inkscape.org/namespaces/inkscape"
   width="59.048931mm"
   height="49.048931mm"
   viewBox="0 0 59.048931 49.048931"
   version="1.1"
   id="svg9056"
   inkscape:version="0.92.3 (2405546, 2018-03-11)"
   sodipodi:docname="home.svg">
  <defs
     id="defs9050" />
  <sodipodi:namedview
     id="base"
     pagecolor="#ffffff"
     bordercolor="#666666"
     borderopacity="1.0"
     inkscape:pageopacity="0.0"
     inkscape:pageshadow="2"
     inkscape:zoom="0.35"
     inkscape:cx="1278.7314"
     inkscape:cy="-13.023392"
     inkscape:document-units="mm"
     inkscape:current-layer="layer1"
     showgrid="false"
     inkscape:window-width="1859"
     inkscape:window-height="1025"
     inkscape:window-x="61"
     inkscape:window-y="27"
     inkscape:window-maximized="1" />
  <metadata
     id="metadata9053">
    <rdf:RDF>
      <cc:Work
         rdf:about="">
        <dc:format>image/svg+xml</dc:format>
        <dc:type
           rdf:resource="http://purl.org/dc/dcmitype/StillImage" />
        <dc:title></dc:title>
      </cc:Work>
    </rdf:RDF>
  </metadata>
  <g
     inkscape:label="Layer 1"
     inkscape:groupmode="layer"
     id="layer1"
     transform="translate(364.41138,-96.33863)">
    <g
       id="g7830"
       transform="translate(-194.96797,-40.141076)">
      <rect
         y="136.47971"
         x="-169.44341"
         height="49.048931"
         width="59.048931"
         id="rect2415-7-1-5"
         style="fill:#ffffff;fill-opacity:1;fill-rule:evenodd;stroke:none;stroke-width:0.95106727;stroke-miterlimit:4;stroke-dasharray:none;stroke-opacity:1" />
      <text
         id="text847-2-5"
         y="179.9008"
         x="-154.42604"
         style="font-style:normal;font-variant:normal;font-weight:normal;font-stretch:normal;font-size:10.58333302px;line-height:1.25;font-family:Roboto;-inkscape-font-specification:Roboto;letter-spacing:0px;word-spacing:0px;fill:#000000;fill-opacity:1;stroke:none;stroke-width:0.26458332"
         xml:space="preserve"><tspan
           style="stroke-width:0.26458332"
           y="179.9008"
           x="-154.42604"
           id="tspan845-7-4"
           sodipodi:role="line">Home</tspan></text>
      <g
         transform="matrix(0.03906249,0,0,0.04109734,-149.95401,145.42907)"
         id="g6506"
         style="fill:#000000">
        <path
           inkscape:connector-curvature="0"
           d="M 503.401,228.884 460.148,189.473 V 58.79 c 0,-8.315 -6.741,-15.057 -15.057,-15.057 H 340.976 c -8.315,0 -15.057,6.741 -15.057,15.057 v 8.374 L 273.683,19.567 C 263.6,10.378 248.395,10.379 238.316,19.566 L 8.598,228.885 c -8.076,7.36 -10.745,18.7 -6.799,28.889 3.947,10.189 13.557,16.772 24.484,16.772 h 36.689 v 209.721 c 0,8.315 6.741,15.057 15.057,15.057 h 125.913 c 8.315,0 15.057,-6.741 15.057,-15.057 V 356.931 H 293 v 127.337 c 0,8.315 6.741,15.057 15.057,15.057 h 125.908 c 8.315,0 15.057,-6.741 15.056,-15.057 V 274.547 h 36.697 c 10.926,0 20.537,-6.584 24.484,-16.772 3.945,-10.19 1.277,-21.53 -6.801,-28.891 z m -69.436,15.549 c -8.315,0 -15.057,6.741 -15.057,15.057 V 469.211 H 323.115 V 341.874 c 0,-8.315 -6.742,-15.057 -15.057,-15.057 H 203.942 c -8.315,0 -15.057,6.741 -15.057,15.057 v 127.337 h -95.8 V 259.49 c 0,-8.315 -6.741,-15.057 -15.057,-15.057 H 36.245 l 219.756,-200.24 74.836,68.191 c 4.408,4.016 10.771,5.051 16.224,2.644 5.454,-2.41 8.973,-7.812 8.973,-13.774 V 73.847 h 74.002 v 122.276 c 0,4.237 1.784,8.276 4.916,11.13 l 40.803,37.18 z"
           id="path6504"
           style="fill:#000000" />
      </g>
    </g>
  </g>
</svg>
