<svg xmlns="http://www.w3.org/2000/svg" width="223.177" height="185.382" viewBox="0 0 59.049 49.049"><path style="fill:none;fill-opacity:1;fill-rule:evenodd;stroke:none;stroke-width:.95106727;stroke-miterlimit:4;stroke-dasharray:none;stroke-opacity:1" d="M-169.443 136.48h59.049v49.049h-59.049z" transform="translate(169.443 -136.48)"/><text y="179.901" x="-154.426" style="font-style:normal;font-variant:normal;font-weight:400;font-stretch:normal;font-size:10.58333302px;line-height:1.25;font-family:Roboto;-inkscape-font-specification:Roboto;letter-spacing:0;word-spacing:0;fill:#102a43;fill-opacity:1;stroke:none;stroke-width:.26458332" xml:space="preserve" transform="translate(169.443 -136.48)"><tspan style="stroke-width:.26458332;fill:#102a43;fill-opacity:1" y="179.901" x="-154.426">Home</tspan></text><path d="m503.401 228.884-43.253-39.411V58.79c0-8.315-6.741-15.057-15.057-15.057H340.976c-8.315 0-15.057 6.741-15.057 15.057v8.374l-52.236-47.597c-10.083-9.189-25.288-9.188-35.367-.001L8.598 228.885c-8.076 7.36-10.745 18.7-6.799 28.889 3.947 10.189 13.557 16.772 24.484 16.772h36.689v209.721c0 8.315 6.741 15.057 15.057 15.057h125.913c8.315 0 15.057-6.741 15.057-15.057V356.931H293v127.337c0 8.315 6.741 15.057 15.057 15.057h125.908c8.315 0 15.057-6.741 15.056-15.057V274.547h36.697c10.926 0 20.537-6.584 24.484-16.772 3.945-10.19 1.277-21.53-6.801-28.891z" style="fill:#102a43;fill-opacity:1" transform="matrix(.03906 0 0 .0411 19.49 8.95)"/></svg>