<svg xmlns="http://www.w3.org/2000/svg" width="1015.758" height="165.196" viewBox="0 0 268.753 43.708"><path style="fill:#000;stroke-width:.26458332" d="M-354.626 8.548c-3.049-.678-4.845-1.855-6.496-4.255-3.13-4.549-3.065-14.572.126-19.54 2.666-4.151 6.463-5.914 12.138-5.633 1.484.073 2.967.22 3.294.325l.595.191v-6.879l-1.984-.185-1.984-.186v-6.51l.86-.155c.472-.085 3.509-.236 6.746-.335l5.887-.18V.692l1.852.331 1.852.331v6.53h-11.654l-.26-.683c-.143-.376-.348-.643-.456-.594-.109.05-.846.43-1.64.847-1.436.755-4.604 1.48-6.362 1.458-.51-.006-1.64-.17-2.514-.365zm7.984-8.43c1.248-1.357 1.472-2.445 1.604-7.779l.12-4.83-1.15-.522c-1.543-.7-3.265-.678-4.73.062-.947.478-1.336.905-1.974 2.164-.759 1.496-.796 1.722-.796 4.895 0 4.784.889 6.747 3.236 7.15 1.526.263 2.75-.114 3.69-1.14zm25.221 8.542c-2.3-.396-4.64-1.675-5.696-3.114-2.628-3.581-2.18-9.5.93-12.31 2.29-2.069 4.835-2.8 10.587-3.04l4.101-.17-.065-1.059c-.116-1.885-1.438-3.024-3.769-3.246-.656-.062-1.61-.005-2.119.128-.833.216-.963.379-1.295 1.613l-.369 1.373h-7.332v-8.446l.992-.266c2.235-.599 6.618-1.078 9.865-1.078 7.082 0 11.107 1.636 12.871 5.229l.746 1.518.088 7.452c.099 8.48-.211 7.544 2.624 7.913l1.39.182v6.546h-12.436V6.96c0-.51-.048-.926-.106-.926-.058 0-.722.415-1.476.922-.753.507-1.947 1.093-2.653 1.303-1.725.512-5.091.709-6.878.402zm7.786-7.46c1.394-.793 2.268-2.465 2.268-4.337V-4.55h-1.706c-2.665 0-4.367.464-5.367 1.464-.752.752-.864 1.04-.864 2.225 0 1.093.128 1.49.65 2.011.897.898 3.484.923 5.019.05zm27.668 7.493c-2.93-.548-5.106-2.233-5.779-4.478-.583-1.945-.82-6.207-.652-11.742l.166-5.49h-4.98l.265-3.638.265-3.638 2.291-.076 2.292-.076.188-3.388.187-3.389 4.003-.87c2.202-.479 4.152-.927 4.334-.996.255-.096.332.745.334 3.673.003 2.09.076 4.067.164 4.394.156.583.24.596 3.994.596h3.835l-.191 3.505c-.106 1.929-.245 3.595-.31 3.705-.065.109-1.713.198-3.662.198h-3.545l-.169.9c-.281 1.501.02 11.051.377 11.96.48 1.224 1.357 1.56 4.045 1.553l2.338-.006V8.09l-2.05.294c-2.993.429-6.376.565-7.74.31zm21.042-.032c-2.11-.352-3.609-1.047-4.932-2.285-1.83-1.712-2.45-3.33-2.465-6.44-.012-2.332.053-2.66.856-4.29.956-1.94 2.105-3.05 4.153-4.008 2.027-.949 3.73-1.25 8.13-1.439l4.04-.173-.032-1.012c-.04-1.296-.472-2.089-1.452-2.668-1.017-.6-3.353-.833-4.514-.45-.8.264-.958.468-1.253 1.62l-.338 1.32h-7.36V-19.57l1.217-.306c2.55-.642 6.448-1.076 9.674-1.078 7.018-.003 11 1.585 12.873 5.134l.71 1.347.085 7.59.084 7.59 1.966.318 1.966.317v6.542H-253.952v-.958c0-.947-.007-.953-.595-.52-2.73 2.007-6.698 2.87-10.378 2.254zm7.375-7.23c1.598-.668 2.777-2.897 2.798-5.29l.006-.762-2.58.126c-1.943.095-2.856.268-3.699.7-1.958 1.003-2.537 3.237-1.238 4.78.623.741.826.815 2.257.815.865 0 1.97-.166 2.455-.37zm46.196 7.229c-3.232-.566-5.86-2.64-6.789-5.36-.304-.89-.46-2.109-.448-3.485.043-4.796 2.501-7.735 7.551-9.03.897-.229 3.425-.494 5.619-.588l3.989-.171.081-.843c.191-1.972-1.31-3.25-4.038-3.439-2.116-.146-2.769.224-3.236 1.834l-.364 1.257h-7.392v-8.404l1.217-.306c4.287-1.08 11.334-1.403 15.056-.69 4.05.774 6.795 2.667 7.817 5.39.505 1.345.577 2.222.712 8.688.169 8.138-.122 7.256 2.516 7.636l1.257.182v6.554h-12.147l-.173-.92-.172-.919-1.118.77c-2.352 1.618-6.66 2.417-9.938 1.844zm7.62-7.232c1.598-.831 2.373-2.143 2.61-4.416l.172-1.637-2.621.128c-1.958.096-2.897.27-3.71.686-2.012 1.03-2.553 3.685-1.023 5.015.547.475 1.006.596 2.271.596.873 0 1.908-.168 2.3-.372zm65.934 7.355c-2.75-.33-4.474-.738-5.924-1.403-4.478-2.054-6.496-5.943-6.507-12.537-.01-6.478 1.913-10.889 5.97-13.693 3.745-2.587 11.571-2.844 15.645-.513 3.98 2.277 5.619 5.993 5.628 12.762l.004 3.374h-17.727v.605c0 1.209 1.133 2.934 2.381 3.627 1.058.587 1.563.67 4.533.753 3.183.089 3.901.005 8.101-.944.594-.134.596-.126.596 3.326V7.6l-.993.263c-2.566.68-9.298 1.21-11.707.92zm6.51-18.914c-.295-1.838-1.12-3.132-2.358-3.694-2.485-1.128-5.369-.294-6.457 1.866-.33.655-.675 1.578-.768 2.05l-.168.86h9.923zm19.906 18.77c-1.552-.126-3.933-.438-5.292-.693l-2.47-.465-.073-4.693-.072-4.693h3.692c4.085 0 3.775-.142 4.139 1.91.257 1.454.647 1.64 3.695 1.752 2.484.092 2.763.053 3.274-.458 1.274-1.274.573-1.932-3.963-3.725-4.742-1.874-5.903-2.483-7.392-3.876-1.913-1.789-2.459-3.302-2.322-6.434.122-2.79.596-4.064 2.056-5.524 1.047-1.047 3.177-2.042 5.15-2.405 3.306-.61 9.9-.245 13.577.75l1.125.304v8.461l-3.617-.074-3.616-.073-.38-1.142c-.432-1.296-1.026-1.636-2.856-1.636-.82 0-1.332.159-1.702.529-1.215 1.215-.623 1.7 4.806 3.942 2.377.981 4.798 2.09 5.38 2.463 2.584 1.657 3.557 3.519 3.568 6.824.01 2.983-.535 4.499-2.245 6.25-1.592 1.631-3.222 2.3-6.615 2.717-2.65.325-3.748.324-7.847-.01zm-119.62-.248c-2.519-.594-4.088-2-4.903-4.397-.375-1.1-.444-3.25-.521-16.254l-.09-14.985-1.97-.185-1.97-.184v-6.51l.86-.157c.473-.087 3.443-.238 6.6-.335l5.74-.176.08 16.907c.073 15.071.129 17.011.52 17.873.528 1.164 1.072 1.366 3.596 1.34l1.918-.02v3.27c0 3.71.238 3.367-2.645 3.824-2.044.324-5.817.318-7.214-.011zm45.314-3.783V1.33l1.257-.182c.691-.1 1.525-.245 1.852-.323l.596-.142V-27.251l-1.852-.186-1.853-.186v-6.5l.86-.158c.473-.087 3.449-.238 6.612-.335l5.752-.177.07 12.632.068 12.632 2.844-2.176c1.564-1.197 2.844-2.28 2.844-2.406 0-.126-.347-.229-.772-.229-1.576 0-1.609-.065-1.609-3.203v-2.882h16.14v3.29c0 3.663.159 3.38-2.1 3.733-.856.134-1.949.723-4.035 2.174-1.574 1.095-2.861 2.088-2.861 2.205 0 .362 5.049 9.35 5.36 9.542.16.1 1.048.323 1.972.497l1.68.317-.075 3.21-.074 3.21-5.034.071-5.034.072-3.011-6.085-3.012-6.085-1.612 1.151c-1.547 1.106-1.614 1.202-1.693 2.416-.095 1.46.049 1.604 1.855 1.853l1.27.174V7.885h-16.405z" transform="translate(363.43 34.795)"/></svg>