<?xml version="1.0" encoding="UTF-8" standalone="no"?>
<!-- Created with Inkscape (http://www.inkscape.org/) -->

<svg
   xmlns:dc="http://purl.org/dc/elements/1.1/"
   xmlns:cc="http://creativecommons.org/ns#"
   xmlns:rdf="http://www.w3.org/1999/02/22-rdf-syntax-ns#"
   xmlns:svg="http://www.w3.org/2000/svg"
   xmlns="http://www.w3.org/2000/svg"
   xmlns:sodipodi="http://sodipodi.sourceforge.net/DTD/sodipodi-0.dtd"
   xmlns:inkscape="http://www.inkscape.org/namespaces/inkscape"
   width="59.048931mm"
   height="49.048931mm"
   viewBox="0 0 59.048931 49.048931"
   version="1.1"
   id="svg3078"
   inkscape:version="0.92.3 (2405546, 2018-03-11)"
   sodipodi:docname="map.svg">
  <defs
     id="defs3072" />
  <sodipodi:namedview
     id="base"
     pagecolor="#ffffff"
     bordercolor="#666666"
     borderopacity="1.0"
     inkscape:pageopacity="0.0"
     inkscape:pageshadow="2"
     inkscape:zoom="1.979899"
     inkscape:cx="195.37734"
     inkscape:cy="75.080892"
     inkscape:document-units="mm"
     inkscape:current-layer="g3057"
     showgrid="false"
     inkscape:window-width="1859"
     inkscape:window-height="1025"
     inkscape:window-x="61"
     inkscape:window-y="27"
     inkscape:window-maximized="1" />
  <metadata
     id="metadata3075">
    <rdf:RDF>
      <cc:Work
         rdf:about="">
        <dc:format>image/svg+xml</dc:format>
        <dc:type
           rdf:resource="http://purl.org/dc/dcmitype/StillImage" />
        <dc:title />
      </cc:Work>
    </rdf:RDF>
  </metadata>
  <g
     inkscape:label="Layer 1"
     inkscape:groupmode="layer"
     id="layer1"
     transform="translate(-84.624348,-30.570772)">
    <g
       id="g3057"
       transform="translate(219.08495,39.554079)">
      <path
         style="fill:#102a43;fill-opacity:1;stroke-width:0.0771332"
         d="M 112.20508 36.203125 C 111.65849 36.191468 111.10733 36.199447 110.55469 36.228516 C 106.07342 36.464228 101.87967 38.057944 98.40625 40.841797 C 97.493192 41.573593 95.986852 43.071417 95.292969 43.9375 C 93.934153 45.633578 92.558991 48.064495 91.861328 50.003906 C 90.765983 53.048418 90.36814 56.62217 90.806641 59.464844 C 91.470666 63.76959 93.532586 68.474788 97.132812 73.902344 C 100.6212 79.161235 104.53227 83.737566 109.66797 88.564453 C 110.49523 89.341966 111.19229 89.980324 111.21875 89.982422 C 111.29408 89.988685 115.91528 85.582897 117.82617 83.683594 C 119.70962 81.811518 120.32852 81.124843 122.70898 78.261719 C 125.90136 74.422021 127.72523 71.864608 129.13477 69.25 C 131.4701 64.918159 132.83306 60.104313 132.83008 56.201172 C 132.82796 53.430155 132.26775 50.844985 131.12305 48.333984 C 127.81176 41.070471 120.40391 36.377977 112.20508 36.203125 z M 111.79297 47.787109 A 8.503937 8.503937 0 0 1 120.29688 56.291016 A 8.503937 8.503937 0 0 1 111.79297 64.794922 A 8.503937 8.503937 0 0 1 103.28906 56.291016 A 8.503937 8.503937 0 0 1 111.79297 47.787109 z "
         transform="matrix(0.26458333,0,0,0.26458333,-134.4606,-8.983307)"
         id="path3051-3" />
      <rect
         style="fill:none;fill-opacity:1;fill-rule:evenodd;stroke:none;stroke-width:0.95106727;stroke-miterlimit:4;stroke-dasharray:none;stroke-opacity:1"
         id="rect2415-7-2-3"
         width="59.048931"
         height="49.048931"
         x="-134.4606"
         y="-8.9833069" />
      <path
         inkscape:connector-curvature="0"
         id="path3051"
         d="m -105.09726,19.659472 -3.15306,-0.896151 -2.85715,0.704917 -2.85714,0.704917 -0.46428,-4.27e-4 -0.46429,-4.27e-4 V 14.499677 8.8270542 l 0.58172,-0.3834992 c 0.31994,-0.2109245 0.88464,-0.5832441 1.25487,-0.8273767 0.37024,-0.2441327 0.68142,-0.4438776 0.69152,-0.4438776 0.022,0 0.59465,0.6436296 0.59362,0.667227 -4e-4,0.00905 -0.49281,0.3470588 -1.09426,0.7511404 -0.60145,0.4040816 -1.0971,0.7438775 -1.10145,0.755102 -0.004,0.011225 -0.006,2.2159449 -0.003,4.8993789 l 0.005,4.87897 0.86735,-0.208049 c 3.9386,-0.944746 4.81175,-1.152131 4.85039,-1.152039 0.0243,6.2e-5 1.44782,0.377444 3.16327,0.838635 1.71544,0.46119 3.14667,0.843162 3.1805,0.848826 0.0414,0.0069 1.0123,-0.237735 2.969383,-0.748277 1.599336,-0.417216 2.956098,-0.772289 3.015027,-0.78905 l 0.107143,-0.03047 v -5.008756 c 0,-2.767744 -0.0078,-5.0087557 -0.01749,-5.0087557 -0.0096,0 -0.484873,0.1652149 -1.056123,0.3671445 -0.571249,0.2019294 -1.047904,0.3672355 -1.059233,0.3673469 -0.01586,1.633e-4 -0.271263,-0.7613957 -0.28302,-0.8439028 -0.0043,-0.030384 3.03661,-1.0939084 3.051657,-1.0672733 0.0073,0.012993 0.07392,0.1819112 0.147959,0.3753739 l 0.134614,0.3517506 v 5.5708549 5.570854 l -0.137755,0.04047 c -1.620493,0.476116 -6.817162,1.960653 -6.857672,1.959038 -0.0306,-0.0012 -1.47447,-0.405484 -3.20865,-0.898367 z"
         style="fill:#102a43;fill-opacity:1;stroke-width:0.02040816"
         sodipodi:nodetypes="ccccccccccscscccccscsccsssccccccccccc" />
      <text
         xml:space="preserve"
         style="font-style:normal;font-variant:normal;font-weight:normal;font-stretch:normal;font-size:10.58333302px;line-height:1.25;font-family:Roboto;-inkscape-font-specification:Roboto;letter-spacing:0px;word-spacing:0px;fill:#102a43;fill-opacity:1;stroke:none;stroke-width:0.26458332;"
         x="-132.67178"
         y="34.437801"
         id="text847-1-6"><tspan
           sodipodi:role="line"
           id="tspan845-78-7"
           x="-132.67178"
           y="34.437801"
           style="stroke-width:0.26458332;fill:#102a43;fill-opacity:1;">Map Viewer </tspan></text>
    </g>
  </g>
</svg>
