<?xml version="1.0" encoding="UTF-8" standalone="no"?>
<!-- Created with Inkscape (http://www.inkscape.org/) -->

<svg
   xmlns:dc="http://purl.org/dc/elements/1.1/"
   xmlns:cc="http://creativecommons.org/ns#"
   xmlns:rdf="http://www.w3.org/1999/02/22-rdf-syntax-ns#"
   xmlns:svg="http://www.w3.org/2000/svg"
   xmlns="http://www.w3.org/2000/svg"
   xmlns:sodipodi="http://sodipodi.sourceforge.net/DTD/sodipodi-0.dtd"
   xmlns:inkscape="http://www.inkscape.org/namespaces/inkscape"
   width="59.048931mm"
   height="49.048931mm"
   viewBox="0 0 59.048931 49.048931"
   version="1.1"
   id="svg3078"
   inkscape:version="0.92.3 (2405546, 2018-03-11)"
   sodipodi:docname="map.svg">
  <defs
     id="defs3072" />
  <sodipodi:namedview
     id="base"
     pagecolor="#ffffff"
     bordercolor="#666666"
     borderopacity="1.0"
     inkscape:pageopacity="0.0"
     inkscape:pageshadow="2"
     inkscape:zoom="0.35"
     inkscape:cx="-418.41148"
     inkscape:cy="-261.59482"
     inkscape:document-units="mm"
     inkscape:current-layer="layer1"
     showgrid="false"
     inkscape:window-width="1859"
     inkscape:window-height="1025"
     inkscape:window-x="61"
     inkscape:window-y="27"
     inkscape:window-maximized="1" />
  <metadata
     id="metadata3075">
    <rdf:RDF>
      <cc:Work
         rdf:about="">
        <dc:format>image/svg+xml</dc:format>
        <dc:type
           rdf:resource="http://purl.org/dc/dcmitype/StillImage" />
        <dc:title></dc:title>
      </cc:Work>
    </rdf:RDF>
  </metadata>
  <g
     inkscape:label="Layer 1"
     inkscape:groupmode="layer"
     id="layer1"
     transform="translate(-84.624348,-30.570772)">
    <g
       id="g3057"
       transform="translate(219.08495,39.554079)">
      <rect
         style="fill:#ffffff;fill-opacity:1;fill-rule:evenodd;stroke:none;stroke-width:0.95106727;stroke-miterlimit:4;stroke-dasharray:none;stroke-opacity:1"
         id="rect2415-7-2-3"
         width="59.048931"
         height="49.048931"
         x="-134.4606"
         y="-8.9833069" />
      <path
         inkscape:connector-curvature="0"
         id="path3051"
         d="m -105.09726,19.659472 -3.15306,-0.896151 -2.85715,0.704917 -2.85714,0.704917 -0.46428,-4.27e-4 -0.46429,-4.27e-4 V 14.499677 8.8270542 l 0.58172,-0.3834992 c 0.31994,-0.2109245 0.88464,-0.5832441 1.25487,-0.8273767 0.37024,-0.2441327 0.68142,-0.4438776 0.69152,-0.4438776 0.022,0 0.59465,0.6436296 0.59362,0.667227 -4e-4,0.00905 -0.49281,0.3470588 -1.09426,0.7511404 -0.60145,0.4040816 -1.0971,0.7438775 -1.10145,0.755102 -0.004,0.011225 -0.006,2.2159449 -0.003,4.8993789 l 0.005,4.87897 0.86735,-0.208049 c 3.9386,-0.944746 4.81175,-1.152131 4.85039,-1.152039 0.0243,6.2e-5 1.44782,0.377444 3.16327,0.838635 1.71544,0.46119 3.14667,0.843162 3.1805,0.848826 0.0414,0.0069 1.0123,-0.237735 2.969383,-0.748277 1.599336,-0.417216 2.956098,-0.772289 3.015027,-0.78905 l 0.107143,-0.03047 v -5.008756 c 0,-2.767744 -0.0078,-5.0087557 -0.01749,-5.0087557 -0.0096,0 -0.484873,0.1652149 -1.056123,0.3671445 -0.571249,0.2019294 -1.047904,0.3672355 -1.059233,0.3673469 -0.01586,1.633e-4 -0.271263,-0.7613957 -0.28302,-0.8439028 -0.0043,-0.030384 3.03661,-1.0939084 3.051657,-1.0672733 0.0073,0.012993 0.07392,0.1819112 0.147959,0.3753739 l 0.134614,0.3517506 v 5.5708549 5.570854 l -0.137755,0.04047 c -1.620493,0.476116 -6.817162,1.960653 -6.857672,1.959038 -0.0306,-0.0012 -1.47447,-0.405484 -3.20865,-0.898367 z m -0.34694,-5.210171 c -1.35882,-1.277114 -2.39389,-2.487626 -3.31686,-3.879041 -0.95256,-1.4360407 -1.49814,-2.6811946 -1.67383,-3.8201584 -0.11602,-0.7521241 -0.0106,-1.6975755 0.27921,-2.5031027 0.18459,-0.5131361 0.54855,-1.1565573 0.90807,-1.6053104 0.18359,-0.2291512 0.58224,-0.6255503 0.82382,-0.8191719 0.91901,-0.7365603 2.02861,-1.15775833 3.21428,-1.22012411 2.33953,-0.12305738 4.50712,1.15263641 5.441642,3.20256131 0.302872,0.6643692 0.451403,1.3484669 0.451961,2.0816327 7.86e-4,1.0327057 -0.359913,2.3062496 -0.977803,3.4523822 -0.37294,0.6917823 -0.8554,1.3684323 -1.70005,2.3843523 -0.62983,0.757535 -0.79343,0.939212 -1.29176,1.434532 -0.50559,0.502524 -1.72858,1.668151 -1.74851,1.666494 -0.007,-5.59e-4 -0.19129,-0.169329 -0.41017,-0.375046 z m 1.04592,-1.476629 c 0.77789,-0.746124 1.00834,-0.995184 1.76969,-1.912616 1.1695,-1.4092583 1.7318,-2.3414126 2.09897,-3.479592 0.13632,-0.4225498 0.24652,-0.9167424 0.289,-1.2959184 0.0791,-0.706082 -0.0756,-1.532983 -0.41618,-2.2244898 -0.66486,-1.3499671 -1.96988,-2.2706824 -3.56291,-2.5137041 -0.32683,-0.049858 -1.02286,-0.049617 -1.34694,4.663e-4 -0.53563,0.082776 -0.93251,0.2048404 -1.39796,0.4299568 -1.22162,0.590839 -2.12777,1.6982959 -2.45773,3.0037143 -0.1138,0.4502316 -0.13286,0.60987 -0.13257,1.110179 2.5e-4,0.4380724 0.003,0.4735467 0.0659,0.7715904 0.32274,1.5370031 1.47777,3.4821955 3.26814,5.5039195 0.26861,0.303319 1.16526,1.217896 1.18589,1.209596 0.008,-0.003 0.29407,-0.274429 0.63673,-0.603102 z m -0.66837,-4.8532723 c -0.50801,-0.068253 -0.79313,-0.1661079 -1.12209,-0.3851073 -0.9351,-0.6225133 -1.27151,-1.8161133 -0.78606,-2.788959 0.31964,-0.6405671 0.88062,-1.0694655 1.61555,-1.2351784 0.21587,-0.048675 0.70671,-0.048162 0.93546,9.776e-4 0.47974,0.10306 0.90529,0.339479 1.22932,0.6829669 0.25442,0.2697002 0.44316,0.6098978 0.53929,0.9720794 0.0478,0.1802396 0.0542,0.242229 0.0542,0.5306123 6e-5,0.2916989 -0.006,0.3482238 -0.0553,0.5298944 -0.10646,0.3909233 -0.29315,0.7173774 -0.57201,1.000208 -0.33716,0.3419786 -0.75151,0.5641039 -1.21613,0.6519553 -0.16311,0.03084 -0.52095,0.054161 -0.62224,0.040551 z m 0.61225,-0.975052 c 0.35344,-0.1139461 0.65506,-0.3650721 0.80438,-0.6697196 0.1192,-0.2431925 0.15156,-0.3909874 0.1399,-0.6389327 -0.0225,-0.4790277 -0.29381,-0.8837283 -0.7402,-1.1041932 -0.21563,-0.1064955 -0.40308,-0.1503294 -0.64286,-0.1503294 -0.23978,0 -0.42723,0.043834 -0.64286,0.1503294 -0.43901,0.216822 -0.71518,0.6228049 -0.74026,1.0882536 -0.0133,0.2471568 0.0185,0.4028354 0.12847,0.6280551 0.18613,0.3813037 0.51463,0.6336252 0.95873,0.7363943 0.18999,0.043965 0.53229,0.025395 0.7347,-0.039858 z"
         style="fill:#000000;stroke-width:0.02040816" />
      <text
         xml:space="preserve"
         style="font-style:normal;font-variant:normal;font-weight:normal;font-stretch:normal;font-size:10.58333302px;line-height:1.25;font-family:Roboto;-inkscape-font-specification:Roboto;letter-spacing:0px;word-spacing:0px;fill:#000000;fill-opacity:1;stroke:none;stroke-width:0.26458332"
         x="-115.73851"
         y="34.437801"
         id="text847-1-6"><tspan
           sodipodi:role="line"
           id="tspan845-78-7"
           x="-115.73851"
           y="34.437801"
           style="stroke-width:0.26458332">Map </tspan></text>
    </g>
  </g>
</svg>
