<svg xmlns="http://www.w3.org/2000/svg" width="223.177" height="185.382" viewBox="0 0 59.049 49.049"><path style="fill:#102a43;fill-opacity:1;stroke-width:.0771332" d="M112.205 36.203a22.36 22.36 0 0 0-1.65.026c-4.482.235-8.675 1.829-12.149 4.613-.913.732-2.42 2.23-3.113 3.096-1.359 1.696-2.734 4.126-3.432 6.066-1.095 3.044-1.493 6.618-1.054 9.46.664 4.306 2.726 9.01 6.326 14.438 3.488 5.26 7.4 9.836 12.535 14.662.827.778 1.524 1.416 1.55 1.418.076.007 4.697-4.4 6.608-6.298 1.884-1.872 2.503-2.56 4.883-5.422 3.192-3.84 5.016-6.397 6.426-9.012 2.335-4.332 3.698-9.146 3.695-13.049a18.656 18.656 0 0 0-1.707-7.867c-3.311-7.264-10.72-11.956-18.918-12.13zm-.412 11.584a8.504 8.504 0 0 1 8.504 8.504 8.504 8.504 0 0 1-8.504 8.504 8.504 8.504 0 0 1-8.504-8.504 8.504 8.504 0 0 1 8.504-8.504z" transform="scale(.26458)"/><path style="fill:none;fill-opacity:1;fill-rule:evenodd;stroke:none;stroke-width:.95106727;stroke-miterlimit:4;stroke-dasharray:none;stroke-opacity:1" d="M-134.461-8.983h59.049v49.049h-59.049z" transform="translate(134.46 8.983)"/><path d="m-105.097 19.66-3.153-.897-2.857.705-2.858.705h-.928V8.826l.582-.383 1.254-.828c.37-.244.682-.444.692-.444.022 0 .595.644.594.668 0 .009-.493.347-1.095.75a37.98 37.98 0 0 0-1.101.756 771.57 771.57 0 0 0-.003 4.9l.005 4.878.867-.208c3.939-.945 4.812-1.152 4.85-1.152.025 0 1.448.377 3.164.839 1.715.46 3.147.843 3.18.848.042.007 1.013-.237 2.97-.748 1.6-.417 2.956-.772 3.015-.789l.107-.03v-5.01c0-2.767-.008-5.008-.018-5.008-.01 0-.484.165-1.056.367-.571.202-1.048.368-1.059.368-.016 0-.271-.762-.283-.844-.004-.03 3.037-1.094 3.052-1.068.007.013.074.182.148.376l.134.352v11.141l-.137.04c-1.621.477-6.818 1.961-6.858 1.96-.03-.001-1.475-.406-3.209-.899z" style="fill:#102a43;fill-opacity:1;stroke-width:.02040816" transform="translate(134.46 8.983)"/><text xml:space="preserve" style="font-style:normal;font-variant:normal;font-weight:400;font-stretch:normal;font-size:10.58333302px;line-height:1.25;font-family:Roboto;-inkscape-font-specification:Roboto;letter-spacing:0;word-spacing:0;fill:#102a43;fill-opacity:1;stroke:none;stroke-width:.26458332" x="-132.672" y="34.438" transform="translate(134.46 8.983)"><tspan x="-132.672" y="34.438" style="stroke-width:.26458332;fill:#102a43;fill-opacity:1">Map Viewer </tspan></text></svg>