<svg xmlns="http://www.w3.org/2000/svg" width="75.588" height="75.453" viewBox="0 0 19.999 19.964"><path d="m-105.097 19.66-3.153-.897-2.857.705-2.858.705h-.928V8.826l.582-.383 1.254-.828c.37-.244.682-.444.692-.444.022 0 .595.644.594.668 0 .009-.493.347-1.095.75a37.98 37.98 0 0 0-1.101.756 771.57 771.57 0 0 0-.003 4.9l.005 4.878.867-.208c3.939-.945 4.812-1.152 4.85-1.152.025 0 1.448.377 3.164.839 1.715.46 3.147.843 3.18.848.042.007 1.013-.237 2.97-.748 1.6-.417 2.956-.772 3.015-.789l.107-.03v-5.01c0-2.767-.008-5.008-.018-5.008-.01 0-.484.165-1.056.367-.571.202-1.048.368-1.059.368-.016 0-.271-.762-.283-.844-.004-.03 3.037-1.094 3.052-1.068.007.013.074.182.148.376l.134.352v11.141l-.137.04c-1.621.477-6.818 1.961-6.858 1.96-.03-.001-1.475-.406-3.209-.899zm-.347-5.21c-1.359-1.278-2.394-2.488-3.317-3.88-.953-1.436-1.498-2.68-1.674-3.82-.116-.752-.01-1.697.28-2.503a6.197 6.197 0 0 1 .907-1.605 6.82 6.82 0 0 1 .824-.82 5.57 5.57 0 0 1 3.214-1.22c2.34-.123 4.508 1.153 5.442 3.203.303.664.452 1.348.452 2.082 0 1.032-.36 2.306-.978 3.452-.373.692-.855 1.368-1.7 2.384-.63.758-.793.94-1.292 1.435-.505.502-1.728 1.668-1.748 1.666-.007 0-.191-.169-.41-.375zm1.046-1.477c.778-.746 1.008-.996 1.77-1.913 1.169-1.41 1.731-2.341 2.098-3.48a7.16 7.16 0 0 0 .29-1.295c.078-.707-.076-1.533-.417-2.225-.665-1.35-1.97-2.27-3.563-2.514a6.07 6.07 0 0 0-1.347 0 4.58 4.58 0 0 0-1.398.43 4.608 4.608 0 0 0-2.457 3.004c-.114.45-.133.61-.133 1.11 0 .439.003.474.066.772.323 1.537 1.478 3.482 3.268 5.504.269.303 1.165 1.218 1.186 1.21.008-.003.294-.275.637-.603zm-.669-4.854c-.508-.068-.793-.166-1.122-.385-.935-.622-1.271-1.816-.786-2.789.32-.64.88-1.07 1.616-1.235a3 3 0 0 1 .935.001c.48.103.905.34 1.23.683.254.27.443.61.539.972.048.18.054.242.054.53 0 .292-.006.349-.055.53a2.208 2.208 0 0 1-.572 1 2.286 2.286 0 0 1-1.216.653 3.24 3.24 0 0 1-.623.04zm.613-.975c.353-.114.655-.365.804-.67a1.13 1.13 0 0 0 .14-.638 1.28 1.28 0 0 0-.74-1.104 1.351 1.351 0 0 0-.643-.15c-.24 0-.427.043-.643.15a1.288 1.288 0 0 0-.74 1.088c-.014.247.018.403.128.628.186.381.515.633.959.736.19.044.532.026.735-.04z" style="fill:#102a43;stroke-width:.02040816;fill-opacity:1" transform="translate(114.893 -.594)"/></svg>