<?xml version="1.0" encoding="UTF-8" standalone="no"?>
<!-- Created with Inkscape (http://www.inkscape.org/) -->

<svg
   xmlns:dc="http://purl.org/dc/elements/1.1/"
   xmlns:cc="http://creativecommons.org/ns#"
   xmlns:rdf="http://www.w3.org/1999/02/22-rdf-syntax-ns#"
   xmlns:svg="http://www.w3.org/2000/svg"
   xmlns="http://www.w3.org/2000/svg"
   xmlns:sodipodi="http://sodipodi.sourceforge.net/DTD/sodipodi-0.dtd"
   xmlns:inkscape="http://www.inkscape.org/namespaces/inkscape"
   version="1.1"
   id="svg885"
   width="516.75201"
   height="475.4989"
   viewBox="0 0 516.75202 475.49891"
   sodipodi:docname="bug.svg"
   inkscape:version="0.92.3 (2405546, 2018-03-11)">
  <metadata
     id="metadata891">
    <rdf:RDF>
      <cc:Work
         rdf:about="">
        <dc:format>image/svg+xml</dc:format>
        <dc:type
           rdf:resource="http://purl.org/dc/dcmitype/StillImage" />
        <dc:title></dc:title>
      </cc:Work>
    </rdf:RDF>
  </metadata>
  <defs
     id="defs889" />
  <sodipodi:namedview
     pagecolor="#ffffff"
     bordercolor="#666666"
     borderopacity="1"
     objecttolerance="10"
     gridtolerance="10"
     guidetolerance="10"
     inkscape:pageopacity="0"
     inkscape:pageshadow="2"
     inkscape:window-width="1859"
     inkscape:window-height="1025"
     id="namedview887"
     showgrid="false"
     inkscape:zoom="0.59040655"
     inkscape:cx="65.453046"
     inkscape:cy="337.35787"
     inkscape:window-x="61"
     inkscape:window-y="27"
     inkscape:window-maximized="1"
     inkscape:current-layer="svg885" />
  <path
     style="fill:#ffffff;stroke-width:1.0105263"
     d="m 229.39314,474.72277 c -15.75654,-4.97287 -43.26103,-32.65538 -68.48452,-68.92775 -11.12094,-15.99236 -19.61558,-22.44138 -34.39523,-26.11241 -4.56964,-1.13503 -8.59319,-1.5105 -11.62106,-1.08445 -6.45609,0.90841 -14.80624,5.14242 -17.656848,8.95303 -1.318983,1.76318 -9.749623,17.07525 -18.734753,34.02683 -8.98513,16.95158 -17.47702,31.84421 -18.87086,33.09474 -1.84118,1.65188 -3.78892,2.27368 -7.12199,2.27368 -7.80953,0 -13.48904,-5.1256 -13.48904,-12.17349 0,-3.33884 20.14393,-44.07951 29.38098,-59.42242 9.9507,-16.52829 21.11821,-26.71532 33.671641,-30.71537 5.07806,-1.61807 8.04763,-1.87376 16.79936,-1.44646 6.04283,0.29506 11.38533,0.0969 12.37894,-0.45918 2.28676,-1.27973 2.21541,-5.51042 -0.24921,-14.77555 -1.07232,-4.03113 -2.93233,-14.26271 -4.13335,-22.73684 -1.20101,-8.47414 -2.89237,-16.94136 -3.75857,-18.81606 -3.01115,-6.51698 -3.87736,-6.6383 -51.420531,-7.20199 l -42.61495,-0.50527 -2.61746,-2.4605 c -5.35178,-5.03086 -5.34701,-14.30536 0.01,-19.34085 l 2.60773,-2.45128 42.61481,-0.50526 c 44.561681,-0.52834 44.552991,-0.52741 48.804341,-5.21248 3.4941,-3.85055 4.16571,-5.90188 5.40801,-16.51778 0.65016,-5.55573 2.54489,-15.54422 4.21053,-22.19665 1.9864,-7.93352 2.8122,-13.24803 2.39997,-15.44538 -0.85038,-4.53291 -9.47496,-14.31356 -25.16968,-28.5435 -23.789411,-21.56915 -23.427231,-21.52198 -63.372721,-8.25397 -16.8447,5.59501 -29.52191,9.2645 -32.00668,9.2645 -10.0962403,0 -15.6430603,-12.45049 -9.1974603,-20.64474 1.59622,-2.02927 7.1035099,-4.22101 26.9617103,-10.73 32.97102,-10.80703 43.99939,-13.45523 53.50755,-12.84858 12.89738,0.82289 20.401341,5.66465 49.916241,32.20742 8.68209,7.80781 10.67454,8.98563 15.19185,8.98054 4.29728,-0.005 7.55939,-2.04206 18.38794,-11.48346 11.11783,-9.69364 19.16979,-15.44248 29.42585,-21.00914 8.00632,-4.34556 8.18157,-4.38782 18.18947,-4.38705 9.14769,7e-4 10.63193,0.27461 15.66316,2.89056 7.34256,3.81771 14.48754,11.48161 17.38231,18.64473 l 2.32295,5.74814 v 150.06315 c 0,148.27148 -0.0241,150.10321 -2.02105,153.41717 -3.82307,6.34452 -11.17207,9.09281 -18.29938,6.84337 z m 45.1127,-1.29983 c -1.92635,-1.00313 -4.4274,-3.41544 -5.55789,-5.36071 -2.03727,-3.50558 -2.05791,-4.81822 -2.33568,-148.54736 -0.18968,-98.14312 0.065,-147.29674 0.78783,-152.08421 2.55801,-16.94119 13.90762,-28.58879 29.64263,-30.42093 15.45941,-1.80005 33.79243,7.24365 54.84723,27.0562 8.82229,8.30176 13.01029,10.29309 18.86877,8.97178 4.82204,-1.08754 5.42517,-1.50562 17.06684,-11.83045 29.82054,-26.4474 39.64521,-31.05365 59.05722,-27.68862 3.8264,0.6633 20.01288,5.51458 35.96995,10.78061 30.80889,10.16734 32.16959,10.87975 33.64944,17.61747 1.57308,7.16218 -4.52109,15.11394 -11.5832,15.11394 -2.11175,0 -13.78634,-3.35901 -25.94353,-7.46446 -29.62948,-10.00581 -33.22823,-10.99738 -40.29345,-11.10219 -4.84866,-0.0719 -7.08978,0.47543 -11.18837,2.73254 -8.94136,4.92405 -39.14885,33.15152 -41.51214,38.79112 -2.41881,5.77211 -2.07561,8.74821 5.80545,50.3424 0.58533,3.08922 2.00438,6.21068 3.61129,7.94366 5.17267,5.57849 5.90207,5.66187 49.5671,5.66597 37.54963,0.003 40.40615,0.12894 43.31334,1.90175 3.10818,1.89536 6.48754,7.48256 6.48754,10.72605 0,3.24348 -3.37936,8.83068 -6.48754,10.72605 -2.89761,1.76696 -5.70734,1.89823 -40.70483,1.90175 -40.0034,0.004 -45.87529,0.53821 -50.71928,4.61416 -3.35037,2.81915 -4.36696,6.19424 -7.28099,24.17296 -1.1696,7.2161 -2.99026,16.49727 -4.04591,20.6248 -3.6426,14.24247 -2.65729,15.69861 9.93509,14.68259 19.88065,-1.60408 38.65327,8.58148 49.08692,26.63335 2.48025,4.29123 10.92835,19.91339 18.77357,34.7159 14.9334,28.17666 15.83099,30.75343 12.61127,36.20398 -3.68051,6.23059 -13.96631,8.30841 -18.95827,3.82972 -1.39384,-1.25053 -9.88573,-16.14316 -18.87087,-33.09474 -8.98513,-16.95158 -17.41577,-32.26365 -18.73475,-34.02683 -1.31898,-1.76318 -4.91085,-4.43513 -7.98193,-5.93767 -10.67007,-5.22038 -25.78312,-2.88321 -39.27801,6.07419 -6.18566,4.10581 -9.1284,7.48479 -19.62132,22.53004 -8.48123,12.16081 -37.94782,47.12522 -44.78207,53.13743 -11.30071,9.94145 -25.295,14.18497 -33.20145,10.06776 z M 176.08718,124.73592 c 1.36273,-21.71717 6.45663,-35.661795 18.54926,-50.778945 4.71464,-5.89382 5.20184,-6.95947 4.74364,-10.37599 -0.73794,-5.5026 -5.82926,-12.794863 -14.7931,-21.188124 -8.91457,-8.347109 -18.14443,-14.16124 -29.86287,-18.81141 -13.4341,-5.330985 -19.89306,-6.284318 -46.92696,-6.92635 -24.079201,-0.57186 -24.753681,-0.644786 -27.031581,-2.922693 -2.92272,-2.922714 -3.02106,-7.3480151 -0.24181,-10.8812591 l 2.0944,-2.66259496 h 19.671751 c 37.71656,0 57.99885,4.36842196 77.93506,16.78573506 8.57833,5.343026 23.37948,19.453057 30.88813,29.445844 5.45698,7.262338 6.78588,7.612802 15.07692,3.976108 11.39891,-4.999898 17.69096,-6.218271 32.11302,-6.218271 14.42207,0 20.71412,1.218373 32.11303,6.218271 8.28324,3.633274 9.614,3.283557 15.13013,-3.976108 20.23536,-26.631314 42.48332,-39.8107811 76.54632,-45.3452701 3.89052,-0.63212496 17.0779,-1.11464696 29.30527,-1.07227196 l 22.23158,0.07704 2.27368,2.63712496 c 2.96191,3.43535 2.93591,8.0172351 -0.0625,11.0156461 -2.27684,2.276847 -2.96359,2.351529 -27.03158,2.939606 -33.49605,0.818441 -45.62188,3.736307 -63.60065,15.304366 -13.14158,8.45567 -29.30527,26.042261 -29.30527,31.885041 0,1.85711 1.97397,5.14581 6.12661,10.20719 6.89637,8.40553 13.14055,20.45818 15.6046,30.120325 1.63942,6.42852 3.79232,27.44451 2.90262,28.33422 -0.2546,0.25459 -1.69504,-0.32712 -3.20099,-1.29269 -13.35891,-8.5653 -37.12368,-17.51556 -54.27494,-20.44095 -13.39459,-2.28465 -36.1212,-2.28465 -49.51579,0 -17.03995,2.90641 -42.81023,12.53619 -53.20862,19.88288 -4.38197,3.09595 -4.78114,2.53831 -4.24935,-5.93647 z"
     id="path895"
     inkscape:connector-curvature="0" />
</svg>
