<svg xmlns="http://www.w3.org/2000/svg" width="516.752" height="475.499"><path style="fill:#fff;stroke-width:1.0105263" d="M229.393 474.723c-15.756-4.973-43.26-32.656-68.484-68.928-11.121-15.992-19.616-22.441-34.396-26.112-4.57-1.135-8.593-1.51-11.62-1.085-6.457.909-14.807 5.143-17.658 8.953-1.319 1.763-9.75 17.075-18.734 34.027-8.985 16.952-17.477 31.844-18.871 33.095-1.841 1.652-3.79 2.273-7.122 2.273-7.81 0-13.49-5.125-13.49-12.173 0-3.339 20.145-44.08 29.382-59.422 9.95-16.529 21.118-26.716 33.671-30.716 5.079-1.618 8.048-1.874 16.8-1.446 6.043.295 11.385.097 12.379-.46 2.287-1.28 2.215-5.51-.25-14.775-1.072-4.031-2.932-14.263-4.133-22.737-1.2-8.474-2.892-16.941-3.758-18.816-3.012-6.517-3.878-6.638-51.42-7.202l-42.616-.505-2.617-2.46c-5.352-5.032-5.347-14.306.01-19.342l2.607-2.45 42.615-.506c44.562-.528 44.553-.527 48.805-5.213 3.494-3.85 4.165-5.901 5.408-16.517.65-5.556 2.544-15.545 4.21-22.197 1.987-7.934 2.812-13.248 2.4-15.445-.85-4.533-9.475-14.314-25.17-28.544-23.789-21.569-23.427-21.522-63.372-8.254-16.845 5.595-29.522 9.265-32.007 9.265-10.096 0-15.643-12.45-9.197-20.645 1.596-2.03 7.103-4.221 26.961-10.73 32.971-10.807 44-13.455 53.508-12.849 12.897.823 20.401 5.665 49.916 32.208 8.682 7.808 10.675 8.985 15.192 8.98 4.297-.005 7.56-2.042 18.388-11.483 11.118-9.694 19.17-15.443 29.426-21.01 8.006-4.345 8.181-4.387 18.19-4.386 9.147 0 10.631.274 15.662 2.89 7.343 3.818 14.488 11.482 17.383 18.645l2.323 5.748v150.063c0 148.272-.025 150.103-2.021 153.417-3.824 6.345-11.173 9.093-18.3 6.844zm45.113-1.3c-1.927-1.003-4.428-3.415-5.558-5.36-2.037-3.506-2.058-4.819-2.336-148.548-.19-98.143.065-147.297.788-152.084 2.558-16.942 13.908-28.59 29.643-30.421 15.46-1.8 33.792 7.243 54.847 27.056 8.822 8.302 13.01 10.293 18.869 8.972 4.822-1.088 5.425-1.506 17.067-11.83 29.82-26.448 39.645-31.054 59.057-27.69 3.826.664 20.013 5.515 35.97 10.781 30.809 10.168 32.17 10.88 33.65 17.618 1.572 7.162-4.522 15.114-11.584 15.114-2.112 0-13.786-3.36-25.944-7.465-29.629-10.006-33.228-10.997-40.293-11.102-4.849-.072-7.09.475-11.188 2.733-8.942 4.924-39.15 33.151-41.513 38.79-2.418 5.773-2.075 8.749 5.806 50.343.585 3.09 2.004 6.21 3.611 7.944 5.173 5.578 5.902 5.662 49.567 5.666 37.55.003 40.406.129 43.314 1.901 3.108 1.896 6.487 7.483 6.487 10.727 0 3.243-3.38 8.83-6.487 10.726-2.898 1.767-5.708 1.898-40.705 1.901-40.004.004-45.875.539-50.72 4.614-3.35 2.82-4.366 6.195-7.28 24.173-1.17 7.217-2.99 16.498-4.046 20.625-3.643 14.243-2.658 15.699 9.935 14.683 19.88-1.604 38.653 8.581 49.087 26.633 2.48 4.291 10.928 19.914 18.773 34.716 14.934 28.177 15.831 30.753 12.612 36.204-3.681 6.23-13.967 8.308-18.959 3.83-1.394-1.25-9.885-16.143-18.87-33.095-8.986-16.952-17.416-32.264-18.735-34.027-1.32-1.763-4.911-4.435-7.982-5.937-10.67-5.22-25.783-2.884-39.278 6.074-6.186 4.106-9.129 7.484-19.622 22.53-8.48 12.16-37.947 47.125-44.782 53.137-11.3 9.942-25.295 14.185-33.201 10.068zm-98.419-348.687c1.363-21.717 6.457-35.662 18.55-50.779 4.714-5.894 5.201-6.96 4.743-10.376-.738-5.503-5.83-12.795-14.793-21.188-8.915-8.347-18.144-14.161-29.863-18.812-13.434-5.33-19.893-6.284-46.927-6.926-24.08-.572-24.754-.645-27.031-2.923-2.923-2.922-3.021-7.348-.242-10.88L82.618.188h19.672c37.716 0 57.999 4.368 77.935 16.785 8.578 5.343 23.38 19.453 30.888 29.446 5.457 7.262 6.786 7.613 15.077 3.976 11.399-5 17.691-6.218 32.113-6.218s20.714 1.218 32.113 6.218c8.283 3.634 9.614 3.284 15.13-3.976C325.782 19.79 348.03 6.61 382.093 1.075 385.983.443 399.17-.04 411.398.003l22.231.077 2.274 2.637c2.962 3.435 2.936 8.017-.062 11.015-2.277 2.277-2.964 2.352-27.032 2.94-33.496.818-45.622 3.736-63.6 15.304-13.142 8.456-29.306 26.043-29.306 31.885 0 1.858 1.974 5.146 6.127 10.208 6.896 8.405 13.14 20.458 15.604 30.12 1.64 6.428 3.793 27.444 2.903 28.334-.255.255-1.695-.327-3.201-1.293-13.359-8.565-37.124-17.515-54.275-20.44-13.395-2.285-36.121-2.285-49.516 0-17.04 2.906-42.81 12.536-53.208 19.882-4.382 3.096-4.782 2.539-4.25-5.936z"/></svg>