<svg xmlns="http://www.w3.org/2000/svg" xml:space="preserve" width="500" height="500"><path style="fill:red;fill-opacity:1;stroke-width:1" d="M-43.478-46.563h12l-6 6z" transform="matrix(10.52809 0 0 15.625 778.218 727.545)"/><path style="fill:#28b5f5;fill-opacity:1;stroke-width:1" d="m-46.168-20.159 5.434-17.42h6.98l7.328 23.016h-5.757l-1.815-6.263h-6.736l-1.675 6.263zm6.202-4.45h5.2l-1.466-4.944-.62-2.247-.566-2.246h-.07l-.528 2.267-.554 2.285z" transform="matrix(10.52809 0 0 15.625 778.218 727.545)"/><path style="fill:#010002" d="M-54.82-23.182h-9.261l-2.303 8.611h-7.534l9.837-31.992h9.597c3.742 10.787 5.277 21.881 12.075 32l-9.915-.008zm-8.205-5.203h7.15l-2.015-6.798-.852-3.09-.78-3.089h-.096l-.726 3.117-.762 3.142z" transform="matrix(10.52809 0 0 15.625 778.218 727.545)"/></svg>