<?xml version="1.0" encoding="UTF-8" standalone="no"?>
<!-- Generator: Adobe Illustrator 19.0.0, SVG Export Plug-In . SVG Version: 6.00 Build 0)  -->

<svg
   xmlns:dc="http://purl.org/dc/elements/1.1/"
   xmlns:cc="http://creativecommons.org/ns#"
   xmlns:rdf="http://www.w3.org/1999/02/22-rdf-syntax-ns#"
   xmlns:svg="http://www.w3.org/2000/svg"
   xmlns="http://www.w3.org/2000/svg"
   xmlns:sodipodi="http://sodipodi.sourceforge.net/DTD/sodipodi-0.dtd"
   xmlns:inkscape="http://www.inkscape.org/namespaces/inkscape"
   version="1.1"
   id="Capa_1"
   x="0px"
   y="0px"
   viewBox="0 0 512 512"
   style="enable-background:new 0 0 512 512;"
   xml:space="preserve"
   sodipodi:docname="fullscreen.svg"
   inkscape:version="0.92.3 (2405546, 2018-03-11)"><metadata
   id="metadata61"><rdf:RDF><cc:Work
       rdf:about=""><dc:format>image/svg+xml</dc:format><dc:type
         rdf:resource="http://purl.org/dc/dcmitype/StillImage" /><dc:title></dc:title></cc:Work></rdf:RDF></metadata><defs
   id="defs59" /><sodipodi:namedview
   pagecolor="#ffffff"
   bordercolor="#666666"
   borderopacity="1"
   objecttolerance="10"
   gridtolerance="10"
   guidetolerance="10"
   inkscape:pageopacity="0"
   inkscape:pageshadow="2"
   inkscape:window-width="1859"
   inkscape:window-height="1025"
   id="namedview57"
   showgrid="false"
   inkscape:zoom="0.4609375"
   inkscape:cx="256"
   inkscape:cy="256"
   inkscape:window-x="61"
   inkscape:window-y="27"
   inkscape:window-maximized="1"
   inkscape:current-layer="Capa_1" />
<g
   id="g6">
	<g
   id="g4">
		<polygon
   points="68.284,40 165,40 165,0 0,0 0,165 40,165 40,68.284 177,205.284 205.284,177   "
   id="polygon2" />
	</g>
</g>
<g
   id="g12"
   style="fill:#28b5f5;fill-opacity:1">
	<g
   id="g10"
   style="fill:#28b5f5;fill-opacity:1">
		<polygon
   points="205.284,335 177,306.716 40,443.716 40,347 0,347 0,512 165,512 165,472 68.284,472   "
   id="polygon8"
   style="fill:#28b5f5;fill-opacity:1" />
	</g>
</g>
<g
   id="g18"
   style="fill:#28b5f5;fill-opacity:1">
	<g
   id="g16"
   style="fill:#28b5f5;fill-opacity:1">
		<polygon
   points="347,0 347,40 443.716,40 306.716,177 335,205.284 472,68.284 472,165 512,165 512,0   "
   id="polygon14"
   style="fill:#28b5f5;fill-opacity:1" />
	</g>
</g>
<g
   id="g24">
	<g
   id="g22">
		<polygon
   points="472,347 472,443.716 335,306.716 306.716,335 443.716,472 347,472 347,512 512,512 512,347   "
   id="polygon20" />
	</g>
</g>
<g
   id="g26">
</g>
<g
   id="g28">
</g>
<g
   id="g30">
</g>
<g
   id="g32">
</g>
<g
   id="g34">
</g>
<g
   id="g36">
</g>
<g
   id="g38">
</g>
<g
   id="g40">
</g>
<g
   id="g42">
</g>
<g
   id="g44">
</g>
<g
   id="g46">
</g>
<g
   id="g48">
</g>
<g
   id="g50">
</g>
<g
   id="g52">
</g>
<g
   id="g54">
</g>
</svg>