<svg xmlns="http://www.w3.org/2000/svg" width="50mm" height="50mm" viewBox="0 0 50 50"><path style="fill:#de001e;fill-opacity:1;fill-rule:evenodd;stroke:none;stroke-width:0;stroke-miterlimit:4;stroke-dasharray:none;stroke-opacity:1" d="M49.471 48.173h12.5v12.5h-12.5z" transform="translate(-36.971 -48.173)"/><path style="fill:#d2001e;fill-opacity:1;fill-rule:evenodd;stroke:none;stroke-width:0;stroke-miterlimit:4;stroke-dasharray:none;stroke-opacity:1" d="M61.971 48.173h12.5v12.5h-12.5zm-25 0h12.5v12.5h-12.5z" transform="translate(-36.971 -48.173)"/><path style="fill:#f4001e;fill-opacity:1;fill-rule:evenodd;stroke:none;stroke-width:0;stroke-miterlimit:4;stroke-dasharray:none;stroke-opacity:1" d="M74.471 48.173h12.5v12.5h-12.5z" transform="translate(-36.971 -48.173)"/><path style="fill:#d200a0;fill-opacity:1;fill-rule:evenodd;stroke:none;stroke-width:0;stroke-miterlimit:4;stroke-dasharray:none;stroke-opacity:1" d="M49.471 60.673h12.5v12.5h-12.5z" transform="translate(-36.971 -48.173)"/><path style="fill:#d20093;fill-opacity:1;fill-rule:evenodd;stroke:none;stroke-width:0;stroke-miterlimit:4;stroke-dasharray:none;stroke-opacity:1" d="M61.971 60.673h12.5v12.5h-12.5z" transform="translate(-36.971 -48.173)"/><path style="fill:#d200b9;fill-opacity:1;fill-rule:evenodd;stroke:none;stroke-width:0;stroke-miterlimit:4;stroke-dasharray:none;stroke-opacity:1" d="M36.971 60.673h12.5v12.5h-12.5z" transform="translate(-36.971 -48.173)"/><path style="fill:#d200a0;fill-opacity:1;fill-rule:evenodd;stroke:none;stroke-width:0;stroke-miterlimit:4;stroke-dasharray:none;stroke-opacity:1" d="M74.471 60.673h12.5v12.5h-12.5z" transform="translate(-36.971 -48.173)"/><path style="fill:#6b00ff;fill-opacity:1;fill-rule:evenodd;stroke:none;stroke-width:0;stroke-miterlimit:4;stroke-dasharray:none;stroke-opacity:1" d="M49.471 73.173h12.5v12.5h-12.5z" transform="translate(-36.971 -48.173)"/><path style="fill:#8100ff;fill-opacity:1;fill-rule:evenodd;stroke:none;stroke-width:0;stroke-miterlimit:4;stroke-dasharray:none;stroke-opacity:1" d="M61.971 73.173h12.5v12.5h-12.5zm-25 0h12.5v12.5h-12.5z" transform="translate(-36.971 -48.173)"/><path style="fill:#90f;fill-opacity:1;fill-rule:evenodd;stroke:none;stroke-width:0;stroke-miterlimit:4;stroke-dasharray:none;stroke-opacity:1" d="M74.471 73.173h12.5v12.5h-12.5z" transform="translate(-36.971 -48.173)"/><path style="fill:#1237ff;fill-opacity:1;fill-rule:evenodd;stroke:none;stroke-width:0;stroke-miterlimit:4;stroke-dasharray:none;stroke-opacity:1" d="M49.471 85.673h12.5v12.5h-12.5z" transform="translate(-36.971 -48.173)"/><path style="fill:#1d37ff;fill-opacity:1;fill-rule:evenodd;stroke:none;stroke-width:0;stroke-miterlimit:4;stroke-dasharray:none;stroke-opacity:1" d="M61.971 85.673h12.5v12.5h-12.5z" transform="translate(-36.971 -48.173)"/><path style="fill:#0042ff;fill-opacity:1;fill-rule:evenodd;stroke:none;stroke-width:0;stroke-miterlimit:4;stroke-dasharray:none;stroke-opacity:1" d="M36.971 85.673h12.5v12.5h-12.5z" transform="translate(-36.971 -48.173)"/><path style="fill:#0057ff;fill-opacity:1;fill-rule:evenodd;stroke:none;stroke-width:0;stroke-miterlimit:4;stroke-dasharray:none;stroke-opacity:1" d="M74.471 85.673h12.5v12.5h-12.5z" transform="translate(-36.971 -48.173)"/></svg>