<svg xmlns="http://www.w3.org/2000/svg" height="512pt" viewBox="0 0 512.001 512" width="512pt"><path d="M412 136c0 5.52 4.48 10 10 10s10-4.48 10-10-4.48-10-10-10-10 4.48-10 10zm40 120c0 12.809-1.285 25.594-3.816 38-1.106 5.41 2.386 10.691 7.796 11.797.676.14 1.348.207 2.012.207 4.653 0 8.82-3.27 9.79-8.004 2.8-13.723 4.218-27.852 4.218-42 0-31.488-6.828-61.79-20.3-90.063-2.376-4.984-8.34-7.101-13.329-4.726-4.988 2.375-7.101 8.344-4.726 13.332C445.825 200.105 452 227.512 452 256zm0 0" style="fill:#fb0000;fill-opacity:1"/><path d="M306 346h-10V216c0-5.523-4.477-10-10-10h-80c-5.523 0-10 4.477-10 10v40c0 5.523 4.477 10 10 10h10v80h-10c-5.523 0-10 4.477-10 10v40c0 5.523 4.477 10 10 10h100c5.523 0 10-4.477 10-10v-40c0-5.523-4.477-10-10-10zm-10 40h-80v-20h10c5.523 0 10-4.477 10-10V256c0-5.523-4.477-10-10-10h-10v-20h60v130c0 5.523 4.48 10 10 10h10zm-40-200c22.055 0 40-17.945 40-40s-17.945-40-40-40-40 17.945-40 40 17.945 40 40 40zm0-60c11.027 0 20 8.973 20 20s-8.973 20-20 20-20-8.973-20-20 8.973-20 20-20zm0 0" style="fill:#28b5f5;fill-opacity:1"/><path d="M256 0C118.023 0 0 117.8 0 256c0 47.207 13.527 97.41 36.336 135.383L.512 498.84a9.999 9.999 0 0 0 12.652 12.644l107.457-35.82C158.59 498.477 208.793 512 256 512c138.012 0 256-117.816 256-256C512 117.988 394.187 0 256 0zm0 492c-45.285 0-93.418-13.363-128.758-35.746a9.996 9.996 0 0 0-8.515-1.04l-92.915 30.974 30.973-92.915a9.987 9.987 0 0 0-1.039-8.515C33.363 349.422 20 301.285 20 256 20 128.074 128.074 20 256 20s236 108.074 236 236-108.074 236-236 236zm0 0"/><path style="opacity:1;fill:#28b5f5;fill-opacity:1;fill-rule:evenodd;stroke:#28b5f5;stroke-width:4.10837221;stroke-miterlimit:4;stroke-dasharray:none;stroke-opacity:1" d="M216 375.98v-9.782l5.844-.012c6.352-.013 9.08-.808 11.39-3.32 2.993-3.255 2.88-1.02 2.867-57.104-.01-49.238-.06-51.883-1.018-53.95-1.172-2.53-3.489-4.85-5.664-5.672-.842-.317-4.205-.578-7.475-.578H216V226h59.784l.142 66.743.142 66.742 1.31 1.911c.72 1.051 2.17 2.5 3.221 3.22 1.716 1.176 2.598 1.33 8.611 1.502l6.7.192v19.45H216Z"/><path style="opacity:1;fill:#28b5f5;fill-opacity:1;fill-rule:evenodd;stroke:#28b5f5;stroke-width:5.46643543;stroke-miterlimit:4;stroke-dasharray:none;stroke-opacity:1" d="M332.136 219.36c-11.023-4.44-17.721-14.962-16.903-26.553 1.904-26.991 38.238-33.5 49.939-8.946 1.966 4.126 2.238 5.452 2.225 10.848-.012 5.199-.331 6.84-2.07 10.646-2.43 5.315-8.161 11.103-13.266 13.395-4.944 2.219-15.154 2.531-19.925.61z" transform="scale(.75)"/></svg>