<?xml version="1.0" encoding="UTF-8" standalone="no"?>
<svg
   xmlns:dc="http://purl.org/dc/elements/1.1/"
   xmlns:cc="http://creativecommons.org/ns#"
   xmlns:rdf="http://www.w3.org/1999/02/22-rdf-syntax-ns#"
   xmlns:svg="http://www.w3.org/2000/svg"
   xmlns="http://www.w3.org/2000/svg"
   xmlns:sodipodi="http://sodipodi.sourceforge.net/DTD/sodipodi-0.dtd"
   xmlns:inkscape="http://www.inkscape.org/namespaces/inkscape"
   height="512pt"
   viewBox="0 0 512.00061 512"
   width="512pt"
   version="1.1"
   id="svg12"
   sodipodi:docname="info.svg"
   inkscape:version="0.92.3 (2405546, 2018-03-11)">
  <metadata
     id="metadata18">
    <rdf:RDF>
      <cc:Work
         rdf:about="">
        <dc:format>image/svg+xml</dc:format>
        <dc:type
           rdf:resource="http://purl.org/dc/dcmitype/StillImage" />
      </cc:Work>
    </rdf:RDF>
  </metadata>
  <defs
     id="defs16" />
  <sodipodi:namedview
     pagecolor="#ffffff"
     bordercolor="#666666"
     borderopacity="1"
     objecttolerance="10"
     gridtolerance="10"
     guidetolerance="10"
     inkscape:pageopacity="0"
     inkscape:pageshadow="2"
     inkscape:window-width="1859"
     inkscape:window-height="1025"
     id="namedview14"
     showgrid="false"
     inkscape:zoom="0.48889805"
     inkscape:cx="477.2223"
     inkscape:cy="622.14705"
     inkscape:window-x="61"
     inkscape:window-y="27"
     inkscape:window-maximized="1"
     inkscape:current-layer="svg12" />
  <path
     d="m412 136c0 5.519531 4.480469 10 10 10s10-4.480469 10-10-4.480469-10-10-10-10 4.480469-10 10zm0 0"
     id="path2"
     style="fill:#fb0000;fill-opacity:1" />
  <path
     d="m452 256c0 12.808594-1.285156 25.59375-3.816406 38-1.105469 5.410156 2.386718 10.691406 7.796875 11.796875.675781.140625 1.347656.207031 2.011719.207031 4.652343 0 8.820312-3.269531 9.789062-8.003906 2.800781-13.722656 4.21875-27.851562 4.21875-42 0-31.488281-6.828125-61.789062-20.300781-90.0625-2.375-4.984375-8.339844-7.101562-13.328125-4.726562-4.988282 2.375-7.101563 8.34375-4.726563 13.332031 12.179688 25.5625 18.355469 52.96875 18.355469 81.457031zm0 0"
     id="path4"
     style="fill:#fb0000;fill-opacity:1" />
  <path
     d="m306 346h-10v-130c0-5.523438-4.476562-10-10-10h-80c-5.523438 0-10 4.476562-10 10v40c0 5.523438 4.476562 10 10 10h10v80h-10c-5.523438 0-10 4.476562-10 10v40c0 5.523438 4.476562 10 10 10h100c5.523438 0 10-4.476562 10-10v-40c0-5.523438-4.476562-10-10-10zm-10 40h-80v-20h10c5.523438 0 10-4.476562 10-10v-100c0-5.523438-4.476562-10-10-10h-10v-20h60v130c0 5.523438 4.480469 10 10 10h10zm0 0"
     id="path6"
     style="fill:#28b5f5;fill-opacity:1" />
  <path
     d="m256 186c22.054688 0 40-17.945312 40-40s-17.945312-40-40-40-40 17.945312-40 40 17.945312 40 40 40zm0-60c11.027344 0 20 8.972656 20 20s-8.972656 20-20 20-20-8.972656-20-20 8.972656-20 20-20zm0 0"
     id="path8"
     style="fill:#28b5f5;fill-opacity:1" />
  <path
     d="m256 0c-137.976562 0-256 117.800781-256 256 0 47.207031 13.527344 97.410156 36.335938 135.382812l-35.824219 107.457032c-1.195313 3.589844-.261719 7.554687 2.417969 10.230468 2.691406 2.691407 6.660156 3.609376 10.234374 2.414063l107.457032-35.820313c37.96875 22.8125 88.171875 36.335938 135.378906 36.335938 138.011719 0 256-117.816406 256-256 0-138.011719-117.8125-256-256-256zm0 492c-45.285156 0-93.417969-13.363281-128.757812-35.746094-2.503907-1.585937-5.625-2.003906-8.515626-1.039062l-92.914062 30.972656 30.972656-92.914062c.953125-2.851563.570313-5.976563-1.039062-8.515626-22.382813-35.335937-35.746094-83.472656-35.746094-128.757812 0-127.925781 108.074219-236 236-236s236 108.074219 236 236-108.074219 236-236 236zm0 0"
     id="path10" />
  <path
     style="opacity:1;fill:#28b5f5;fill-opacity:1;fill-rule:evenodd;stroke:#28b5f5;stroke-width:4.10837221;stroke-miterlimit:4;stroke-dasharray:none;stroke-opacity:1"
     d="m 216,375.97911 v -9.78125 l 5.84375,-0.012 c 6.35232,-0.013 9.07943,-0.80791 11.38974,-3.32006 2.99306,-3.25456 2.88086,-1.02052 2.86793,-57.10409 -0.0113,-49.23782 -0.0613,-51.8831 -1.01866,-53.95013 -1.17176,-2.52995 -3.48832,-4.84946 -5.66395,-5.67116 -0.84166,-0.31789 -4.20521,-0.57798 -7.47455,-0.57798 H 216 V 235.78125 226 h 29.89189 29.89189 l 0.14225,66.74259 0.14224,66.7426 1.30999,1.91098 c 0.7205,1.05104 2.17002,2.50026 3.22116,3.22049 1.7154,1.17536 2.59751,1.32914 8.61079,1.50123 l 6.69962,0.19172 v 9.72538 9.72536 H 255.95491 216 Z"
     id="path838"
     inkscape:connector-curvature="0" />
  <path
     style="opacity:1;fill:#28b5f5;fill-opacity:1;fill-rule:evenodd;stroke:#28b5f5;stroke-width:5.46643543;stroke-miterlimit:4;stroke-dasharray:none;stroke-opacity:1"
     d="m 332.13555,219.35965 c -11.02261,-4.43943 -17.72102,-14.96191 -16.903,-26.55282 1.90488,-26.99102 38.23799,-33.49951 49.93896,-8.94576 1.96631,4.1262 2.23828,5.45166 2.22578,10.84746 -0.0121,5.19909 -0.33132,6.84072 -2.0706,10.64668 -2.42899,5.31527 -8.16102,11.1028 -13.26603,13.39451 -4.94338,2.21916 -15.15356,2.5317 -19.92511,0.60993 z"
     id="path840"
     inkscape:connector-curvature="0"
     transform="matrix(0.75000087,0,0,0.75000087,0,-3.05e-4)" />
</svg>
