<svg xmlns="http://www.w3.org/2000/svg" width="512" height="512" viewBox="0 0 135.467 135.467"><path style="fill:#fb0000;fill-opacity:1" d="M40 165V68.284l137 137L205.284 177l-137-137H165V0H0v165z" transform="matrix(-.26458 0 0 -.26458 54.315 54.315)"/><path d="M54.315 81.152H10.658v10.583h25.59L0 127.983l7.483 7.484 36.248-36.248v25.59h10.584zM91.735 36.248v-25.59H81.152v43.657h43.656V43.73h-25.59l36.249-36.248L127.983 0z"/><path style="fill:#fb0000;fill-opacity:1" d="M347 472v40h165V347h-40v96.716l-137-137L306.716 335l137 137z" transform="matrix(-.26458 0 0 -.26458 216.619 216.619)"/></svg>