<?xml version="1.0" encoding="UTF-8" standalone="no"?>
<!-- Created with Inkscape (http://www.inkscape.org/) -->

<svg
   xmlns:dc="http://purl.org/dc/elements/1.1/"
   xmlns:cc="http://creativecommons.org/ns#"
   xmlns:rdf="http://www.w3.org/1999/02/22-rdf-syntax-ns#"
   xmlns:svg="http://www.w3.org/2000/svg"
   xmlns="http://www.w3.org/2000/svg"
   xmlns:sodipodi="http://sodipodi.sourceforge.net/DTD/sodipodi-0.dtd"
   xmlns:inkscape="http://www.inkscape.org/namespaces/inkscape"
   width="50.513939mm"
   height="50.647575mm"
   viewBox="0 0 50.513939 50.647577"
   version="1.1"
   id="svg8"
   inkscape:version="0.92.3 (2405546, 2018-03-11)"
   sodipodi:docname="drawing.svg">
  <defs
     id="defs2" />
  <sodipodi:namedview
     id="base"
     pagecolor="#ffffff"
     bordercolor="#666666"
     borderopacity="1.0"
     inkscape:pageopacity="0.0"
     inkscape:pageshadow="2"
     inkscape:zoom="2.8"
     inkscape:cx="155.93682"
     inkscape:cy="104.50875"
     inkscape:document-units="mm"
     inkscape:current-layer="layer1"
     showgrid="false"
     inkscape:window-width="1859"
     inkscape:window-height="1025"
     inkscape:window-x="61"
     inkscape:window-y="27"
     inkscape:window-maximized="1" />
  <metadata
     id="metadata5">
    <rdf:RDF>
      <cc:Work
         rdf:about="">
        <dc:format>image/svg+xml</dc:format>
        <dc:type
           rdf:resource="http://purl.org/dc/dcmitype/StillImage" />
        <dc:title></dc:title>
      </cc:Work>
    </rdf:RDF>
  </metadata>
  <g
     inkscape:label="Layer 1"
     inkscape:groupmode="layer"
     id="layer1"
     transform="translate(169.78447,-9.5230045)">
    <rect
       style="fill:none;fill-opacity:1;fill-rule:evenodd;stroke:none;stroke-width:1;stroke-miterlimit:4;stroke-dasharray:none;stroke-opacity:1"
       id="rect2097"
       width="50.513939"
       height="50.647575"
       x="-169.78447"
       y="9.5230045" />
    <g
       id="g2118"
       transform="matrix(0.23532903,0,0,0.23532903,-144.55937,1.6655353)">
      <path
         inkscape:connector-curvature="0"
         id="path2095"
         d="m -66.126921,231.21822 c -1.28307,-0.65876 -11.761643,-11.21954 -12.324803,-12.4215 -1.09012,-2.32661 -0.28379,-5.15157 2.0849,-7.30447 0.68424,-0.62189 4.696873,-4.47805 8.916983,-8.56925 4.2201,-4.0912 15.05479,-14.565 24.07708,-23.27511 9.02229,-8.71012 17.23877,-16.6494 18.25883,-17.64285 l 1.85466,-1.80629 5.1568,5.86051 c 8.6880497,9.87365 10.5807467,12.07806 10.5807467,12.32329 0,0.12977 -1.041787,1.23267 -2.315097,2.4509 -1.2733097,1.21823 -5.7688097,5.6149 -9.9900097,9.77037 -4.2212,4.15547 -11.18636,11.01219 -15.47813,15.23716 -4.29177,4.22496 -11.64865,11.46612 -16.34863,16.09145 -9.17442,9.0287 -10.02704,9.6904 -12.48896,9.69237 -0.65484,5.3e-4 -1.54781,-0.18244 -1.98437,-0.40658 z"
         style="fill:#28b5f5;fill-opacity:1;stroke-width:0.26458332" />
      <path
         inkscape:connector-curvature="0"
         id="path2093"
         d="m 58.391176,229.22093 c -0.49191,-0.14892 -1.18942,-0.46406 -1.55,-0.70033 -0.36059,-0.23626 -4.8992,-5.25586 -10.08581,-11.15466 -5.18662,-5.89879 -20.36883,-23.17048 -33.73825,-38.38152 -13.36942034,-15.21105 -28.966607,-32.94592 -34.660417,-39.41083 -5.6938,-6.46492 -10.55995,-12.06085 -10.81365,-12.43542 -0.50727,-0.74893 -0.61335,-2.42255 -0.20225,-3.19071 0.30096,-0.56234 15.71111,-14.04462 16.58728,-14.51214 1.11246,-0.59361 2.15134,-0.37514 3.25157,0.68381 0.56698,0.5457 5.4736967,6.17262 10.9038167,12.50427 12.5125603,14.58995 22.1380203,25.78248 59.4823103,69.16635 9.24058,10.73503 17.09682,20.00956 17.45834,20.61008 0.50438,0.83785 0.65825,1.46269 0.66145,2.68604 0.007,2.58824 -0.43639,3.1534 -6.49835,8.2873 -2.97205,2.51705 -5.88962,4.86806 -6.48349,5.22446 -1.25343,0.75223 -3.03572,1.00983 -4.31255,0.6233 z"
         style="fill:#000000;stroke-width:0.26458332" />
      <path
         inkscape:connector-curvature="0"
         id="path2091"
         d="m 22.788606,130.80137 -7.09132,-8.23578 1.83625,-1.89068 c 7.19559,-7.40889 13.91416,-14.57345 14.92298,-15.9136 2.39167,-3.17718 3.62534,-5.926886 4.51085,-10.054164 0.39696,-1.85022 0.56578,-4.200318 0.75705,-10.538343 0.13539,-4.486402 0.31786,-8.594058 0.4055,-9.128125 0.55293,-3.369487 1.06676,-5.410432 1.73301,-6.883497 3.179,-7.028736 12.21879,-13.919165 26.94272,-20.536633 2.83608,-1.274635 4.24927,-1.491259 5.2331,-0.802163 0.68171,0.47749 1.24618,2.043485 1.037,2.876926 -0.0829,0.330378 -1.28156,2.524631 -2.66366,4.876119 -4.35365,7.407293 -8.55208,15.20005 -9.15067,16.984675 -1.28004,3.816279 -0.16761,7.225586 3.58505,10.987299 5.50415,5.517417 11.56732,7.968051 16.28535,6.582264 3.42047,-1.004662 5.86248,-3.28568 9.03724,-8.441438 3.75144,-6.092293 9.5295,-14.886627 10.386744,-15.808854 1.1041,-1.187788 2.00438,-1.288505 2.89805,-0.324215 1.35909,1.466482 1.86464,6.447536 1.65082,16.265361 -0.33884,15.558983 -2.8664,23.216238 -9.871764,29.906618 -6.37237,6.08584 -14.40603,7.80589 -25.76088,5.51553 -3.75981,-0.75838 -8.0659,-0.60302 -11.49306,0.41466 -2.76567,0.82125 -6.45728,2.66201 -8.44774,4.21231 -0.77224,0.60147 -5.4163,4.90359 -10.32013,9.56025 -4.90384,4.65667 -9.00946,8.4992 -9.12362,8.53896 -0.11415,0.0398 -3.39864,-3.6338 -7.29887,-8.16348 z"
         style="fill:#28b5f5;fill-opacity:1;stroke-width:0.26458332" />
      <path
         inkscape:connector-curvature="0"
         id="path826"
         d="m -89.316814,123.8761 c -0.53068,-0.32668 -4.4251,-4.43644 -8.65425,-9.13281 -8.035856,-8.92363 -8.265886,-9.24888 -7.857176,-11.1097 0.0933,-0.42471 0.6108,-1.19127 1.15004,-1.70345 1.57116,-1.49234 8.834346,-7.122317 9.529306,-7.386538 0.34886,-0.132636 2.11445,-0.344212 3.92353,-0.470167 2.91464,-0.202928 3.48637,-0.326054 5.0201,-1.081109 2.33626,-1.150133 4.64483,-3.444264 5.66958,-5.634109 0.48558,-1.03764 1.05291,-3.023007 1.44056,-5.04122 0.35174,-1.831186 0.81495,-3.662055 1.02936,-4.068598 1.44776,-2.745086 11.817233,-10.820669 26.493403,-20.632661 12.35634,-8.261032 22.0721,-12.694015 29.79179,-13.593019 3.00636,-0.35011 32.090677,-0.231946 32.453117,0.13185 0.34228,0.343564 -0.8593103,1.077957 -3.8091603,2.328092 -10.98708,4.656285 -13.7364,5.877445 -18.0892667,8.03467 -8.1918,4.059752 -13.14071,7.282182 -17.37971,11.316628 -6.19922,5.900079 -7.82604,11.723565 -4.89633,17.527291 0.73213,1.450334 5.04763,7.325436 8.53882,11.624709 1.42808,1.758624 1.67034,2.265741 1.59685,3.342698 -0.027,0.395086 -16.61799,15.549493 -18.27944,16.696613 -1.07358,0.74123 -1.96302,0.57626 -2.91408,-0.54052 -2.184,-2.56455 -7.8844,-8.0678 -9.72634,-9.38995 -5.28389,-3.79282 -9.75184,-4.77911 -14.14461,-3.1224 -2.1414,0.80762 -5.331033,2.9645 -6.147723,4.15718 -1.02675,1.49946 -1.69108,4.05791 -1.98056,7.62757 l -0.25749,3.17499 -1.40209,1.28384 c -0.77115,0.70611 -2.6975,2.40275 -4.28078,3.77031 l -2.87868,2.48648 -1.48694,-10e-4 c -1.07634,-0.001 -1.75339,-0.16538 -2.45183,-0.59531 z"
         style="fill:#fb0000;fill-opacity:1;stroke-width:0.26458332" />
    </g>
  </g>
</svg>
