<svg xmlns="http://www.w3.org/2000/svg" width="190.919" height="191.424" viewBox="0 0 50.514 50.648"><path style="fill:none;fill-opacity:1;fill-rule:evenodd;stroke:none;stroke-width:1;stroke-miterlimit:4;stroke-dasharray:none;stroke-opacity:1" d="M-169.784 9.523h50.514v50.648h-50.514z" transform="translate(169.784 -9.523)"/><path d="M-66.127 231.218c-1.283-.659-11.762-11.22-12.325-12.421-1.09-2.327-.284-5.152 2.085-7.305.684-.622 4.697-4.478 8.917-8.569 4.22-4.091 15.055-14.565 24.077-23.275 9.023-8.71 17.239-16.65 18.26-17.643l1.854-1.806 5.157 5.86c8.688 9.874 10.58 12.078 10.58 12.324 0 .13-1.042 1.232-2.315 2.45-1.273 1.219-5.769 5.615-9.99 9.77a7698186.353 7698186.353 0 0 0-31.827 31.33c-9.174 9.028-10.027 9.69-12.489 9.692-.654 0-1.547-.183-1.984-.407z" style="fill:#102a43;fill-opacity:1;stroke-width:.26458332" transform="translate(25.225 -7.857) scale(.23533)"/><path d="M58.391 229.22c-.492-.148-1.19-.463-1.55-.7-.36-.236-4.899-5.255-10.086-11.154-5.186-5.899-20.368-23.17-33.738-38.382a72908.84 72908.84 0 0 0-34.66-39.41c-5.694-6.465-10.56-12.061-10.814-12.436-.507-.749-.613-2.422-.202-3.19.3-.563 15.71-14.045 16.587-14.513 1.113-.593 2.151-.375 3.252.684.567.546 5.473 6.173 10.903 12.504 12.513 14.59 22.138 25.783 59.483 69.167 9.24 10.735 17.097 20.01 17.458 20.61.504.838.658 1.463.662 2.686.007 2.588-.437 3.153-6.499 8.287-2.972 2.517-5.89 4.868-6.483 5.225-1.254.752-3.036 1.01-4.313.623z" style="fill:#38bec9;stroke-width:.26458332;fill-opacity:1" transform="translate(25.225 -7.857) scale(.23533)"/><path d="m22.789 130.801-7.092-8.235 1.837-1.891c7.195-7.409 13.914-14.574 14.923-15.914 2.391-3.177 3.625-5.927 4.51-10.054.397-1.85.566-4.2.757-10.538.136-4.487.318-8.594.406-9.128.553-3.37 1.067-5.41 1.733-6.884 3.179-7.029 12.219-13.919 26.943-20.536 2.836-1.275 4.249-1.492 5.233-.803.681.478 1.246 2.044 1.037 2.877-.083.33-1.282 2.525-2.664 4.876-4.354 7.408-8.552 15.2-9.15 16.985-1.28 3.816-.168 7.226 3.584 10.987 5.505 5.518 11.568 7.968 16.286 6.583 3.42-1.005 5.862-3.286 9.037-8.442 3.751-6.092 9.53-14.886 10.387-15.809 1.104-1.187 2.004-1.288 2.898-.324 1.359 1.467 1.864 6.448 1.65 16.266-.338 15.559-2.866 23.216-9.871 29.906-6.372 6.086-14.406 7.806-25.761 5.516-3.76-.759-8.066-.603-11.493.414-2.766.822-6.457 2.662-8.448 4.213-.772.601-5.416 4.903-10.32 9.56-4.904 4.657-9.01 8.5-9.124 8.539-.114.04-3.398-3.634-7.298-8.164z" style="fill:#102a43;fill-opacity:1;stroke-width:.26458332" transform="translate(25.225 -7.857) scale(.23533)"/><path d="M-89.317 123.876c-.53-.327-4.425-4.436-8.654-9.133-8.036-8.923-8.266-9.249-7.857-11.11.093-.424.61-1.19 1.15-1.703 1.571-1.492 8.834-7.122 9.53-7.386.348-.133 2.114-.345 3.923-.47 2.914-.203 3.486-.327 5.02-1.082 2.336-1.15 4.645-3.444 5.67-5.634.485-1.037 1.052-3.023 1.44-5.041.352-1.831.815-3.662 1.03-4.069 1.447-2.745 11.816-10.82 26.493-20.632 12.356-8.261 22.072-12.694 29.791-13.593 3.007-.35 32.091-.232 32.454.132.342.343-.86 1.078-3.81 2.328-10.987 4.656-13.736 5.877-18.089 8.034-8.192 4.06-13.14 7.283-17.38 11.317-6.199 5.9-7.826 11.724-4.896 17.527.732 1.45 5.048 7.326 8.539 11.625 1.428 1.759 1.67 2.266 1.597 3.343-.027.395-16.618 15.55-18.28 16.696-1.073.742-1.963.577-2.914-.54-2.184-2.565-7.884-8.068-9.726-9.39-5.284-3.793-9.752-4.78-14.145-3.123-2.141.808-5.33 2.965-6.147 4.158-1.027 1.499-1.692 4.057-1.981 7.627l-.257 3.175-1.403 1.284c-.77.706-2.697 2.403-4.28 3.77l-2.879 2.487-1.487-.001c-1.076-.001-1.753-.166-2.452-.596z" style="fill:#38bec9;fill-opacity:1;stroke-width:.26458332" transform="translate(25.225 -7.857) scale(.23533)"/></svg>