<svg xmlns="http://www.w3.org/2000/svg" width="50mm" height="50mm" viewBox="0 0 50 50"><path style="fill:#486581;fill-opacity:1;stroke-width:.26458332" d="M176.978 168.955c-5.02-2.104-15.38-6.434-23.02-9.621-7.639-3.187-19.783-8.256-26.987-11.265-14.9-6.223-18.21-7.603-22.49-9.377a188.56 188.56 0 0 1-4.497-1.925c-1.411-.644-1.435-.672-.794-.94 1.604-.67 12.158-4.947 22.748-9.22l11.502-4.64 1.462.59c.804.324 3.248 1.337 5.43 2.252 2.184.915 9.863 4.12 17.066 7.123l20.109 8.382c3.856 1.608 7.537 3.15 8.179 3.429l1.168.505 2.536-1.229c2.583-1.251 26.288-12.635 32.302-15.512 1.82-.87 6.284-3.017 9.922-4.77 3.638-1.752 7.669-3.69 8.957-4.305l2.341-1.119 5.993 2.047c3.296 1.126 11.023 3.757 17.171 5.848 6.148 2.09 11.179 3.874 11.179 3.964 0 .09-1.816 1.036-4.035 2.102a41930.8 41930.8 0 0 1-24.673 11.842 4854.75 4854.75 0 0 0-10.583 5.092 1466.84 1466.84 0 0 1-6.978 3.35 2869.771 2869.771 0 0 0-12.204 5.845c-2.11 1.015-6.635 3.187-10.054 4.827-3.42 1.64-9.778 4.692-14.128 6.783-4.35 2.09-8.042 3.794-8.202 3.785-.16-.009-4.4-1.738-9.42-3.843z" transform="matrix(.27956 0 0 .31526 -27.491 -17.064)"/><path style="fill:#bcccdc;fill-opacity:1;stroke-width:.26458332" d="M182.534 210.916c-3.562-1.522-42.482-17.795-45.244-18.918-.8-.325-4.789-1.99-8.863-3.701-4.075-1.711-8.361-3.5-9.525-3.974-2.614-1.066-8.363-3.473-9.79-4.098a555.64 555.64 0 0 0-5.755-2.404c-2.583-1.067-4.695-2.005-4.694-2.084.002-.08 2.294-1.059 5.094-2.177 2.8-1.117 9.63-3.876 15.18-6.13 5.549-2.253 10.668-4.3 11.377-4.55l1.288-.452 7.408 3.113c4.075 1.712 8.063 3.38 8.863 3.708.8.328 2.944 1.218 4.763 1.979a18580.67 18580.67 0 0 1 19.182 8 9331.724 9331.724 0 0 0 13.115 5.467l2.002.828 5.538-2.677c6.935-3.353 11.333-5.47 15.064-7.255 1.6-.765 4.696-2.253 6.88-3.307 2.182-1.053 5.278-2.539 6.878-3.301 1.601-.763 7.554-3.625 13.23-6.36l10.318-4.973 8.335 2.804c16.237 5.462 24.077 8.192 24.077 8.384 0 .107-.863.59-1.919 1.075a548.22 548.22 0 0 0-6.283 2.98 1748.74 1748.74 0 0 1-6.747 3.23c-1.31.62-4.227 2.02-6.483 3.109-2.255 1.089-8.625 4.151-14.155 6.805a9594.774 9594.774 0 0 0-28.415 13.671c-3.114 1.507-5.692 2.74-5.73 2.74-.037 0-2.312 1.084-5.054 2.41-10.089 4.874-15.966 7.643-16.162 7.614-.11-.017-1.809-.717-3.773-1.556z" transform="matrix(.27956 0 0 .31526 -27.491 -17.064)"/><path style="fill:#102a43;fill-opacity:1;stroke-width:.26458332" d="M181.211 129.436a4163.854 4163.854 0 0 0-13.494-5.655c-4.73-1.973-11.635-4.859-15.346-6.413a2263.15 2263.15 0 0 0-9.79-4.079c-1.673-.688-6.673-2.769-11.112-4.624a18205.27 18205.27 0 0 0-11.112-4.64c-1.674-.697-5.603-2.338-8.731-3.647l-9.34-3.906c-2.007-.84-3.554-1.62-3.439-1.732.116-.114 2.354-1.113 4.973-2.22 2.62-1.11 5.834-2.475 7.144-3.037 4.17-1.788 25.519-10.892 37.57-16.02 6.404-2.725 18.58-7.917 27.06-11.539 8.48-3.621 15.64-6.584 15.91-6.584.27 0 3.334 1.078 6.807 2.396 3.474 1.318 8.637 3.276 11.475 4.351 2.838 1.076 7.243 2.75 9.79 3.72 2.546.97 9.75 3.703 16.007 6.075 24.536 9.299 33.239 12.6 37.273 14.136 2.31.88 4.245 1.6 4.3 1.6.054 0 .099.101.099.224s-1.34.858-2.977 1.635c-1.637.776-5.06 2.416-7.607 3.643a3021.092 3021.092 0 0 1-10.054 4.818 2147.804 2147.804 0 0 0-9.922 4.763 6755.521 6755.521 0 0 1-16.933 8.137c-6.84 3.277-14.162 6.79-16.272 7.807-4.89 2.356-9.865 4.736-12.568 6.013-1.164.55-4.84 2.324-8.168 3.941-3.328 1.617-6.186 2.933-6.35 2.923-.164-.01-2.5-.949-5.193-2.086z" transform="matrix(.27956 0 0 .31526 -27.491 -17.064)"/></svg>