<svg xmlns="http://www.w3.org/2000/svg" width="430.706" height="459.919" viewBox="0 0 113.958 121.687"><path style="fill:#fff;stroke-width:.26458332" d="M81.747 178.098c-.122-.327-.912-2.5-1.754-4.829-.842-2.328-1.55-4.26-1.573-4.294-.023-.033-1.463-.185-3.2-.337-2.588-.227-5.984-.81-10.334-1.775-.463-.103-1.126.593-3.812 4.002l-3.252 4.127-5.977-3.075c-3.288-1.691-6.026-3.119-6.084-3.173-.059-.053.507-2.237 1.257-4.853.75-2.615 1.363-4.924 1.363-5.13 0-.207-.625-.859-1.39-1.449-1.418-1.096-5.972-5.655-7.618-7.627l-.914-1.095-5.021 1.418c-2.762.78-5.099 1.333-5.194 1.228-.302-.337-6.12-11.991-6.02-12.062.313-.223 7.81-6.098 8-6.27.132-.12-.006-1.11-.317-2.28-.734-2.757-1.306-6.272-1.522-9.352l-.176-2.52-2.813-1.028c-6.35-2.323-6.913-2.569-6.919-3.017-.003-.242.434-3.255.972-6.696l.977-6.257.947-.156c.52-.087 2.209-.158 3.752-.16 1.543-.002 3.514-.077 4.38-.167l1.573-.165.617-1.621c.947-2.493 3.079-6.735 4.48-8.916l1.265-1.966-2.864-4.294c-1.575-2.361-2.864-4.387-2.864-4.5 0-.114 2.141-2.346 4.759-4.96l4.758-4.753 4.388 2.983 4.389 2.983 2.09-1.34c2.336-1.499 6.706-3.698 9.039-4.548l1.533-.56.033-1.618c.018-.89.107-3.28.198-5.31l.166-3.693 6.35-.996c3.493-.548 6.532-1 6.755-1.004.327-.006.751 2.04 2.221 10.714.999 5.896 1.77 10.765 1.712 10.819-.057.054-1.652.23-3.544.391-5.569.475-9.307 1.464-14.052 3.717-4.261 2.024-7.012 3.998-10.704 7.68-5.88 5.865-9.104 11.836-10.858 20.117-.786 3.708-.845 10.533-.124 14.287 1.485 7.734 4.963 14.494 10.312 20.048 3.258 3.383 6.237 5.652 9.922 7.557 17.323 8.958 37.996 4.272 49.579-11.238 1.804-2.417 3.879-6.108 4.834-8.602l.725-1.894 5.583 1.933c4.755 1.646 5.57 2.005 5.497 2.422-.296 1.69-3.234 7.548-5.768 11.502-.443.692-.44.7 2.504 5.027l2.949 4.334-4.863 4.864-4.862 4.864-4.347-2.959-4.346-2.959-2.364 1.49c-2.518 1.587-6.172 3.43-8.615 4.343-1.375.514-1.5.631-1.65 1.542-.09.542-.176 2.355-.19 4.029-.014 1.673-.105 3.636-.201 4.362l-.175 1.32-6.218.98c-3.42.54-6.43.988-6.687.996-.259.008-.57-.253-.693-.58zm-9.156-53.114-1.038-1.064 1.52-1.536 1.52-1.536-.533-1.174c-.723-1.594-.694-3.484.078-5.144 1.537-3.3 5.424-4.666 8.641-3.036l.93.47 8.316-7.645c4.575-4.206 8.399-7.646 8.498-7.646.1 0 .313.159.475.354.23.278-1.38 2.2-7.478 8.925-6.992 7.711-7.749 8.634-7.538 9.188.31.818.295 2.866-.03 4.04-.312 1.12-1.866 3.014-2.924 3.561a6.65 6.65 0 0 1-4.75.544l-1.454-.386-1.598 1.574-1.597 1.574zm44.846-7.674c-.826-.826-.733-2.711.168-3.42.662-.52 1.023-.549 7.085-.549 7.107 0 7.403.065 7.709 1.696.186.992-.379 2.368-1.083 2.638-.236.09-3.336.164-6.889.164-6.108 0-6.49-.029-6.99-.529zm-4.498-21.245c-.364-.182-.887-.75-1.164-1.264-.871-1.616-.471-2.012 5.628-5.569 3.551-2.07 5.654-3.143 6.164-3.143 1.551 0 2.682 2.278 1.742 3.506-.354.462-10.293 6.363-11.18 6.638-.29.09-.826.014-1.19-.168zM96.78 79.23c-.425-.425-.773-.997-.773-1.272 0-.274 1.44-3.029 3.198-6.121 3.32-5.835 3.734-6.317 5.129-5.967.339.086.865.387 1.169.67 1.196 1.114 1.086 1.477-2.204 7.247-1.698 2.978-3.268 5.595-3.489 5.815-.684.685-2.154.504-3.03-.372z" transform="translate(-18.477 -56.993)"/></svg>