<?xml version="1.0" encoding="UTF-8" standalone="no"?>
<!-- Created with Inkscape (http://www.inkscape.org/) -->

<svg
   xmlns:dc="http://purl.org/dc/elements/1.1/"
   xmlns:cc="http://creativecommons.org/ns#"
   xmlns:rdf="http://www.w3.org/1999/02/22-rdf-syntax-ns#"
   xmlns:svg="http://www.w3.org/2000/svg"
   xmlns="http://www.w3.org/2000/svg"
   xmlns:sodipodi="http://sodipodi.sourceforge.net/DTD/sodipodi-0.dtd"
   xmlns:inkscape="http://www.inkscape.org/namespaces/inkscape"
   width="113.95776mm"
   height="121.68686mm"
   viewBox="0 0 113.95776 121.68686"
   version="1.1"
   id="svg8"
   inkscape:version="0.92.3 (2405546, 2018-03-11)"
   sodipodi:docname="clock.svg">
  <defs
     id="defs2" />
  <sodipodi:namedview
     id="base"
     pagecolor="#ffffff"
     bordercolor="#666666"
     borderopacity="1.0"
     inkscape:pageopacity="0.0"
     inkscape:pageshadow="2"
     inkscape:zoom="0.35"
     inkscape:cx="-168.40617"
     inkscape:cy="112.80429"
     inkscape:document-units="mm"
     inkscape:current-layer="layer1"
     showgrid="false"
     inkscape:window-width="1859"
     inkscape:window-height="1025"
     inkscape:window-x="61"
     inkscape:window-y="27"
     inkscape:window-maximized="1" />
  <metadata
     id="metadata5">
    <rdf:RDF>
      <cc:Work
         rdf:about="">
        <dc:format>image/svg+xml</dc:format>
        <dc:type
           rdf:resource="http://purl.org/dc/dcmitype/StillImage" />
        <dc:title></dc:title>
      </cc:Work>
    </rdf:RDF>
  </metadata>
  <g
     inkscape:label="Layer 1"
     inkscape:groupmode="layer"
     id="layer1"
     transform="translate(-18.477108,-56.992606)">
    <path
       style="fill:#ffffff;stroke-width:0.26458332"
       d="m 81.747293,178.09815 c -0.12245,-0.32742 -0.91183,-2.50031 -1.75419,-4.82865 -0.84235,-2.32833 -1.55038,-4.26066 -1.57338,-4.29406 -0.023,-0.0334 -1.46309,-0.18529 -3.2002,-0.33753 -2.58795,-0.22682 -5.98323,-0.80995 -10.33364,-1.7748 -0.46324,-0.10274 -1.12574,0.59277 -3.81209,4.00207 l -3.25142,4.12642 -5.97748,-3.07472 c -3.28762,-1.6911 -6.02542,-3.11869 -6.084,-3.17243 -0.0586,-0.0537 0.50696,-2.23766 1.25677,-4.85316 0.74981,-2.61549 1.36329,-4.92441 1.36329,-5.13092 0,-0.20651 -0.62508,-0.85825 -1.38906,-1.44831 -1.41884,-1.09584 -5.97288,-5.65484 -7.61892,-7.62723 l -0.9139,-1.09509 -5.02125,1.41842 c -2.76169,0.78013 -5.0987,1.33245 -5.19334,1.22738 -0.30297,-0.33633 -6.12062,-11.99095 -6.0209,-12.0618 0.31381,-0.22295 7.81023,-6.09725 8.00134,-6.26996 0.13151,-0.11885 -0.007,-1.10897 -0.31835,-2.27949 -0.73402,-2.75751 -1.30588,-6.27274 -1.52135,-9.35186 l -0.17634,-2.51999 -2.8124,-1.0288 c -6.35063,-2.32311 -6.91334,-2.5684 -6.91936,-3.01636 -0.003,-0.24192 0.43391,-3.25533 0.97147,-6.69647 l 0.97738,-6.2566 0.94676,-0.15663 c 0.52072,-0.0861 2.20922,-0.15794 3.75222,-0.15954 1.543,-0.002 3.51376,-0.0769 4.37947,-0.16742 l 1.57401,-0.16452 0.61619,-1.621422 c 0.94726,-2.492555 3.07928,-6.734313 4.48119,-8.915519 l 1.26379,-1.96632 -2.8637,-4.293692 c -1.57504,-2.361534 -2.8637,-4.386837 -2.8637,-4.500674 0,-0.113839 2.14128,-2.345785 4.75841,-4.959881 l 4.75841,-4.752902 4.38826,2.983298 4.38827,2.983298 2.09009,-1.340735 c 2.3361,-1.498548 6.7067,-3.697668 9.03887,-4.54802 l 1.53394,-0.559303 0.0323,-1.618194 c 0.0178,-0.890007 0.10705,-3.279676 0.19844,-5.310377 l 0.16615,-3.692184 6.35,-0.996683 c 3.4925,-0.548175 6.53209,-1.000052 6.75464,-1.00417 0.32737,-0.0061 0.75146,2.039683 2.22102,10.714023 0.99901,5.896831 1.76943,10.765486 1.71203,10.819231 -0.0574,0.05374 -1.65217,0.229772 -3.54394,0.391168 -5.5686,0.475083 -9.30754,1.46418 -14.05177,3.717245 -4.26177,2.023943 -7.01271,3.997478 -10.70451,7.679454 -5.88042,5.864764 -9.1034,11.836239 -10.85785,20.117219 -0.78554,3.70769 -0.84462,10.53326 -0.12369,14.2875 1.48505,7.73339 4.9623,14.49382 10.31158,20.04763 3.25815,3.38273 6.23738,5.65187 9.92211,7.55722 17.32353,8.95786 37.99562,4.27182 49.578807,-11.23875 1.80458,-2.41644 3.87879,-6.10708 4.83449,-8.602 l 0.72521,-1.89319 5.58281,1.93262 c 4.75464,1.64593 5.57007,2.00527 5.49696,2.42236 -0.29619,1.68958 -3.23391,7.54717 -5.76821,11.50137 -0.44342,0.69185 -0.43969,0.69934 2.50441,5.02708 l 2.94848,4.3342 -4.8626,4.86387 -4.8626,4.86386 -4.34641,-2.95864 -4.34641,-2.95863 -2.36436,1.49026 c -2.51737,1.58671 -6.17141,3.42855 -8.614647,4.34225 -1.37472,0.51411 -1.50016,0.63129 -1.65073,1.54213 -0.0896,0.54215 -0.17469,2.35495 -0.18904,4.02844 -0.0143,1.67349 -0.10496,3.63645 -0.20136,4.36213 l -0.17525,1.31941 -6.21771,0.98152 c -3.41974,0.53984 -6.42902,0.98789 -6.68728,0.99569 -0.25826,0.008 -0.56975,-0.25372 -0.69221,-0.58114 z m -9.15642,-53.11454 -1.03812,-1.06314 1.52009,-1.53612 1.52009,-1.53612 -0.53247,-1.17374 c -0.72347,-1.59474 -0.6948,-3.48484 0.078,-5.14441 1.53675,-3.30004 5.42379,-4.6658 8.64094,-3.0361 l 0.92868,0.47044 8.3174,-7.64589 c 4.57457,-4.20525 8.398567,-7.6459 8.497767,-7.6459 0.0992,0 0.31268,0.159404 0.47437,0.354232 0.23066,0.277929 -1.380077,2.200464 -7.478087,8.925598 -6.99175,7.71081 -7.74853,8.63328 -7.53763,9.18799 0.31098,0.81793 0.29548,2.86537 -0.0306,4.03905 -0.31147,1.12122 -1.86546,3.01444 -2.92333,3.56148 -1.48121,0.76597 -3.17696,0.96013 -4.74917,0.54378 l -1.45521,-0.38536 -1.59732,1.57368 -1.59733,1.57367 z m 44.846317,-7.67348 c -0.8262,-0.82621 -0.73363,-2.71117 0.16798,-3.42038 0.66155,-0.52038 1.0232,-0.54837 7.08488,-0.54837 7.10731,0 7.40313,0.065 7.70896,1.69525 0.1861,0.99203 -0.37877,2.36805 -1.08304,2.63831 -0.23557,0.0904 -3.3356,0.16436 -6.88896,0.16436 -6.10787,0 -6.48954,-0.0289 -6.98982,-0.52917 z m -4.49791,-21.244922 c -0.3638,-0.182192 -0.88775,-0.751049 -1.16432,-1.264126 -0.87117,-1.616131 -0.47143,-2.011654 5.62802,-5.568659 3.5513,-2.071002 5.65391,-3.143125 6.1642,-3.143125 1.55095,0 2.68224,2.277416 1.74137,3.505575 -0.35377,0.461791 -10.2923,6.363105 -11.17865,6.637671 -0.29104,0.09016 -0.82682,0.01487 -1.19062,-0.167336 z M 96.779343,79.230483 c -0.42537,-0.425368 -0.77339,-0.997945 -0.77339,-1.272392 0,-0.274449 1.43928,-3.028998 3.19841,-6.121221 3.319547,-5.835145 3.733337,-6.316589 5.128177,-5.966508 0.33932,0.08516 0.8654,0.38631 1.16905,0.669213 1.19628,1.114496 1.08604,1.476979 -2.20398,7.24722 -1.69787,2.977838 -3.26768,5.594887 -3.488457,5.815668 -0.68416,0.684165 -2.15414,0.50369 -3.02981,-0.37198 z"
       id="path826"
       inkscape:connector-curvature="0" />
  </g>
</svg>
