<svg xmlns="http://www.w3.org/2000/svg" width="568.128" height="473.232" viewBox="0 0 150.317 125.209"><path style="fill:#fff;stroke-width:1.44390333" d="M-9.982-.108c-3.631-2.299-8.742-4.75-11.357-5.447-5.322-1.418-5.211-4.08.193-4.64 2.174-.226 6.645 1.52 11.612 4.533 4.443 2.695 9.69 4.9 11.661 4.9 1.97 0 6.951-2.176 11.068-4.836 10.385-6.709 19.324-6.2 29.853 1.699 2.3 1.725 5.85 3.136 7.892 3.136 2.04 0 5.592-1.411 7.892-3.136C69.36-11.8 78.3-12.307 88.685-5.598 92.8-2.938 97.782-.763 99.752-.763c7.977-1.931 18.624-8.565 20.703-10.02 4.912-2.123 5.447 3.025 3.658 4.618-1.97 0-6.698 2.743-11.082 5.402-11.268 6.836-17.395 6.436-29.307-1.913-5.91-4.142-10.579-3.647-19.406 2.056-7.006 4.525-8.334 4.918-14.643 4.325-4.853-.457-8.837-1.952-13.258-4.978-7.647-5.233-12.615-5.458-18.776-.85C7.63 5.365-.413 5.951-9.982-.108Z" transform="translate(25.266 11.29)"/><path style="fill:#fff;stroke-width:.49429321" d="M31.98 94.422 10.845 74.923l1.968-1.332c1.083-.733 2.178-1.232 2.434-1.11.256.121 8.16 7.378 17.563 16.126l17.097 15.904.143-47.358.143-47.359h5.621l.143 47.359.144 47.358 17.097-15.904c9.403-8.748 17.314-16.008 17.58-16.135.264-.126 1.35.413 2.412 1.199l1.931 1.427L74.118 94.51l-21.005 19.41z" transform="translate(25.266 11.29)"/></svg>