<svg xmlns="http://www.w3.org/2000/svg" width="393.362" height="632.731" viewBox="0 0 104.077 167.41"><path style="fill:#fff;stroke-width:.26458332" d="M-170.259 188.786c-6.623-17.536-19.81-31.692-36.864-39.57-7.508-3.468-19.445-6.373-24.916-6.064-.999.056-1.815.009-1.815-.105l21.296-20.315-5.93-5.93-29.654 29.865 29.767 29.51 5.813-5.559-18.635-18.876c.217-.206 5.342.562 8.539 1.279 8.558 1.92 16.402 5.575 23.729 11.055 2.999 2.244 8.383 7.436 10.765 10.382 7.117 8.803 11.715 19.598 13.353 31.353.507 3.639.437 12.363-.128 16.14-2.666 17.791-12.302 33.135-27.033 43.042-7.264 4.885-17.27 8.625-26.458 9.889-1.694.233-7.904.335-21.497.355l-19.116.027v8.618s13.385.171 20.147.106c8.017-.078 15.945.58 24.031-1.014 5.024-.914 9.387-2.03 12.706-3.253 3.378-1.243 10.428-4.72 13.362-6.59 15.206-9.688 26.207-24.64 30.678-41.696.842-3.211.164 2.451.415-.236 2.815-13.074 2.351-29.126-2.555-42.413zm-64.257-18.157-23.9-23.9 24.165-23.962-6.087-6.12-29.714 29.878 29.604 29.613z" transform="translate(270.052 -116.648)"/></svg>