<svg xmlns="http://www.w3.org/2000/svg" height="512" width="512"><path style="fill:#627d98;fill-opacity:1" d="M256 0H0v256l276 20z"/><path style="fill:#102a43;fill-opacity:1" d="M512 256V0H256v276z"/><path style="fill:#102a43;fill-opacity:1" d="M0 256v256h256l20-128-20-128Z"/><path style="fill:#829ab1;fill-opacity:1" d="M256 256h256v256H256Z"/><path d="M303.802 369h160.397v30H303.802Zm0-255.999h160.397v30H303.802Zm64.265 191.331h31.867v31.867h-31.867zm0 127.469h31.867v31.867h-31.867z" style="fill:#e1ebf0"/><path d="M208.199 113.001H143V47.802h-30v65.199H47.802v30H113v65.198h30v-65.198h65.199zm-12.883 224.896-21.213-21.212L128 362.787l-46.102-46.102-21.213 21.212L106.787 384l-46.102 46.103 21.213 21.212L128 405.213l46.103 46.102 21.213-21.212L149.213 384Z" style="fill:#fff5f5"/></svg>