<svg xmlns="http://www.w3.org/2000/svg" width="402.027" height="506.438" viewBox="0 0 106.37 133.995"><path style="fill:#000;stroke-width:.26458332" d="M91.168 207.99c-.218-.143-.948-.262-1.621-.264-.674-.002-1.652-.183-2.175-.4-.522-.22-1.363-.398-1.869-.398-.505 0-.992-.119-1.082-.264-.09-.146-.603-.269-1.14-.274-.537-.005-1.632-.239-2.432-.52-.8-.282-1.835-.516-2.3-.52-.464-.006-.912-.12-.995-.253-.083-.135-.532-.329-.999-.431-.801-.176-1.041-.27-2.317-.913-.289-.145-.75-.264-1.026-.264-.275 0-.648-.179-.83-.397-.18-.218-.541-.397-.801-.397s-1.05-.287-1.754-.637c-.704-.351-2.075-1-3.045-1.445-.97-.444-1.838-.927-1.93-1.075-.09-.148-.547-.45-1.015-.672-.467-.222-1.57-1.03-2.45-1.798a114.12 114.12 0 0 0-2.247-1.92c-1.28-1.034-3.69-5.146-3.69-6.295 0-.478-.123-.99-.272-1.14-.321-.321-.198-18.76.135-20.208.22-.951.86-2.12 1.159-2.112.092.003 1.343 1.134 2.78 2.514 1.436 1.38 2.775 2.509 2.976 2.509.2 0 .365.113.365.252s.417.45.926.692c.51.241.926.536.926.656 0 .119.268.301.595.405.328.104 1.012.445 1.522.758.509.313 2.295 1.144 3.968 1.845 1.674.702 3.156 1.38 3.294 1.509.139.128.565.233.949.233.383 0 .773.077.867.171.284.283 2.918 1.134 3.54 1.143.319.005.643.112.722.239.078.126.644.31 1.259.408.614.098 1.242.28 1.395.403.153.124.813.292 1.468.373.655.082 1.905.278 2.778.436 2.69.487 4.925.8 7.409 1.036 1.31.124 2.685.348 3.058.496.907.362 22.95.364 23.632.002.273-.145 1.464-.32 2.646-.389 1.182-.068 2.387-.231 2.678-.362.291-.132 1.184-.298 1.985-.371.8-.073 2.05-.252 2.778-.398a48.481 48.481 0 0 1 2.645-.44c.728-.096 1.442-.266 1.588-.377.145-.112.832-.288 1.525-.392.693-.103 1.325-.292 1.404-.421.08-.129.525-.238.99-.243.464-.005 1.075-.183 1.357-.397.283-.213.79-.388 1.128-.388.338 0 .821-.109 1.074-.242.922-.487 2.399-1.08 2.686-1.08.162 0 .5-.105.754-.232a103.28 103.28 0 0 1 2.443-1.115c1.092-.487 2.173-1.038 2.403-1.225.23-.186.616-.34.86-.34.243 0 .442-.118.442-.264 0-.145.15-.264.335-.264.185 0 .929-.418 1.654-.929.725-.51 1.735-1.21 2.244-1.554.987-.668 1.717-1.344 3.13-2.898 1.697-1.866 1.632-2.343 1.632 12.103v13.073l-1.155 1.413c-1.382 1.692-3.917 3.931-5.349 4.726-.57.317-1.274.791-1.565 1.054-.526.476-5 2.666-7.276 3.563-2.187.86-2.511.994-2.973 1.23-.253.128-.67.234-.926.235-.257 0-.802.176-1.212.39-.41.213-1.362.465-2.116.558-.755.093-1.613.32-1.907.502-.294.183-1.009.403-1.588.489l-2.508.372c-.8.119-1.633.33-1.852.467-.218.138-1.11.358-1.984.49-2.268.34-37.203.502-37.703.174zm12.59-33.01c-.167-.169-6.04-.528-9.214-.563-.545-.006-1.237-.143-1.538-.305-.301-.16-1.582-.393-2.847-.516-2.508-.244-4.683-.676-5.404-1.074-.252-.14-.93-.254-1.505-.254-.576 0-1.12-.12-1.21-.265-.09-.145-.565-.264-1.055-.264s-1.07-.179-1.289-.397c-.218-.218-.815-.397-1.326-.397-.511 0-.996-.109-1.079-.242-.082-.132-.624-.321-1.204-.42-.581-.098-1.123-.287-1.205-.42-.082-.132-.394-.241-.693-.241-.3 0-.977-.23-1.506-.51-.53-.28-1.267-.574-1.64-.653-.374-.08-.958-.387-1.298-.682-.34-.295-.868-.545-1.173-.556-.306-.01-.912-.243-1.349-.517a25.913 25.913 0 0 0-1.633-.927c-.462-.236-.905-.599-.984-.806a.624.624 0 0 0-.536-.376c-.996 0-6.204-4.649-7.178-6.407-1.086-1.96-1.443-2.846-1.443-3.583 0-.455-.119-.9-.264-.99-.362-.224-.362-19.091 0-19.315.145-.09.264-.462.264-.827 0-.723.44-1.706.9-2.013.166-.111.744.25 1.35.842a65.04 65.04 0 0 0 2.248 2.078c.655.573 1.74 1.533 2.41 2.134.672.602 1.327 1.097 1.456 1.102.353.012 2.51 1.106 3.411 1.73.901.624 2.593 1.436 2.99 1.436.24 0 1.04.359 3.314 1.482.412.204 1.014.37 1.337.37.322 0 .7.102.838.227.36.324 2.724 1.044 4.103 1.249.646.096 1.44.339 1.761.54.323.201 1.009.366 1.525.366.517 0 1.146.106 1.399.236.756.39 3.248.868 5.222 1.002 1.018.07 1.965.236 2.103.37.138.134 1.038.244 2 .244 1.128 0 1.93.138 2.262.388.402.304 1.45.39 4.798.397 2.56.005 4.35.115 4.447.273.095.154 1.585.265 3.572.265s3.476-.11 3.572-.265c.098-.158 1.837-.264 4.328-.264 2.56 0 4.272-.108 4.443-.279.267-.266 3.159-.654 7.104-.952 1.018-.077 2.01-.27 2.204-.43.194-.16.968-.392 1.72-.515 3.185-.519 3.778-.649 4.327-.948.318-.174.847-.316 1.177-.316.33 0 1.796-.374 3.258-.831 2.665-.833 3.298-1.055 4.776-1.673l1.588-.665c.436-.182.972-.438 1.19-.567.219-.13.576-.305.794-.39.218-.084.814-.376 1.323-.648l2.381-1.273c.8-.429 1.742-1.03 2.091-1.335.35-.305.753-.555.895-.555.143 0 1.262-.983 2.487-2.183 1.226-1.2 2.341-2.223 2.479-2.271.155-.055.25 4.911.248 13.097l-.003 13.185-.899 1.13c-1.107 1.393-3.235 3.51-4.123 4.1-.364.243-1.138.776-1.72 1.186-.582.41-1.5.953-2.04 1.207-.539.253-1.052.576-1.14.718-.087.142-.39.258-.672.258-.282 0-.513.119-.513.264 0 .146-.18.265-.4.265-.219 0-.963.281-1.653.626-2.325 1.16-3.78 1.755-4.289 1.755-.278 0-.58.12-.67.265-.09.145-.424.265-.743.266-.319 0-.92.18-1.338.397-.416.217-1.034.395-1.373.395-.339 0-.685.112-.77.25-.084.136-.688.329-1.342.427-.653.098-1.252.283-1.332.412-.08.129-.653.234-1.275.234-.622 0-1.22.089-1.33.198-.249.25-3.084.8-5.811 1.13-1.147.139-2.237.378-2.423.532-.186.155-.796.284-1.355.289-4.016.031-8.996.31-9.205.515-.298.292-10.815.337-11.103.048zm3.968-32.809c-.101-.101-1.755-.275-3.675-.386a167.26 167.26 0 0 1-7.195-.61 409.332 409.332 0 0 0-5.159-.545c-.8-.075-1.693-.244-1.984-.375-.291-.132-1.363-.359-2.382-.504-2.79-.397-4.54-.755-5.075-1.036-.265-.14-1.136-.34-1.936-.445-.8-.106-1.574-.273-1.72-.372-.145-.099-.979-.397-1.852-.663a48.989 48.989 0 0 1-2.117-.685l-1.72-.658c-.654-.25-1.397-.562-1.65-.693-.252-.13-.625-.237-.827-.237-.202 0-.516-.179-.697-.397-.182-.219-.464-.398-.628-.399-.247 0-3.7-1.764-5.443-2.78-3.512-2.045-7.493-6.861-8.309-10.05-.428-1.676-.528-19.59-.117-20.99.559-1.9 1.162-2.058 1.96-.515.775 1.5 5.362 5.497 6.308 5.497.224 0 .408.12.408.265 0 .145.223.264.497.264.273 0 .645.179.826.397.18.219.495.397.697.397.203 0 .575.11.828.242.956.504 3.22 1.346 3.617 1.346.228 0 .415.089.416.198.001.11.746.417 1.654.683.908.266 1.925.594 2.259.728.334.133.852.243 1.15.243.3 0 .919.168 1.377.374.849.382 1.113.442 4.141.949.946.158 1.958.396 2.25.528.29.132 1.779.36 3.307.505 1.528.146 3.492.387 4.365.536 4.215.72 7.99.861 19.182.718 11.058-.14 14.573-.326 17.728-.935.8-.154 2.407-.397 3.571-.54 3.86-.473 6.083-.86 6.337-1.102.138-.132.8-.24 1.471-.24.67 0 1.45-.174 1.733-.388.282-.214.834-.392 1.226-.397.391-.005.785-.127.875-.273.09-.145.456-.264.813-.264.357 0 .856-.108 1.109-.24.963-.503 6.048-2.46 6.735-2.59.395-.076.856-.304 1.024-.506.168-.203.413-.369.544-.369.616 0 4.25-2.696 5.987-4.442.622-.625 1.248-1.065 1.39-.977.16.1.257 4.62.257 12.077v11.918l-.71 1.23c-.644 1.115-2.416 2.86-4.824 4.752-1.385 1.088-2.552 1.762-5.578 3.225-1.528.738-2.985 1.457-3.238 1.597a2.36 2.36 0 0 1-.96.254c-.275 0-.648.178-.83.397-.18.218-.605.397-.942.397-.337 0-.687.119-.777.264-.09.146-.49.265-.889.265s-.867.141-1.04.315c-.173.173-.465.34-.648.373-.183.032-1.043.247-1.91.479-.868.23-1.82.42-2.117.422-.297 0-.88.18-1.298.397-.416.217-1.256.395-1.865.395s-1.22.109-1.359.241c-.709.681-11.667 2.012-19.301 2.345-2.474.108-4.63.281-4.792.385-.161.104-.377.107-.478.005zm-9.282-34.122c-1.6-.043-3.149-.19-3.44-.33-.29-.138-1.66-.301-3.042-.362-3.933-.175-5.523-.35-5.885-.645-.183-.15-.988-.332-1.788-.405-1.903-.172-4.3-.69-4.617-1-.139-.133-.816-.243-1.506-.243-.69 0-1.328-.12-1.418-.265-.09-.145-.499-.264-.91-.264-.41 0-.893-.18-1.074-.397-.181-.219-.725-.397-1.208-.397s-.951-.12-1.041-.265c-.09-.145-.442-.264-.782-.264s-1.494-.37-2.564-.82l-2.872-1.214c-.51-.215-1.105-.502-1.323-.636a7.355 7.355 0 0 0-.794-.414c-.218-.093-.754-.433-1.19-.754-.437-.321-1.054-.666-1.37-.766-.719-.227-3.916-3.457-4.483-4.527-.526-.993-.519-5.276.01-6.086.774-1.183 4.385-4.627 4.852-4.627.276 0 .781-.298 1.123-.662.342-.363.824-.661 1.072-.661.248 0 .593-.171.766-.38.173-.209.663-.456 1.088-.55.424-.093.84-.279.923-.413.083-.135.393-.245.69-.245.296 0 .914-.195 1.373-.434 1.58-.823 1.756-.888 2.386-.888.348 0 .781-.18.962-.397.182-.219.725-.397 1.208-.397s.951-.12 1.041-.265c.09-.145.425-.268.744-.273.318-.004.81-.183 1.093-.397.282-.213 1.02-.388 1.638-.388.618 0 1.187-.102 1.264-.226.077-.124.947-.302 1.934-.396 2.168-.205 2.882-.339 3.316-.62.182-.117 1.283-.297 2.447-.399 1.164-.102 3.486-.386 5.16-.632 2.46-.361 5.663-.466 16.767-.547 8.277-.06 13.844-.002 14.024.147.164.136 1.58.333 3.148.438 1.568.105 2.915.294 2.992.42.078.125.878.23 1.78.231.9.002 2.116.171 2.702.375.585.204 1.955.456 3.042.56 1.088.103 2.103.285 2.255.405.151.12.721.263 1.265.32.545.055 1.13.24 1.299.41.17.169.76.308 1.313.308.553 0 1.006.119 1.006.264 0 .146.334.265.743.265s.974.175 1.257.388c.282.214.83.392 1.219.397.388.005.745.098.794.207.158.356 1.835 1.124 2.453 1.124.613 0 3.376 1.346 4.138 2.015.23.202.516.367.637.367.12 0 .609.297 1.086.661.477.364.978.662 1.114.662.432 0 3.489 3.288 3.49 3.754.001.246.121.521.267.611.397.246.328 4.711-.085 5.508-.522 1.007-3.437 4.036-4.418 4.59a37.94 37.94 0 0 0-1.286.758c-1.687 1.074-4.791 2.487-7.308 3.327-.873.291-1.794.643-2.047.78a2.39 2.39 0 0 1-.962.25c-.276 0-.843.179-1.26.396-.417.217-1.079.396-1.47.397-.392 0-.786.12-.876.266-.09.146-.613.265-1.162.265-.549 0-1.087.089-1.196.198-.252.253-2.99.839-5.05 1.08-.873.102-1.766.3-1.984.439-.219.139-.933.294-1.588.343-.655.05-2.44.2-3.969.332-7.063.614-9.92.73-17.198.701-4.292-.017-9.114-.066-10.715-.108z" transform="translate(-54.913 -74.175)"/></svg>