<?xml version="1.0" encoding="UTF-8" standalone="no"?>
<!-- Created with Inkscape (http://www.inkscape.org/) -->

<svg
   xmlns:dc="http://purl.org/dc/elements/1.1/"
   xmlns:cc="http://creativecommons.org/ns#"
   xmlns:rdf="http://www.w3.org/1999/02/22-rdf-syntax-ns#"
   xmlns:svg="http://www.w3.org/2000/svg"
   xmlns="http://www.w3.org/2000/svg"
   xmlns:sodipodi="http://sodipodi.sourceforge.net/DTD/sodipodi-0.dtd"
   xmlns:inkscape="http://www.inkscape.org/namespaces/inkscape"
   width="106.36959mm"
   height="133.99515mm"
   viewBox="0 0 106.36959 133.99515"
   version="1.1"
   id="svg885"
   inkscape:version="0.92.3 (2405546, 2018-03-11)"
   sodipodi:docname="data.svg">
  <defs
     id="defs879" />
  <sodipodi:namedview
     id="base"
     pagecolor="#ffffff"
     bordercolor="#666666"
     borderopacity="1.0"
     inkscape:pageopacity="0.0"
     inkscape:pageshadow="2"
     inkscape:zoom="0.35"
     inkscape:cx="-306.11728"
     inkscape:cy="224.26392"
     inkscape:document-units="mm"
     inkscape:current-layer="layer1"
     showgrid="false"
     inkscape:window-width="1853"
     inkscape:window-height="1145"
     inkscape:window-x="67"
     inkscape:window-y="27"
     inkscape:window-maximized="1" />
  <metadata
     id="metadata882">
    <rdf:RDF>
      <cc:Work
         rdf:about="">
        <dc:format>image/svg+xml</dc:format>
        <dc:type
           rdf:resource="http://purl.org/dc/dcmitype/StillImage" />
        <dc:title></dc:title>
      </cc:Work>
    </rdf:RDF>
  </metadata>
  <g
     inkscape:label="Layer 1"
     inkscape:groupmode="layer"
     id="layer1"
     transform="translate(-54.913172,-74.174679)">
    <path
       style="fill:#000000;stroke-width:0.26458332"
       d="m 91.16786,207.9907 c -0.21828,-0.14331 -0.94788,-0.26239 -1.62134,-0.26462 -0.67345,-0.002 -1.65189,-0.18264 -2.17431,-0.40092 -0.52242,-0.21828 -1.36337,-0.39688 -1.86878,-0.39688 -0.50541,0 -0.99251,-0.11906 -1.08245,-0.26458 -0.0899,-0.14552 -0.60298,-0.26847 -1.14009,-0.27322 -0.53711,-0.005 -1.63142,-0.23899 -2.43178,-0.52053 -0.80036,-0.28154 -1.83513,-0.51578 -2.29949,-0.52053 -0.46435,-0.005 -0.9122,-0.11854 -0.99522,-0.25286 -0.083,-0.13433 -0.53262,-0.32806 -0.99912,-0.43052 -0.80154,-0.17605 -1.04154,-0.27059 -2.31716,-0.91276 -0.28907,-0.14552 -0.75074,-0.26458 -1.02594,-0.26458 -0.2752,0 -0.64858,-0.17859 -0.82974,-0.39688 -0.18115,-0.21828 -0.54193,-0.39687 -0.80173,-0.39687 -0.25979,0 -1.04888,-0.28683 -1.75354,-0.63739 -0.70465,-0.35056 -2.0748,-1.0005 -3.04478,-1.44432 -0.96997,-0.44381 -1.83823,-0.9277 -1.92946,-1.07532 -0.0912,-0.14762 -0.54829,-0.44986 -1.01569,-0.67165 -0.46739,-0.2218 -1.56979,-1.03119 -2.44978,-1.79865 -0.87999,-0.76747 -1.8915,-1.63098 -2.24781,-1.91893 -1.28014,-1.03453 -3.69054,-5.14625 -3.69054,-6.29542 0,-0.47804 -0.12202,-0.99118 -0.27116,-1.14031 -0.32138,-0.32138 -0.19795,-18.76086 0.13527,-20.2076 0.21922,-0.9518 0.86024,-2.12035 1.15851,-2.1119 0.0924,0.003 1.3433,1.1337 2.77978,2.51354 1.43647,1.37983 2.77592,2.50878 2.97656,2.50878 0.20063,0 0.36479,0.11348 0.36479,0.25217 0,0.1387 0.41672,0.44992 0.92604,0.69161 0.50933,0.24169 0.92604,0.5369 0.92604,0.65604 0,0.11913 0.26789,0.30155 0.59532,0.40538 0.32742,0.10383 1.01203,0.44502 1.52135,0.75821 0.50932,0.31318 2.29526,1.14343 3.96875,1.84499 1.67349,0.70156 3.15582,1.38042 3.29406,1.50858 0.13825,0.12816 0.56489,0.23302 0.94809,0.23302 0.38321,0 0.77377,0.077 0.86793,0.17119 0.28315,0.28316 2.9171,1.13382 3.53941,1.14309 0.31883,0.005 0.64362,0.11206 0.72174,0.23847 0.0781,0.1264 0.64479,0.31022 1.25926,0.40848 0.61447,0.0983 1.24218,0.27971 1.39493,0.40323 0.15273,0.12353 0.81349,0.2913 1.46833,0.37282 0.65484,0.0815 1.905,0.27763 2.77812,0.43579 2.68986,0.48724 4.92512,0.79975 7.40834,1.03578 1.30969,0.12448 2.68587,0.3479 3.05819,0.49648 0.90747,0.36213 22.9511,0.36391 23.63224,0.002 0.27318,-0.14518 1.46381,-0.32007 2.64584,-0.38863 1.18203,-0.0686 2.38727,-0.2319 2.67831,-0.36297 0.29104,-0.13107 1.18401,-0.29782 1.98438,-0.37055 0.80036,-0.0727 2.05052,-0.25172 2.77812,-0.39776 0.7276,-0.14604 1.91823,-0.34399 2.64583,-0.43988 0.72761,-0.0959 1.44198,-0.2659 1.5875,-0.3778 0.14552,-0.1119 0.8316,-0.28787 1.52461,-0.39104 0.69301,-0.10317 1.32512,-0.29291 1.40468,-0.42164 0.0796,-0.12872 0.52458,-0.23784 0.98893,-0.24246 0.46436,-0.005 1.0754,-0.18323 1.35787,-0.39688 0.28248,-0.21365 0.79011,-0.38846 1.12807,-0.38846 0.33797,0 0.82123,-0.10905 1.07391,-0.24234 0.92219,-0.48638 2.39895,-1.08052 2.68582,-1.08052 0.16189,0 0.50108,-0.10397 0.75377,-0.23106 0.25268,-0.12708 1.3524,-0.62904 2.4438,-1.11547 1.09141,-0.48643 2.17234,-1.0373 2.40208,-1.22415 0.22974,-0.18685 0.6167,-0.33974 0.8599,-0.33974 0.2432,0 0.44219,-0.11906 0.44219,-0.26458 0,-0.14552 0.15103,-0.26458 0.33562,-0.26458 0.1846,0 0.92874,-0.41765 1.65365,-0.92811 0.72491,-0.51046 1.73474,-1.21003 2.24406,-1.55462 0.98732,-0.66796 1.71724,-1.34369 3.13035,-2.89788 1.69651,-1.86589 1.63215,-2.34312 1.63215,12.10323 v 13.07262 l -1.155,1.41332 c -1.38287,1.69214 -3.91704,3.93112 -5.34913,4.72604 -0.57007,0.31643 -1.27462,0.79083 -1.56566,1.05423 -0.52588,0.47592 -4.99909,2.66586 -7.27604,3.56211 -2.18631,0.86058 -2.51081,0.99482 -2.97297,1.22993 -0.25269,0.12854 -0.66941,0.23445 -0.92605,0.23534 -0.25663,8e-4 -0.80169,0.17641 -1.21124,0.39002 -0.40956,0.21362 -1.36206,0.46469 -2.11667,0.55795 -0.75462,0.0933 -1.61268,0.31935 -1.90681,0.50245 -0.29413,0.1831 -1.0085,0.40289 -1.5875,0.48841 -0.579,0.0855 -1.70756,0.25303 -2.50793,0.37222 -0.80036,0.11919 -1.6338,0.32949 -1.85208,0.46732 -0.21828,0.13784 -1.11125,0.35803 -1.98438,0.48931 -2.26753,0.34095 -37.2033,0.50251 -37.70312,0.17436 z m 12.59082,-33.01086 c -0.16792,-0.16883 -6.04095,-0.52773 -9.21501,-0.56312 -0.5444,-0.006 -1.23637,-0.14298 -1.53771,-0.30425 -0.30134,-0.16128 -1.58233,-0.39371 -2.84664,-0.51653 -2.50804,-0.24364 -4.68366,-0.6761 -5.40402,-1.07418 -0.25268,-0.13965 -0.93027,-0.2539 -1.50573,-0.2539 -0.57548,0 -1.1199,-0.11906 -1.20984,-0.26458 -0.0899,-0.14552 -0.5647,-0.26458 -1.05504,-0.26458 -0.49034,0 -1.07013,-0.1786 -1.28841,-0.39688 -0.21828,-0.21828 -0.81507,-0.39687 -1.3262,-0.39687 -0.51113,0 -0.9965,-0.1087 -1.07862,-0.24156 -0.0821,-0.13286 -0.62429,-0.32182 -1.20485,-0.4199 -0.58056,-0.0981 -1.12274,-0.28704 -1.20485,-0.4199 -0.0821,-0.13286 -0.39395,-0.24156 -0.69297,-0.24156 -0.29902,0 -0.9766,-0.22917 -1.50574,-0.50927 -0.52914,-0.28011 -1.26753,-0.57452 -1.64088,-0.65426 -0.37334,-0.0797 -0.95711,-0.38634 -1.29725,-0.68135 -0.34015,-0.295 -0.86812,-0.54507 -1.17327,-0.55571 -0.30516,-0.0106 -0.91202,-0.24345 -1.34858,-0.51737 -0.43656,-0.27392 -1.17149,-0.69114 -1.63318,-0.92714 -0.46169,-0.23601 -0.90444,-0.5985 -0.98389,-0.80554 -0.0795,-0.20705 -0.32081,-0.37644 -0.53636,-0.37644 -0.99573,0 -6.20335,-4.6486 -7.17796,-6.40744 -1.08567,-1.95924 -1.44257,-2.84555 -1.44257,-3.58236 0,-0.45479 -0.11906,-0.90047 -0.26458,-0.99041 -0.36181,-0.22361 -0.36181,-19.09097 0,-19.31458 0.14552,-0.0899 0.26458,-0.46198 0.26458,-0.82676 0,-0.72345 0.43896,-1.70599 0.89951,-2.0134 0.16636,-0.11104 0.74466,0.2499 1.34945,0.84223 0.58208,0.57009 1.59411,1.50506 2.24896,2.07769 0.65484,0.57264 1.73972,1.53309 2.41084,2.13434 0.67111,0.60126 1.32596,1.09691 1.4552,1.10146 0.35267,0.0124 2.50945,1.10663 3.41132,1.73068 0.90085,0.62335 2.59309,1.43605 2.99022,1.43605 0.23909,0 1.03977,0.35806 3.31375,1.48189 0.41198,0.20361 1.01325,0.37019 1.33615,0.37019 0.32291,0 0.70021,0.10185 0.83845,0.22634 0.3601,0.32426 2.72402,1.04376 4.10311,1.24885 0.64643,0.0961 1.43903,0.33933 1.76134,0.54043 0.3223,0.20109 1.00852,0.36563 1.52494,0.36563 0.51642,0 1.14568,0.10645 1.39837,0.23655 0.75664,0.38956 3.24833,0.86753 5.22193,1.00169 1.01865,0.0692 1.96519,0.23568 2.10344,0.36987 0.13824,0.13419 1.03822,0.24397 1.99995,0.24397 1.12788,0 1.93091,0.1379 2.26219,0.38847 0.40128,0.30351 1.45037,0.3903 4.79745,0.39687 2.56107,0.005 4.34963,0.11482 4.44739,0.273 0.0953,0.15423 1.58504,0.26458 3.57187,0.26458 1.98684,0 3.47656,-0.11035 3.57188,-0.26458 0.0978,-0.15826 1.83719,-0.26459 4.32832,-0.26459 2.55963,0 4.27202,-0.10722 4.443,-0.27819 0.26645,-0.26645 3.15843,-0.65405 7.10368,-0.95208 1.01864,-0.0769 2.01055,-0.27092 2.20424,-0.43104 0.19369,-0.16013 0.9676,-0.39143 1.71979,-0.51402 3.18545,-0.51914 3.77808,-0.64908 4.3268,-0.94869 0.31786,-0.17356 0.84753,-0.31556 1.17705,-0.31556 0.32952,0 1.79586,-0.3741 3.25854,-0.83133 2.66435,-0.83287 3.29728,-1.05458 4.77608,-1.67297 0.43656,-0.18256 1.15093,-0.48148 1.5875,-0.66427 0.43656,-0.18278 0.97234,-0.43836 1.19062,-0.56794 0.21828,-0.12959 0.57547,-0.30461 0.79375,-0.38895 0.21828,-0.0843 0.8136,-0.37608 1.32292,-0.64831 0.50932,-0.27224 1.58088,-0.84538 2.38125,-1.27366 0.80036,-0.42828 1.74131,-1.02875 2.091,-1.33438 0.34969,-0.30563 0.75239,-0.55569 0.89489,-0.55569 0.1425,0 1.26168,-0.98227 2.48707,-2.18281 1.22538,-1.20055 2.34073,-2.2225 2.47855,-2.27101 0.15556,-0.0547 0.2496,4.9114 0.248,13.09688 l -0.003,13.18507 -0.8989,1.13065 c -1.1074,1.39293 -3.23513,3.50879 -4.12305,4.10008 -0.3638,0.24226 -1.1377,0.77593 -1.71979,1.18593 -0.58208,0.41 -1.49976,0.95287 -2.03928,1.20637 -0.53952,0.25351 -1.05256,0.5768 -1.14009,0.71842 -0.0874,0.14163 -0.39017,0.2575 -0.67262,0.2575 -0.28246,0 -0.51355,0.11907 -0.51355,0.26459 0,0.14552 -0.17947,0.26458 -0.39882,0.26458 -0.21935,0 -0.96349,0.28172 -1.65364,0.62605 -2.32472,1.15981 -3.7796,1.7552 -4.28901,1.7552 -0.27856,0 -0.58005,0.11906 -0.66999,0.26458 -0.0899,0.14553 -0.42439,0.26532 -0.74322,0.26622 -0.31884,7.9e-4 -0.92073,0.17949 -1.33755,0.39687 -0.41681,0.21739 -1.03486,0.39525 -1.37344,0.39525 -0.33858,0 -0.68494,0.11218 -0.76968,0.24929 -0.0847,0.13712 -0.68854,0.32945 -1.34178,0.42741 -0.65324,0.098 -1.25281,0.28343 -1.33237,0.41216 -0.0796,0.12873 -0.65356,0.23405 -1.27556,0.23405 -0.622,0 -1.22005,0.0891 -1.329,0.19809 -0.24919,0.24919 -3.08415,0.80041 -5.81162,1.12999 -1.14678,0.13858 -2.23714,0.37817 -2.42301,0.53243 -0.18588,0.15426 -0.79541,0.28406 -1.35453,0.28843 -4.01677,0.0314 -8.99634,0.31004 -9.20543,0.51504 -0.29751,0.2917 -10.815,0.33717 -11.10261,0.048 z m 3.96746,-32.80856 c -0.10135,-0.10135 -1.75507,-0.27503 -3.67492,-0.38595 -1.91986,-0.11092 -5.15753,-0.3859 -7.19482,-0.61107 -2.03729,-0.22516 -4.35901,-0.47029 -5.15937,-0.54472 -0.80037,-0.0744 -1.69334,-0.24317 -1.98438,-0.37495 -0.29104,-0.13179 -1.3626,-0.35834 -2.38125,-0.50345 -2.79073,-0.39755 -4.54087,-0.75484 -5.07563,-1.03617 -0.26434,-0.13907 -1.13546,-0.33942 -1.93583,-0.44523 -0.80036,-0.10581 -1.57427,-0.27314 -1.71979,-0.37185 -0.14552,-0.0987 -0.97896,-0.39686 -1.85208,-0.66257 -0.87313,-0.2657 -1.82563,-0.57407 -2.11667,-0.68527 -0.29104,-0.11119 -1.06495,-0.40724 -1.71979,-0.65788 -0.65484,-0.25064 -1.39737,-0.56255 -1.65006,-0.69313 -0.25268,-0.13059 -0.62506,-0.23743 -0.82749,-0.23743 -0.20244,0 -0.51629,-0.17859 -0.69745,-0.39687 -0.18116,-0.21828 -0.46363,-0.39752 -0.62771,-0.39832 -0.2465,-10e-4 -3.69896,-1.76473 -5.44292,-2.78029 -3.51153,-2.04486 -7.49338,-6.86148 -8.30869,-10.05056 -0.42827,-1.67519 -0.52818,-19.59 -0.11705,-20.98882 0.55842,-1.899932 1.16135,-2.058547 1.95932,-0.515438 0.77531,1.499288 5.36285,5.496968 6.30804,5.496968 0.2245,0 0.40818,0.11906 0.40818,0.26458 0,0.14552 0.22354,0.26458 0.49677,0.26458 0.27322,0 0.64499,0.1786 0.82614,0.39688 0.18116,0.21828 0.49501,0.39687 0.69745,0.39687 0.20244,0 0.57481,0.10887 0.8275,0.24192 0.9563,0.50354 3.21996,1.34558 3.61733,1.34558 0.22769,0 0.41499,0.0893 0.41624,0.19844 10e-4,0.10914 0.74538,0.41643 1.65364,0.68285 0.90826,0.26643 1.92488,0.59385 2.25915,0.72761 0.33427,0.13375 0.85205,0.24319 1.15064,0.24319 0.29858,0 0.91805,0.16858 1.37661,0.37464 0.84855,0.38129 1.11252,0.44175 4.14103,0.94843 0.94588,0.15825 1.95791,0.39598 2.24895,0.52828 0.29105,0.1323 1.77933,0.35963 3.3073,0.50518 1.52797,0.14554 3.4925,0.3866 4.36562,0.53567 4.21516,0.71969 7.99066,0.86106 19.18229,0.71827 11.05796,-0.14108 14.57256,-0.32641 17.72709,-0.93478 0.80036,-0.15436 2.4077,-0.39739 3.57187,-0.54007 3.85972,-0.47304 6.08235,-0.85965 6.33677,-1.10222 0.13825,-0.13181 0.8001,-0.23965 1.47079,-0.23965 0.67068,0 1.45054,-0.17481 1.73302,-0.38846 0.28247,-0.21365 0.83398,-0.39225 1.22557,-0.39688 0.3916,-0.005 0.78558,-0.12748 0.87552,-0.273 0.0899,-0.14552 0.45576,-0.26458 0.81295,-0.26458 0.35719,0 0.85618,-0.108 1.10887,-0.24001 0.96298,-0.50308 6.04825,-2.45901 6.73477,-2.59037 0.3955,-0.0757 0.85656,-0.30324 1.02458,-0.50569 0.16802,-0.20245 0.41285,-0.3681 0.54406,-0.3681 0.61541,0 4.24986,-2.69692 5.9871,-4.44269 0.62209,-0.62514 1.24717,-1.06488 1.38906,-0.97719 0.16141,0.0998 0.25798,4.62074 0.25798,12.07723 v 11.91779 l -0.71007,1.22962 c -0.64441,1.11592 -2.41617,2.8613 -4.82453,4.7527 -1.38495,1.08767 -2.55139,1.76207 -5.5779,3.22497 -1.52797,0.73857 -2.98487,1.45716 -3.23755,1.59688 -0.25269,0.13971 -0.6846,0.25403 -0.9598,0.25403 -0.27519,0 -0.64857,0.17859 -0.82973,0.39688 -0.18116,0.21828 -0.60543,0.39687 -0.94283,0.39687 -0.33739,0 -0.68703,0.11906 -0.77696,0.26458 -0.0899,0.14552 -0.48987,0.26459 -0.88874,0.26459 -0.39887,0 -0.86689,0.14167 -1.04004,0.31482 -0.17316,0.17315 -0.46486,0.34108 -0.64823,0.37317 -0.18338,0.0321 -1.04303,0.24761 -1.91035,0.47893 -0.86732,0.23132 -1.81982,0.42131 -2.11667,0.42221 -0.29685,7.9e-4 -0.88076,0.17949 -1.29757,0.39687 -0.41682,0.21739 -1.25621,0.39525 -1.86531,0.39525 -0.60911,0 -1.22058,0.10861 -1.35882,0.24137 -0.70887,0.68071 -11.66757,2.012 -19.30136,2.34478 -2.47385,0.10784 -4.63013,0.28121 -4.79174,0.38527 -0.1616,0.10405 -0.37675,0.10627 -0.4781,0.005 z M 98.4439,108.04887 c -1.60073,-0.0426 -3.14854,-0.1907 -3.43958,-0.32913 -0.29104,-0.13842 -1.66026,-0.30188 -3.04271,-0.36322 -3.93229,-0.1745 -5.52308,-0.34872 -5.88415,-0.64443 -0.18346,-0.15025 -0.9884,-0.33241 -1.78877,-0.40481 -1.90257,-0.17211 -4.29961,-0.69095 -4.61698,-0.99934 -0.13824,-0.13434 -0.81582,-0.24425 -1.50573,-0.24425 -0.68992,0 -1.32797,-0.11906 -1.41791,-0.26458 -0.0899,-0.14552 -0.49911,-0.26459 -0.90926,-0.26459 -0.41016,0 -0.89396,-0.17859 -1.07512,-0.39687 -0.18115,-0.21828 -0.72449,-0.39688 -1.2074,-0.39688 -0.48292,0 -0.95162,-0.11906 -1.04155,-0.26458 -0.0899,-0.14552 -0.44169,-0.26458 -0.78167,-0.26458 -0.33997,0 -1.4938,-0.36925 -2.56407,-0.82054 -1.07026,-0.4513 -2.36265,-0.99699 -2.87197,-1.21264 -0.50933,-0.21566 -1.10464,-0.50202 -1.32292,-0.63636 -0.21828,-0.13434 -0.57547,-0.32063 -0.79375,-0.41398 -0.21828,-0.0934 -0.75406,-0.432655 -1.19062,-0.754 -0.43657,-0.321341 -1.05331,-0.6663 -1.37054,-0.766572 -0.71794,-0.226925 -3.91567,-3.456112 -4.48194,-4.526022 -0.52601,-0.993859 -0.51881,-5.276329 0.0102,-6.086271 0.77317,-1.183651 4.38405,-4.627368 4.852,-4.627368 0.27561,0 0.78075,-0.297657 1.12252,-0.661459 0.34178,-0.363802 0.8242,-0.661458 1.07206,-0.661458 0.24786,0 0.59252,-0.170941 0.76591,-0.379868 0.17339,-0.208927 0.66286,-0.456212 1.0877,-0.549523 0.42483,-0.09331 0.84035,-0.279557 0.92337,-0.413882 0.083,-0.134325 0.39343,-0.244227 0.68982,-0.244227 0.29638,0 0.91443,-0.195595 1.37344,-0.434655 1.58049,-0.823136 1.75544,-0.888262 2.38609,-0.888262 0.34796,0 0.78087,-0.178594 0.96203,-0.396875 0.18115,-0.218281 0.72449,-0.396875 1.2074,-0.396875 0.48292,0 0.95162,-0.119062 1.04156,-0.264583 0.0899,-0.145521 0.42438,-0.26837 0.74321,-0.272998 0.31884,-0.0046 0.81082,-0.183222 1.09329,-0.396875 0.28248,-0.213653 1.01959,-0.38846 1.63803,-0.38846 0.61845,0 1.18725,-0.101617 1.264,-0.225814 0.0768,-0.124198 0.94699,-0.302355 1.93385,-0.395905 2.1681,-0.205527 2.8826,-0.339104 3.31663,-0.620052 0.18135,-0.117391 1.28224,-0.296928 2.4464,-0.398972 1.16417,-0.102045 3.48589,-0.386519 5.15938,-0.632166 2.46175,-0.361354 5.6634,-0.46575 16.76827,-0.546762 8.2768,-0.06038 13.84381,-0.002 14.02341,0.147051 0.16381,0.13595 1.58068,0.333114 3.14861,0.438143 1.56792,0.105028 2.91418,0.293565 2.99169,0.418969 0.0775,0.125404 0.87803,0.22974 1.77894,0.231858 0.90092,0.0021 2.11712,0.170849 2.70268,0.374958 0.58555,0.204109 1.95477,0.455753 3.04271,0.559209 1.08793,0.103456 2.10226,0.286049 2.25406,0.405763 0.15179,0.119714 0.72146,0.263361 1.26592,0.319216 0.54446,0.05586 1.12868,0.240312 1.29827,0.409904 0.16959,0.169592 0.76079,0.30835 1.31377,0.30835 0.55298,0 1.00542,0.119062 1.00542,0.264583 0,0.145521 0.33443,0.264583 0.74318,0.264583 0.40875,0 0.97429,0.174807 1.25677,0.388461 0.28247,0.213653 0.83109,0.392247 1.21914,0.396875 0.38806,0.0046 0.74524,0.09771 0.79375,0.206852 0.15807,0.355655 1.83566,1.124479 2.45364,1.124479 0.61245,0 3.37573,1.345305 4.13768,2.01443 0.22974,0.201751 0.51616,0.36682 0.63649,0.36682 0.12032,0 0.60902,0.297656 1.08599,0.661458 0.47697,0.363802 0.97832,0.661459 1.11412,0.661459 0.43186,0 3.48937,3.288463 3.491,3.754697 7.9e-4,0.246074 0.12063,0.520991 0.26615,0.610928 0.39722,0.245492 0.32853,4.711049 -0.0847,5.507574 -0.52261,1.007331 -3.43755,4.036156 -4.4179,4.590508 -0.47198,0.266888 -1.05096,0.607984 -1.28662,0.757992 -1.68691,1.073794 -4.79076,2.486794 -7.30764,3.326734 -0.87312,0.29139 -1.79424,0.6425 -2.04693,0.78026 -0.25269,0.13776 -0.68556,0.25047 -0.96194,0.25047 -0.27639,0 -0.84355,0.17786 -1.26036,0.39525 -0.41682,0.21738 -1.07825,0.39598 -1.46984,0.39687 -0.39159,8e-4 -0.78557,0.1207 -0.87551,0.26622 -0.0899,0.14552 -0.6129,0.26458 -1.16214,0.26458 -0.54925,0 -1.08755,0.0893 -1.19624,0.19844 -0.25194,0.25299 -2.99031,0.83838 -5.04996,1.07955 -0.87312,0.10224 -1.76609,0.29979 -1.98437,0.43899 -0.21828,0.1392 -0.93266,0.29383 -1.5875,0.3436 -0.65484,0.0498 -2.44078,0.19915 -3.96875,0.33192 -7.06365,0.6138 -9.91988,0.73026 -17.19792,0.70124 -4.29286,-0.0171 -9.11489,-0.066 -10.71562,-0.10856 z"
       id="path1441"
       inkscape:connector-curvature="0" />
  </g>
</svg>
