<?xml version="1.0" encoding="UTF-8" standalone="no"?>
<!-- Created with Inkscape (http://www.inkscape.org/) -->

<svg
   xmlns:dc="http://purl.org/dc/elements/1.1/"
   xmlns:cc="http://creativecommons.org/ns#"
   xmlns:rdf="http://www.w3.org/1999/02/22-rdf-syntax-ns#"
   xmlns:svg="http://www.w3.org/2000/svg"
   xmlns="http://www.w3.org/2000/svg"
   xmlns:sodipodi="http://sodipodi.sourceforge.net/DTD/sodipodi-0.dtd"
   xmlns:inkscape="http://www.inkscape.org/namespaces/inkscape"
   width="268.75275mm"
   height="43.708225mm"
   viewBox="0 0 268.75275 43.708225"
   version="1.1"
   id="svg71"
   inkscape:version="0.92.3 (2405546, 2018-03-11)"
   sodipodi:docname="logo.svg">
  <defs
     id="defs65" />
  <sodipodi:namedview
     id="base"
     pagecolor="#ffffff"
     bordercolor="#666666"
     borderopacity="1.0"
     inkscape:pageopacity="0.0"
     inkscape:pageshadow="2"
     inkscape:zoom="0.35"
     inkscape:cx="1277.8792"
     inkscape:cy="-528.83035"
     inkscape:document-units="mm"
     inkscape:current-layer="layer1"
     showgrid="false"
     inkscape:window-width="1853"
     inkscape:window-height="1025"
     inkscape:window-x="67"
     inkscape:window-y="27"
     inkscape:window-maximized="1" />
  <metadata
     id="metadata68">
    <rdf:RDF>
      <cc:Work
         rdf:about="">
        <dc:format>image/svg+xml</dc:format>
        <dc:type
           rdf:resource="http://purl.org/dc/dcmitype/StillImage" />
        <dc:title></dc:title>
      </cc:Work>
    </rdf:RDF>
  </metadata>
  <g
     inkscape:label="Layer 1"
     inkscape:groupmode="layer"
     id="layer1"
     transform="translate(363.42994,34.794589)">
    <path
       style="fill:#000000;stroke-width:0.26458332"
       d="m -354.62595,8.5480854 c -3.04888,-0.678392 -4.84466,-1.85465 -6.49621,-4.255135 -3.12949,-4.548558 -3.06504,-14.5714644 0.12567,-19.5392044 2.6669,-4.152241 6.46377,-5.914478 12.13853,-5.633826 1.48426,0.07341 2.96656,0.219636 3.29399,0.324959 l 0.59531,0.191492 v -3.439356 -3.439358 l -1.98438,-0.185952 -1.98437,-0.185949 v -3.254687 -3.254688 l 0.85989,-0.155294 c 0.47295,-0.08541 3.50904,-0.236379 6.74688,-0.335486 l 5.88698,-0.18019 v 17.743924 17.7439324 l 1.85208,0.330994 1.85208,0.330967 v 3.264932 3.264905 h -5.82736 -5.8274 l -0.25966,-0.682969 c -0.1428,-0.375629 -0.34822,-0.642831 -0.45646,-0.593777 -0.10824,0.04903 -0.84566,0.429947 -1.63872,0.846481 -1.43714,0.75483 -4.60465,1.480741 -6.36331,1.45833 -0.50933,-0.0063 -1.64042,-0.170762 -2.51354,-0.365045 z m 7.98433,-8.429255 c 1.24738,-1.357921 1.47164,-2.445755 1.6038,-7.779657 l 0.11969,-4.8302714 -1.14974,-0.521732 c -1.5435,-0.700415 -3.26494,-0.677867 -4.73025,0.06196 -0.94673,0.477986 -1.33583,0.904454 -1.9743,2.163916 -0.7585,1.4962534 -0.7952,1.7220254 -0.7952,4.8947924 0,4.784513 0.88815,6.747563 3.2354,7.151026 1.52649,0.262387 2.74929,-0.115332 3.6906,-1.140037 z m 25.22087,8.540882 c -2.30065,-0.395499 -4.64063,-1.674442 -5.69663,-3.113563 -2.62771,-3.581109 -2.18051,-9.500077 0.93009,-12.310322 2.28941,-2.068351 4.83547,-2.799186 10.58738,-3.039086 l 4.10104,-0.171045 -0.0651,-1.0583344 c -0.116,-1.88573 -1.43825,-3.024523 -3.76889,-3.246001 -0.65622,-0.06236 -1.60983,-0.005 -2.11915,0.127389 -0.83291,0.216554 -0.96314,0.378818 -1.29503,1.613543 l -0.36901,1.372778 h -3.66588 -3.66591 v -4.223137 -4.223136 l 0.99218,-0.265845 c 2.23449,-0.598705 6.61797,-1.077466 9.86515,-1.077466 7.08142,0 11.10644,1.635043 12.871,5.228471 l 0.74563,1.518404 0.0874,7.4511384 c 0.0995,8.480319 -0.21093,7.54417 2.62453,7.913979 l 1.38906,0.181186 v 3.273187 3.273213 h -6.21771 -6.2177 v -0.926041 c 0,-0.509323 -0.0476,-0.926042 -0.10571,-0.926042 -0.0581,0 -0.72212,0.414814 -1.47552,0.921835 -0.7534,0.506994 -1.94758,1.09339 -2.65372,1.303099 -1.72514,0.512313 -5.0909,0.708951 -6.87755,0.401796 z m 7.78537,-7.459715 c 1.39422,-0.793406 2.2688,-2.465149 2.2688,-4.336759 v -1.413589 h -1.70677 c -2.66502,0 -4.36655,0.464185 -5.36628,1.463886 -0.75221,0.752211 -0.86445,1.041215 -0.86445,2.225861 0,1.092649 0.12822,1.489604 0.64945,2.010833 0.89752,0.89752 3.48443,0.923158 5.01925,0.04977 z m 27.6688,7.492788 c -2.93111,-0.547449 -5.10685,-2.233162 -5.77929,-4.477623 -0.58275,-1.944978 -0.81958,-6.207548 -0.65239,-11.742076 l 0.16584,-5.4900994 -2.48949,8.8e-5 -2.48946,9e-5 0.26458,-3.638111 0.26459,-3.638108 2.29168,-0.07611 2.29167,-0.07611 0.18737,-3.388146 0.18738,-3.388143 4.00325,-0.870468 c 2.20179,-0.478756 4.15206,-0.926878 4.33396,-0.995829 0.25495,-0.09663 0.33157,0.745051 0.33435,3.673261 0.003,2.08924 0.0754,4.066511 0.16314,4.393933 0.15616,0.582641 0.24117,0.595312 3.99466,0.595312 h 3.83511 l -0.19167,3.505729 c -0.10541,1.928151 -0.24476,3.595026 -0.30969,3.704167 -0.0649,0.10914 -1.713,0.198437 -3.66234,0.198437 h -3.54425 l -0.16902,0.900928 c -0.28146,1.500253 0.0193,11.0502174 0.37653,11.9595634 0.48096,1.224016 1.35676,1.560248 4.04492,1.552893 l 2.33815,-0.0063 v 3.349413 3.349387 l -2.05052,0.294058 c -2.99209,0.429101 -6.37561,0.564621 -7.73906,0.309959 z m 21.04186,-0.03154 c -2.10978,-0.35274 -3.6091,-1.047378 -4.93252,-2.285257 -1.8306,-1.712357 -2.44948,-3.329173 -2.46496,-6.439826 -0.0116,-2.332382 0.0537,-2.659565 0.85637,-4.29006 0.95557,-1.941036 2.10503,-3.05062 4.15238,-4.008348 2.02766,-0.94852 3.73038,-1.249817 8.13027,-1.438648 l 4.04056,-0.17341 -0.0319,-1.0117674 c -0.0409,-1.29603 -0.47249,-2.088655 -1.45256,-2.667601 -1.01653,-0.600485 -3.35283,-0.833588 -4.51398,-0.450379 -0.80031,0.264134 -0.95763,0.467564 -1.25315,1.620587 l -0.33792,1.318535 h -3.67972 -3.67972 v -4.201925 -4.201922 l 1.21679,-0.30639 c 2.54926,-0.641911 6.44811,-1.076285 9.67401,-1.077788 7.01771,-0.0033 10.99987,1.584947 12.87254,5.133999 l 0.71062,1.346734 0.0842,7.5904414 0.0842,7.590472 1.96633,0.317183 1.96633,0.317209 v 3.270991 3.27099 h -6.21771 -6.21771 v -0.95832 c 0,-0.947156 -0.007,-0.953215 -0.59531,-0.520383 -2.72968,2.008002 -6.69737,2.870121 -10.37741,2.254885 z m 7.37447,-7.230401 c 1.59856,-0.667914 2.77775,-2.896896 2.79805,-5.288968 l 0.006,-0.762979 -2.57969,0.126153 c -1.9436,0.09501 -2.85562,0.267494 -3.69872,0.699427 -1.95873,1.003485 -2.53754,3.237547 -1.2387,4.781126 0.62339,0.74086 0.82635,0.814044 2.25745,0.814044 0.86487,0 1.96967,-0.165947 2.45515,-0.368803 z m 46.19617,7.228681 c -3.2316,-0.565256 -5.85978,-2.640145 -6.78879,-5.359558 -0.30382,-0.889371 -0.46064,-2.108624 -0.4482,-3.484695 0.0434,-4.79642 2.5015,-7.735639 7.55153,-9.029393 0.89611,-0.229577 3.42437,-0.494536 5.61832,-0.588799 l 3.98901,-0.171386 0.0816,-0.8430474 c 0.19098,-1.971686 -1.30987,-3.249499 -4.03844,-3.438309 -2.11592,-0.146415 -2.7687,0.223597 -3.23551,1.83396 l -0.36433,1.256771 h -3.69615 -3.69617 v -4.201925 -4.201922 l 1.21679,-0.30639 c 4.2872,-1.079529 11.33425,-1.402681 15.05675,-0.690449 4.04966,0.774825 6.79442,2.667627 7.81679,5.390478 0.50525,1.345589 0.57706,2.222569 0.71139,8.6879564 0.16907,8.138663 -0.12187,7.255775 2.5165,7.636431 l 1.25678,0.181319 v 3.277261 3.277235 h -6.07344 -6.0734 l -0.17248,-0.919347 -0.17248,-0.919348 -1.11821,0.769355 c -2.35157,1.617901 -6.65972,2.417207 -9.93791,1.843802 z m 7.61992,-7.231618 c 1.59787,-0.831374 2.37336,-2.142966 2.61093,-4.415949 l 0.17111,-1.637056 -2.62131,0.128138 c -1.95783,0.0957 -2.89665,0.26924 -3.70935,0.685641 -2.012,1.030896 -2.55336,3.685752 -1.02277,5.015653 0.54663,0.474954 1.00581,0.595313 2.27102,0.595313 0.87225,0 1.90741,-0.16727 2.30037,-0.37174 z m 65.93425,7.355549 c -2.75022,-0.330068 -4.47392,-0.738505 -5.92413,-1.403747 -4.47773,-2.053987 -6.49608,-5.94278 -6.50669,-12.536514 -0.0103,-6.4785794 1.91262,-10.8889674 5.97046,-13.6929234 3.74422,-2.587225 11.57052,-2.844085 15.64425,-0.513448 3.98042,2.277245 5.61896,5.992768 5.62819,12.7623024 l 0.004,3.373437 h -8.86354 -8.86354 v 0.605394 c 0,1.208748 1.13302,2.93452 2.38125,3.627014 1.05812,0.587031 1.56258,0.670877 4.53303,0.753374 3.1824,0.0884 3.90059,0.0048 8.10082,-0.944218 0.59386,-0.13417 0.59532,-0.126127 0.59532,3.325733 v 3.460221 l -0.99219,0.263075 c -2.56617,0.680376 -9.29786,1.209516 -11.70781,0.9203 z m 6.50909,-18.9143354 c -0.2939,-1.837986 -1.11974,-3.132055 -2.35741,-3.693961 -2.48465,-1.128038 -5.36866,-0.294492 -6.45676,1.866159 -0.32978,0.654843 -0.67532,1.577578 -0.76785,2.0505214 l -0.16822,0.859895 h 4.96168 4.96168 z m 19.90638,18.7705104 c -1.55155,-0.126392 -3.9328,-0.438706 -5.29167,-0.694055 l -2.47068,-0.464291 -0.0722,-4.692888 -0.0723,-4.692915 h 3.69245 c 4.08453,0 3.77515,-0.14269 4.13853,1.90881 0.25776,1.455155 0.6473,1.639888 3.69581,1.752732 2.48303,0.09192 2.76272,0.05281 3.27313,-0.457597 1.27415,-1.274153 0.57362,-1.932807 -3.96216,-3.725465 -4.74234,-1.874282 -5.90365,-2.483168 -7.39265,-3.875961 -1.91248,-1.788895 -2.45845,-3.302032 -2.3215,-6.4340744 0.12202,-2.79055 0.596,-4.064312 2.05555,-5.523844 1.04685,-1.04685 3.17722,-2.041879 5.14987,-2.405337 3.30605,-0.609135 9.90018,-0.244959 13.577441,0.74985 l 1.12448,0.304202 v 4.230603 4.230603 l -3.61633,-0.07361 -3.616351,-0.07361 -0.38015,-1.141579 c -0.43154,-1.295823 -1.02603,-1.636546 -2.85544,-1.636546 -0.8206,0 -1.33249,0.159091 -1.70256,0.529167 -1.21489,1.214895 -0.62233,1.700916 4.80589,3.9417914 2.37723,0.981369 4.798481,2.089777 5.380561,2.463131 2.58363,1.657191 3.5569,3.519064 3.56738,6.824239 0.01,2.982595 -0.53504,4.498816 -2.24446,6.250173 -1.59213,1.631156 -3.222551,2.300737 -6.615641,2.716847 -2.65041,0.325041 -3.74735,0.323612 -7.84701,-0.01032 z m -119.61905,-0.248682 c -2.5191,-0.593514 -4.0888,-2.000779 -4.90395,-4.396555 -0.3746,-1.100958 -0.44344,-3.250142 -0.52083,-16.2540264 l -0.0891,-14.985328 -1.97043,-0.184642 -1.97041,-0.184642 v -3.254687 -3.254688 l 0.8599,-0.157861 c 0.47294,-0.08682 3.44299,-0.237236 6.60014,-0.33425 l 5.74021,-0.17639 0.0806,16.906824 c 0.0719,15.0714854 0.12824,17.0117534 0.51945,17.8735284 0.52835,1.16377 1.07157,1.366202 3.59604,1.340062 l 1.91823,-0.01984 v 3.270488 c 0,3.709114 0.23727,3.366267 -2.64584,3.823282 -2.04308,0.323876 -5.81654,0.317976 -7.21399,-0.01138 z m 45.31399,-3.783119 v -3.277261 l 1.25677,-0.181319 c 0.69123,-0.09972 1.52466,-0.245216 1.85209,-0.323321 l 0.59531,-0.141975 v -13.9673814 -13.96738 l -1.85208,-0.185997 -1.85209,-0.185999 v -3.250409 -3.250407 l 0.8599,-0.157861 c 0.47294,-0.08682 3.44834,-0.23737 6.61199,-0.334549 l 5.75209,-0.176692 0.0687,12.632023 0.0687,12.6320264 2.84427,-2.1762064 c 1.56435,-1.196914 2.84427,-2.279446 2.84427,-2.405628 0,-0.126183 -0.34745,-0.229423 -0.7721,-0.229423 -1.57652,0 -1.60915,-0.06492 -1.60915,-3.203308 v -2.882109 h 8.06979 8.0698 v 3.289461 c 0,3.664255 0.15888,3.381717 -2.09971,3.734237 -0.85572,0.133559 -1.94879,0.722532 -4.0349,2.174079 -1.57366,1.094991 -2.86123,2.0871784 -2.86123,2.2048624 0,0.361546 5.04891,9.34942 5.36004,9.541693 0.16063,0.09927 1.04793,0.323136 1.9718,0.497443 l 1.67979,0.316945 -0.0741,3.209713 -0.074,3.209687 -5.03401,0.07165 -5.03402,0.07165 -3.01183,-6.085205 -3.0118,-6.085205 -1.61147,1.151678 c -1.54729,1.105826 -1.61473,1.202029 -1.69373,2.416096 -0.095,1.4596 0.0493,1.603693 1.85557,1.85211 l 1.26942,0.174598 v 3.282474 3.282447 h -8.20208 -8.20209 z"
       id="path3777-36-3-9"
       inkscape:connector-curvature="0"
       inkscape:export-xdpi="96"
       inkscape:export-ydpi="96"
       inkscape:export-filename="/home/jamesrunnalls/git/datalakes/website/datalakes-react-app/datalakes/src/img/logo3.png" />
  </g>
</svg>
