<svg xmlns="http://www.w3.org/2000/svg" width="512" height="511.898" viewBox="0 0 135.467 135.44"><g style="fill:#044e54;fill-opacity:1"><path d="m435.181 85.367-25.595 17.063-42.658-8.532-25.595-8.532-34.127 8.532-25.595-8.532 17.063-34.127H332.8l33.444-16.722a244.73 244.73 0 0 1 68.937 50.85zM238.954 51.241l-8.532 25.595-25.595 8.532-25.595 42.658-42.658 25.595-59.721 8.532v25.595l17.063 17.063v34.127l-25.595-17.063-25.595-17.065-14.845-44.62A247.268 247.268 0 0 1 163.534 26.499l24.23 16.21z" style="fill:#044e54;fill-opacity:1" transform="translate(0 -.013) scale(.26458)"/><path style="fill:#044e54;fill-opacity:1" d="m179.233 460.759-25.595-8.532-17.064-42.658v-85.316l-42.658-8.532-17.063-34.126V256l17.063-17.063 25.595-25.595 17.063 34.126h59.722l25.595 42.659h34.126l-8.531 42.658-34.127 34.126v25.595l-34.126 25.595zm292.634-325.652c46.574 83.09 41.267 185.546-13.651 263.371l-23.035-23.035v-34.126l-17.063-34.127-17.063-34.126v-34.127l-25.595-17.063-34.126 8.532-59.721-25.595-8.532-59.721 25.595-25.595h51.19l17.063 25.595 51.19 8.532 51.19-17.063z" transform="translate(0 -.013) scale(.26458)"/></g><path d="m307.207 93.899 34.127-8.532 25.595 8.532 42.658 8.532 25.595-17.063a243.653 243.653 0 0 1 36.686 49.739l-2.559 1.45-51.19 17.063-51.19-8.532-17.063-25.595h-51.19l-25.595 25.595 8.532 59.721 59.721 25.595 34.126-8.532 25.595 17.063v34.126l17.063 34.126 17.063 34.127v34.126l23.035 23.035c-78.79 111.645-233.169 138.272-344.806 59.483-94.812-66.914-130.38-190.742-85.53-297.771l14.845 44.62L68.32 221.87l25.595 17.063L76.853 256v25.595l17.063 34.127 42.658 8.532v85.316l17.063 42.658 25.595 8.532v-42.658l34.127-25.595v-25.595l34.127-34.127 8.532-42.658h-34.126l-25.595-42.658h-59.721l-17.063-34.127-25.595 25.595V204.81l-17.063-17.063v-25.595l59.721-8.532 42.658-25.595 25.595-42.658 25.595-8.532 8.532-25.595-51.19-8.532-24.23-16.21a247.435 247.435 0 0 1 202.711 8.02L332.803 51.24h-34.126l-17.063 34.127z" style="fill:#d9e2ec;fill-opacity:1" transform="translate(0 -.013) scale(.26458)"/><path d="M256.017 511.949c141.361.017 255.966-114.554 255.983-255.915C512.026 114.682 397.446.077 256.094.051 153.663.034 61.087 61.095 20.766 155.259l-3.191 1.058 1.237 3.711c-53.084 130.926 10.016 280.093 140.942 333.177a255.866 255.866 0 0 0 96.263 18.744zm200.86-126.883-13.164-13.156v-30.594a8.55 8.55 0 0 0-.853-3.814l-33.273-66.453v-32.113a8.542 8.542 0 0 0-3.797-7.098l-25.595-17.063a8.54 8.54 0 0 0-6.825-1.177l-31.345 7.832-52.649-22.592-7.243-50.746 20.075-20.066h43.093l14.504 21.798a8.524 8.524 0 0 0 5.699 3.677l51.19 8.532a8.452 8.452 0 0 0 4.095-.324l47.146-15.715c39.544 75.889 35.312 167.169-11.091 239.073h.033zm-35.21-300.944-13.872 9.248-38.674-7.738-25.092-8.352a8.384 8.384 0 0 0-4.761-.188l-31.721 7.926-13.907-4.633 10.306-20.612H332.8a8.577 8.577 0 0 0 3.814-.896l29.519-14.76a239.75 239.75 0 0 1 55.534 40.005zM162.57 36.166l20.476 13.651a8.576 8.576 0 0 0 3.336 1.314l41.344 6.894-4.035 12.072-21.542 7.192a8.542 8.542 0 0 0-4.616 3.694l-24.503 40.832-39.356 23.616-58.015 8.284a8.534 8.534 0 0 0-7.337 8.438v25.595a8.51 8.51 0 0 0 2.5 6.032l14.563 14.563V223l-35.492-23.667-12.874-38.623A240.257 240.257 0 0 1 162.57 36.166Zm-24.289 279.726-38.563-7.721-14.333-28.59v-20.049l31.789-31.789 11.765 23.539a8.532 8.532 0 0 0 7.636 4.718h54.892l23.112 38.52a8.53 8.53 0 0 0 7.312 4.138h23.718l-5.972 29.92-32.301 32.301a8.516 8.516 0 0 0-2.508 6.032v21.329l-30.714 23.035a8.525 8.525 0 0 0-3.413 6.825v30.816l-10.613-3.515-14.982-37.471v-83.678a8.532 8.532 0 0 0-6.825-8.36zM27.549 186.245l7.09 21.261a8.529 8.529 0 0 0 3.353 4.402l42.53 28.351-9.7 9.709a8.508 8.508 0 0 0-2.5 6.032v25.595c0 1.322.307 2.628.896 3.814l17.063 34.127a8.532 8.532 0 0 0 5.972 4.547l35.833 7.158v78.329c0 1.083.205 2.158.606 3.165l17.063 42.658a8.54 8.54 0 0 0 5.23 4.923l25.595 8.532c.853.29 1.749.444 2.653.444a8.535 8.535 0 0 0 8.532-8.532v-38.392l30.714-23.035a8.525 8.525 0 0 0 3.413-6.825v-22.063l31.627-31.627a8.582 8.582 0 0 0 2.329-4.36l8.532-42.658a8.538 8.538 0 0 0-6.697-10.042 8.388 8.388 0 0 0-1.664-.162H226.72l-23.112-38.52a8.53 8.53 0 0 0-7.312-4.138h-54.449l-14.657-29.409a8.517 8.517 0 0 0-6.271-4.607 8.363 8.363 0 0 0-7.397 2.389l-11.074 11.031V204.81a8.51 8.51 0 0 0-2.5-6.032l-14.563-14.563v-14.666l52.401-7.482a8.466 8.466 0 0 0 3.182-1.135l42.658-25.595a8.533 8.533 0 0 0 2.918-2.918l23.974-39.954 22.6-7.542a8.446 8.446 0 0 0 5.392-5.392l8.532-25.595c1.476-4.471-.947-9.299-5.426-10.775a9.076 9.076 0 0 0-1.263-.316l-49.381-8.233-8.677-5.784a238.228 238.228 0 0 1 164.08 6.1l-15.587 7.781h-32.113a8.523 8.523 0 0 0-7.678 4.718l-17.063 34.127c-2.099 4.215-.392 9.342 3.831 11.441.358.179.734.333 1.109.461l25.595 8.532a8.384 8.384 0 0 0 4.761.188l31.721-7.926 23.24 7.738a6.11 6.11 0 0 0 1.024.273l42.658 8.532c2.218.452 4.53 0 6.407-1.263l19.418-12.951a240.955 240.955 0 0 1 25.663 34.289l-41.976 13.992-45.448-7.576-15.016-22.523a8.532 8.532 0 0 0-7.056-3.797h-51.19a8.51 8.51 0 0 0-6.032 2.5l-25.595 25.595a8.515 8.515 0 0 0-2.414 7.243l8.532 59.721a8.526 8.526 0 0 0 5.119 6.629l59.721 25.595a8.412 8.412 0 0 0 5.426.435l30.466-7.619 18.625 12.439v29.562a8.55 8.55 0 0 0 .853 3.814l33.273 66.453v32.113a8.51 8.51 0 0 0 2.5 6.032l17.848 17.857c-79.156 105.511-228.852 126.874-334.363 47.717C32.19 386.696-1.826 282.422 27.549 186.245Z" style="fill:#102a43;fill-opacity:1" transform="translate(0 -.013) scale(.26458)"/></svg>