<?xml version="1.0" encoding="UTF-8" standalone="no"?>
<!-- Created with Inkscape (http://www.inkscape.org/) -->

<svg
   xmlns:dc="http://purl.org/dc/elements/1.1/"
   xmlns:cc="http://creativecommons.org/ns#"
   xmlns:rdf="http://www.w3.org/1999/02/22-rdf-syntax-ns#"
   xmlns:svg="http://www.w3.org/2000/svg"
   xmlns="http://www.w3.org/2000/svg"
   xmlns:sodipodi="http://sodipodi.sourceforge.net/DTD/sodipodi-0.dtd"
   xmlns:inkscape="http://www.inkscape.org/namespaces/inkscape"
   width="135.46678mm"
   height="135.43968mm"
   viewBox="0 0 135.46678 135.43968"
   version="1.1"
   id="svg8"
   inkscape:version="0.92.3 (2405546, 2018-03-11)"
   sodipodi:docname="map.svg">
  <defs
     id="defs2" />
  <sodipodi:namedview
     id="base"
     pagecolor="#ffffff"
     bordercolor="#666666"
     borderopacity="1.0"
     inkscape:pageopacity="0.0"
     inkscape:pageshadow="2"
     inkscape:zoom="0.49497475"
     inkscape:cx="20.109869"
     inkscape:cy="202.84648"
     inkscape:document-units="mm"
     inkscape:current-layer="g888"
     showgrid="false"
     inkscape:window-width="1859"
     inkscape:window-height="1025"
     inkscape:window-x="61"
     inkscape:window-y="27"
     inkscape:window-maximized="1" />
  <metadata
     id="metadata5">
    <rdf:RDF>
      <cc:Work
         rdf:about="">
        <dc:format>image/svg+xml</dc:format>
        <dc:type
           rdf:resource="http://purl.org/dc/dcmitype/StillImage" />
        <dc:title></dc:title>
      </cc:Work>
    </rdf:RDF>
  </metadata>
  <g
     inkscape:label="Layer 1"
     inkscape:groupmode="layer"
     id="layer1"
     transform="translate(-37.343983,-65.238493)">
    <g
       id="g888"
       transform="matrix(0.26458333,0,0,0.26458333,37.344104,65.225)">
      <g
         id="g823"
         style="fill:#ff0000;fill-opacity:1">
	<path
   id="path815"
   d="m 435.181,85.367 -25.595,17.063 -42.658,-8.532 -25.595,-8.532 -34.127,8.532 -25.595,-8.532 17.063,-34.127 H 332.8 l 33.444,-16.722 c 25.793,12.765 49.127,29.982 68.937,50.85 z"
   style="fill:#ff0000;fill-opacity:1"
   inkscape:connector-curvature="0" />

	<path
   id="path817"
   d="m 238.954,51.241 -8.532,25.595 -25.595,8.532 -25.595,42.658 -42.658,25.595 -59.721,8.532 v 25.595 l 17.063,17.063 v 34.127 L 68.321,221.875 42.726,204.81 27.881,160.19 C 53.434,99.3 102.277,51.164 163.534,26.499 l 24.23,16.21 z"
   style="fill:#ff0000;fill-opacity:1"
   inkscape:connector-curvature="0" />

	<polygon
   id="polygon819"
   points="179.233,460.759 153.638,452.227 136.574,409.569 136.574,324.253 93.916,315.721 76.853,281.595 76.853,256 93.916,238.937 119.511,213.342 136.574,247.468 196.296,247.468 221.891,290.127 256.017,290.127 247.486,332.785 213.359,366.911 213.359,392.506 179.233,418.101 "
   style="fill:#ff0000;fill-opacity:1" />

	<path
   id="path821"
   d="m 471.867,135.107 c 46.574,83.09 41.267,185.546 -13.651,263.371 L 435.181,375.443 V 341.317 L 418.118,307.19 401.055,273.064 v -34.127 l -25.595,-17.063 -34.126,8.532 -59.721,-25.595 -8.532,-59.721 25.595,-25.595 h 51.19 l 17.063,25.595 51.19,8.532 51.19,-17.063 z"
   style="fill:#ff0000;fill-opacity:1"
   inkscape:connector-curvature="0" />

</g>
      <path
         id="path825"
         d="m 307.207,93.899 34.127,-8.532 25.595,8.532 42.658,8.532 25.595,-17.063 c 14.29,14.956 26.619,31.669 36.686,49.739 l -2.559,1.45 -51.19,17.063 -51.19,-8.532 -17.063,-25.595 h -51.19 l -25.595,25.595 8.532,59.721 59.721,25.595 34.126,-8.532 25.595,17.063 v 34.126 l 17.063,34.126 17.063,34.127 v 34.126 l 23.035,23.035 C 379.426,510.12 225.047,536.747 113.41,457.958 18.598,391.044 -16.97,267.216 27.88,160.187 L 42.725,204.807 68.32,221.87 93.915,238.933 76.853,256 v 25.595 l 17.063,34.127 42.658,8.532 v 85.316 l 17.063,42.658 25.595,8.532 v -42.658 l 34.127,-25.595 v -25.595 l 34.127,-34.127 8.532,-42.658 H 221.892 L 196.297,247.469 H 136.576 L 119.513,213.342 93.918,238.937 V 204.81 L 76.855,187.747 v -25.595 l 59.721,-8.532 42.658,-25.595 25.595,-42.658 25.595,-8.532 8.532,-25.595 -51.19,-8.532 -24.23,-16.21 C 229.144,0.076 302.926,2.993 366.247,34.518 L 332.803,51.24 h -34.126 l -17.063,34.127 z"
         style="fill:#28b5f5;fill-opacity:1"
         inkscape:connector-curvature="0" />
      <path
         id="path827"
         d="M 256.017,511.949 C 397.378,511.966 511.983,397.395 512,256.034 512.026,114.682 397.446,0.077 256.094,0.051 153.663,0.034 61.087,61.095 20.766,155.259 l -3.191,1.058 1.237,3.711 c -53.084,130.926 10.016,280.093 140.942,333.177 30.578,12.396 63.263,18.761 96.263,18.744 z M 456.877,385.066 443.713,371.91 v -30.594 c 0.017,-1.322 -0.282,-2.628 -0.853,-3.814 l -33.273,-66.453 v -32.113 c 0,-2.85 -1.425,-5.511 -3.797,-7.098 l -25.595,-17.063 c -2.005,-1.339 -4.488,-1.766 -6.825,-1.177 l -31.345,7.832 -52.649,-22.592 -7.243,-50.746 20.075,-20.066 h 43.093 l 14.504,21.798 c 1.314,1.962 3.37,3.293 5.699,3.677 l 51.19,8.532 c 1.374,0.23 2.781,0.119 4.095,-0.324 l 47.146,-15.715 c 39.544,75.889 35.312,167.169 -11.091,239.073 h 0.033 z M 421.667,84.122 407.795,93.37 369.121,85.632 344.029,77.28 c -1.536,-0.52 -3.191,-0.589 -4.761,-0.188 L 307.547,85.018 293.64,80.385 303.946,59.773 H 332.8 c 1.322,0 2.628,-0.307 3.814,-0.896 l 29.519,-14.76 c 20.333,10.613 39.034,24.085 55.534,40.005 z M 162.57,36.166 183.046,49.817 c 1.007,0.665 2.141,1.118 3.336,1.314 l 41.344,6.894 -4.035,12.072 -21.542,7.192 c -1.928,0.64 -3.566,1.954 -4.616,3.694 l -24.503,40.832 -39.356,23.616 -58.015,8.284 c -4.206,0.597 -7.329,4.189 -7.337,8.438 v 25.595 c 0,2.261 0.896,4.436 2.5,6.032 l 14.563,14.563 V 223 L 49.893,199.333 37.019,160.71 C 61.513,104.743 106.407,60.208 162.57,36.166 Z m -24.289,279.726 -38.563,-7.721 -14.333,-28.59 v -20.049 l 31.789,-31.789 11.765,23.539 c 1.442,2.892 4.402,4.718 7.636,4.718 h 54.892 l 23.112,38.52 c 1.544,2.568 4.317,4.138 7.312,4.138 h 23.718 l -5.972,29.92 -32.301,32.301 c -1.604,1.595 -2.508,3.771 -2.508,6.032 v 21.329 l -30.714,23.035 c -2.15,1.612 -3.413,4.138 -3.413,6.825 v 30.816 l -10.613,-3.515 -14.982,-37.471 v -83.678 c 0,-4.051 -2.85,-7.549 -6.825,-8.36 z M 27.549,186.245 l 7.09,21.261 c 0.597,1.8 1.775,3.344 3.353,4.402 l 42.53,28.351 -9.7,9.709 c -1.604,1.595 -2.5,3.771 -2.5,6.032 v 25.595 c 0,1.322 0.307,2.628 0.896,3.814 l 17.063,34.127 c 1.177,2.355 3.387,4.035 5.972,4.547 l 35.833,7.158 v 78.329 c 0,1.083 0.205,2.158 0.606,3.165 l 17.063,42.658 c 0.93,2.329 2.85,4.129 5.23,4.923 l 25.595,8.532 c 0.853,0.29 1.749,0.444 2.653,0.444 4.709,0 8.532,-3.822 8.532,-8.532 v -38.392 l 30.714,-23.035 c 2.15,-1.612 3.413,-4.138 3.413,-6.825 v -22.063 l 31.627,-31.627 c 1.186,-1.194 1.996,-2.705 2.329,-4.36 L 264.38,291.8 c 0.921,-4.624 -2.073,-9.112 -6.697,-10.042 -0.546,-0.111 -1.109,-0.162 -1.664,-0.162 H 226.72 l -23.112,-38.52 c -1.544,-2.568 -4.317,-4.138 -7.312,-4.138 H 141.847 L 127.19,209.529 c -1.229,-2.457 -3.558,-4.172 -6.271,-4.607 -2.705,-0.469 -5.477,0.427 -7.397,2.389 l -11.074,11.031 V 204.81 c 0,-2.261 -0.896,-4.436 -2.5,-6.032 L 85.385,184.215 v -14.666 l 52.401,-7.482 c 1.126,-0.162 2.21,-0.546 3.182,-1.135 l 42.658,-25.595 c 1.194,-0.717 2.201,-1.723 2.918,-2.918 l 23.974,-39.954 22.6,-7.542 c 2.551,-0.836 4.556,-2.841 5.392,-5.392 l 8.532,-25.595 c 1.476,-4.471 -0.947,-9.299 -5.426,-10.775 -0.41,-0.137 -0.836,-0.239 -1.263,-0.316 l -49.381,-8.233 -8.677,-5.784 c 53.69,-17.473 111.841,-15.314 164.08,6.1 l -15.587,7.781 h -32.113 c -3.251,-0.017 -6.228,1.809 -7.678,4.718 l -17.063,34.127 c -2.099,4.215 -0.392,9.342 3.831,11.441 0.358,0.179 0.734,0.333 1.109,0.461 l 25.595,8.532 c 1.536,0.52 3.191,0.589 4.761,0.188 l 31.721,-7.926 23.24,7.738 c 0.333,0.119 0.674,0.213 1.024,0.273 l 42.658,8.532 c 2.218,0.452 4.53,0 6.407,-1.263 l 19.418,-12.951 c 9.555,10.647 18.147,22.123 25.663,34.289 l -41.976,13.992 -45.448,-7.576 -15.016,-22.523 c -1.578,-2.363 -4.215,-3.78 -7.056,-3.797 h -51.19 c -2.261,0 -4.436,0.896 -6.032,2.5 l -25.595,25.595 c -1.903,1.903 -2.798,4.581 -2.414,7.243 l 8.532,59.721 c 0.427,2.952 2.372,5.469 5.119,6.629 l 59.721,25.595 c 1.715,0.742 3.617,0.896 5.426,0.435 l 30.466,-7.619 18.625,12.439 v 29.562 c -0.017,1.322 0.282,2.628 0.853,3.814 l 33.273,66.453 v 32.113 c 0,2.261 0.896,4.436 2.5,6.032 l 17.848,17.857 C 367.841,504.844 218.145,526.207 112.634,447.05 32.19,386.696 -1.826,282.422 27.549,186.245 Z"
         inkscape:connector-curvature="0" />
      <g
         id="g829">
</g>
      <g
         id="g831">
</g>
      <g
         id="g833">
</g>
      <g
         id="g835">
</g>
      <g
         id="g837">
</g>
      <g
         id="g839">
</g>
      <g
         id="g841">
</g>
      <g
         id="g843">
</g>
      <g
         id="g845">
</g>
      <g
         id="g847">
</g>
      <g
         id="g849">
</g>
      <g
         id="g851">
</g>
      <g
         id="g853">
</g>
      <g
         id="g855">
</g>
      <g
         id="g857">
</g>
    </g>
  </g>
</svg>
