<svg xmlns="http://www.w3.org/2000/svg" width="50mm" height="188.976" viewBox="0 0 50 50"><g transform="translate(-10.28 -105.224)"><rect ry="0" y="110.224" x="15.28" height="20" width="40" style="fill:#243b53;fill-opacity:1;fill-rule:evenodd;stroke:none;stroke-width:0;stroke-miterlimit:4;stroke-dasharray:none;stroke-opacity:1"/><rect ry="0" y="130.224" x="15.28" height="20" width="40" style="fill:#102a43;fill-opacity:1;fill-rule:evenodd;stroke:none;stroke-width:0;stroke-miterlimit:4;stroke-dasharray:none;stroke-opacity:1"/><path style="fill:#bcccdc;fill-opacity:1;fill-rule:evenodd;stroke:none;stroke-width:0;stroke-miterlimit:4;stroke-dasharray:none;stroke-opacity:1" d="M55.28 105.224h5v25h-5z"/><path style="fill:#9fb3c8;fill-opacity:1;fill-rule:evenodd;stroke:none;stroke-width:0;stroke-miterlimit:4;stroke-dasharray:none;stroke-opacity:1" d="M55.28 130.224h5v25h-5z"/><path style="fill:#bcccdc;fill-opacity:1;fill-rule:evenodd;stroke:none;stroke-width:0;stroke-miterlimit:4;stroke-dasharray:none;stroke-opacity:1" d="M10.28 105.224h5v25h-5z"/><path style="fill:#9fb3c8;fill-opacity:1;fill-rule:evenodd;stroke:none;stroke-width:0;stroke-miterlimit:4;stroke-dasharray:none;stroke-opacity:1" d="M10.28 130.224h5v25h-5z"/><path style="fill:#788f9b;fill-opacity:1;fill-rule:evenodd;stroke:none;stroke-width:0;stroke-miterlimit:4;stroke-dasharray:none;stroke-opacity:1" d="M15.28 127.724h2.5v2.5h-2.5z"/><path style="fill:#546e7a;fill-opacity:1;fill-rule:evenodd;stroke:none;stroke-width:0;stroke-miterlimit:4;stroke-dasharray:none;stroke-opacity:1" d="M15.28 130.224h2.5v2.5h-2.5z"/><path style="fill:#788f9b;fill-opacity:1;fill-rule:evenodd;stroke:none;stroke-width:0;stroke-miterlimit:4;stroke-dasharray:none;stroke-opacity:1" d="M52.78 127.724h2.5v2.5h-2.5z"/><path style="fill:#546e7a;fill-opacity:1;fill-rule:evenodd;stroke:none;stroke-width:0;stroke-miterlimit:4;stroke-dasharray:none;stroke-opacity:1" d="M52.78 130.224h2.5v2.5h-2.5z"/><path style="fill:#788f9b;fill-opacity:1;fill-rule:evenodd;stroke:none;stroke-width:0;stroke-miterlimit:4;stroke-dasharray:none;stroke-opacity:1" d="M15.28 107.724h2.5v2.5h-2.5z"/><path style="fill:#546e7a;fill-opacity:1;fill-rule:evenodd;stroke:none;stroke-width:0;stroke-miterlimit:4;stroke-dasharray:none;stroke-opacity:1" d="M15.28 110.224h2.5v2.5h-2.5z"/><path style="fill:#788f9b;fill-opacity:1;fill-rule:evenodd;stroke:none;stroke-width:0;stroke-miterlimit:4;stroke-dasharray:none;stroke-opacity:1" d="M52.78 107.724h2.5v2.5h-2.5z"/><path style="fill:#546e7a;fill-opacity:1;fill-rule:evenodd;stroke:none;stroke-width:0;stroke-miterlimit:4;stroke-dasharray:none;stroke-opacity:1" d="M52.78 110.224h2.5v2.5h-2.5z"/><path style="fill:#788f9b;fill-opacity:1;fill-rule:evenodd;stroke:none;stroke-width:0;stroke-miterlimit:4;stroke-dasharray:none;stroke-opacity:1" d="M15.28 147.724h2.5v2.5h-2.5z"/><path style="fill:#546e7a;fill-opacity:1;fill-rule:evenodd;stroke:none;stroke-width:0;stroke-miterlimit:4;stroke-dasharray:none;stroke-opacity:1" d="M15.28 150.224h2.5v2.5h-2.5z"/><path style="fill:#788f9b;fill-opacity:1;fill-rule:evenodd;stroke:none;stroke-width:0;stroke-miterlimit:4;stroke-dasharray:none;stroke-opacity:1" d="M52.78 147.724h2.5v2.5h-2.5z"/><path style="fill:#546e7a;fill-opacity:1;fill-rule:evenodd;stroke:none;stroke-width:0;stroke-miterlimit:4;stroke-dasharray:none;stroke-opacity:1" d="M52.78 150.224h2.5v2.5h-2.5z"/></g></svg>