<svg xmlns="http://www.w3.org/2000/svg" width="33" height="33" style="enable-background:new 0 0 33 33" xml:space="preserve"><path d="M21.57 8.668c.851.75 1.275 2.143 1.275 4.178 0 1.605-.209 2.73-.628 3.373-.419.641-1.346 1.266-2.78 1.875-1.396.588-2.098 1.383-2.098 2.381v.457h-3.308c0-1.617.157-2.684.47-3.201.314-.52 1.137-1.055 2.468-1.604l1.27-.541c1.056-.438 1.582-1.321 1.582-2.651 0-1.104-.196-1.814-.592-2.134-.395-.317-1.275-.479-2.646-.479-1.284 0-2.14.171-2.567.509-.428.336-.642 1.01-.642 2.019l.015.739h-3.237l.014-.711c0-2.104.452-3.517 1.355-4.244.903-.728 2.667-1.09 5.29-1.09 2.323-.003 3.908.372 4.759 1.124zm-7.537 18.508h3.265v-3.508h-3.265v3.508zM33 16.5C33 25.598 25.598 33 16.5 33 7.402 33 0 25.598 0 16.5 0 7.402 7.402 0 16.5 0 25.598 0 33 7.402 33 16.5zm-4 0C29 9.607 23.393 4 16.5 4S4 9.607 4 16.5 9.607 29 16.5 29 29 23.393 29 16.5z"/></svg>