<svg xmlns="http://www.w3.org/2000/svg" width="279.563" height="206.166" viewBox="0 0 73.968 54.548"><path style="fill:#000;stroke-width:.22966644" d="M58.296 185.936c-1.228-.542-4.368-4.306-6.437-7.716-2.352-3.877-3.75-7.676-4.916-13.35-.414-2.019-.414-9.956 0-11.975 1.754-8.543 4.605-14.29 9.565-19.286 1.878-1.89 1.893-1.9 3.073-1.9 1.362 0 2.213.49 2.958 1.7.875 1.424.512 2.737-1.28 4.633-.24.253-1.01 1.186-1.713 2.072-2.026 2.555-2.999 4.334-4.786 8.751-.245.606-.794 2.649-1.176 4.376-.465 2.104-.407 9.88.09 12.09.509 2.254 1.205 4.372 2.03 6.176.367.8.667 1.502.667 1.56 0 .517 3.353 5.204 5.148 7.194.999 1.109 1.248 1.645 1.257 2.71.01 1.175-.739 2.36-1.832 2.901-.948.468-1.691.486-2.648.064zm47.465-.106c-.996-.641-1.515-1.59-1.517-2.774-.002-1.174.227-1.556 2.481-4.144 3.51-4.028 5.747-8.77 6.95-14.733.396-1.961.396-8.401 0-10.363-1.28-6.34-3.914-11.558-8.001-15.852-1.618-1.699-1.916-3.386-.847-4.794 1.536-2.024 3.615-1.937 5.671.238 6.403 6.772 10.11 16.123 10.102 25.474-.004 4.232-.549 7.69-1.851 11.745-.614 1.91-.637 1.967-1.7 4.26-1.905 4.104-5.957 9.642-8.046 10.996-.802.52-2.391.494-3.242-.053zM67 177.415c-1.378-.607-4.261-4.285-5.792-7.387-1.626-3.296-2.432-6.95-2.432-11.03 0-3.55.257-5.163 1.32-8.29.806-2.368 1.333-3.4 3.056-5.988 2.096-3.149 3.622-4.491 5.104-4.49 1.67.002 3.23 1.59 3.231 3.29.001.998-.289 1.507-2.109 3.702-1.524 1.838-3.168 5.095-3.735 7.4-.453 1.838-.539 6.555-.147 8.06.132.507.338 1.31.458 1.785.413 1.637 2.1 4.681 3.599 6.493.826 1 1.6 2 1.719 2.223.329.619.259 1.759-.157 2.568-.468.909-.727 1.17-1.631 1.64-.854.444-1.519.45-2.484.024zm30.673-.008c-1.93-.85-2.525-3.318-1.233-5.11.37-.514.784-1.003.92-1.088.529-.328 2.039-2.619 2.862-4.34 1.232-2.576 1.725-4.826 1.725-7.871 0-3.092-.493-5.289-1.798-8.027-.808-1.694-2.476-4.13-3.334-4.87-1.213-1.045-1.432-3.133-.463-4.41 1.16-1.53 2.856-1.884 4.3-.898 1.138.776 2.013 1.768 3.465 3.928 3.047 4.535 4.363 8.805 4.363 14.161 0 3.436-.526 6.572-1.485 8.866-1.178 2.815-2.383 4.968-3.702 6.617-1.597 1.995-2.124 2.52-2.97 2.954-1.008.516-1.63.537-2.65.088zm-15.992-9.282c-2.147-.398-5.214-2.64-6.098-4.46-.201-.414-.51-1.054-.684-1.422-.216-.452-.319-1.534-.319-3.339 0-2.474.048-2.763.645-3.936.892-1.753 2.678-3.508 4.487-4.409 1.416-.705 1.661-.752 3.916-.752 2.254 0 2.5.047 3.915.752 1.81.9 3.596 2.656 4.488 4.409.6 1.18.644 1.453.644 4.03 0 2.583-.042 2.847-.655 4.062-.849 1.685-2.648 3.446-4.413 4.322-1.52.754-4.112 1.079-5.926.743z" transform="translate(-46.632 -131.709)"/></svg>