<svg xmlns="http://www.w3.org/2000/svg" width="102mm" height="102mm" viewBox="0 0 102 102"><path d="M-293.715 193.306c-.094-.245-.06-.645.077-.889.136-.244 14.066-14.255 30.955-31.135 16.89-16.88 30.708-30.808 30.708-30.951l6.974 7.087c-.102.103.008 4.932.245 10.732.315 7.704.355 10.823.148 11.574-.758 2.752-2.894 5.547-5.178 6.776-2.615 1.407-61.853 26.997-62.784 27.121-.749.1-1.013.028-1.145-.315z" style="fill:#d9e2ec;stroke-width:.26458332;fill-opacity:1" transform="matrix(.76076 0 0 .84759 223.917 -69.194)"/><path d="M-229.703 132.67c-23.229-23.228-22.358-22.244-20.781-23.484.383-.301.943-.548 1.244-.548.361 0 2.713 2.16 6.917 6.35 3.503 3.492 6.501 6.35 6.663 6.35.162 0 6.176-5.685 13.364-12.634 16.857-16.296 16.463-15.94 19.075-17.233 4.38-2.168 4.156-2.148 23.105-2.148 10 0 17.01.102 17.407.253.365.14.852.54 1.082.89.508.776.216 1.762-.87 2.929-.595.64-20.799 19.949-45.424 43.413-3.202 3.05-5.925 5.714-6.052 5.919-.169.273.895 1.497 4.035 4.641 3.02 3.023 4.265 4.447 4.265 4.875 0 .788-1.128 1.903-1.925 1.903-.478 0-5.741-5.114-22.105-21.477z" style="fill:#102a43;fill-opacity:1;stroke-width:.26458332" transform="matrix(.76076 0 0 .84759 223.917 -69.194)"/><path d="M-229.703 132.67c-23.229-23.228-22.358-22.244-20.781-23.484.383-.301.943-.548 1.244-.548.361 0 2.713 2.16 6.917 6.35 3.503 3.492 6.501 6.35 6.663 6.35l21.687 21.389c-.169.273.895 1.497 4.035 4.641 3.02 3.023 4.265 4.447 4.265 4.875 0 .788-1.128 1.903-1.925 1.903-.478 0-5.741-5.114-22.105-21.477z" style="fill:#486581;fill-opacity:1;stroke-width:.26458332" transform="matrix(.76076 0 0 .84759 223.917 -69.194)"/></svg>