<?xml version="1.0" encoding="UTF-8" standalone="no"?>
<!-- Created with Inkscape (http://www.inkscape.org/) -->

<svg
   xmlns:dc="http://purl.org/dc/elements/1.1/"
   xmlns:cc="http://creativecommons.org/ns#"
   xmlns:rdf="http://www.w3.org/1999/02/22-rdf-syntax-ns#"
   xmlns:svg="http://www.w3.org/2000/svg"
   xmlns="http://www.w3.org/2000/svg"
   xmlns:sodipodi="http://sodipodi.sourceforge.net/DTD/sodipodi-0.dtd"
   xmlns:inkscape="http://www.inkscape.org/namespaces/inkscape"
   width="99.999763mm"
   height="99.999763mm"
   viewBox="0 0 99.999763 99.999763"
   version="1.1"
   id="svg2170"
   inkscape:version="0.92.3 (2405546, 2018-03-11)"
   sodipodi:docname="timeicon.svg">
  <defs
     id="defs2164" />
  <sodipodi:namedview
     id="base"
     pagecolor="#ffffff"
     bordercolor="#666666"
     borderopacity="1.0"
     inkscape:pageopacity="0.0"
     inkscape:pageshadow="2"
     inkscape:zoom="0.98994949"
     inkscape:cx="447.20401"
     inkscape:cy="103.73157"
     inkscape:document-units="mm"
     inkscape:current-layer="layer1"
     showgrid="false"
     inkscape:window-width="1859"
     inkscape:window-height="1025"
     inkscape:window-x="61"
     inkscape:window-y="27"
     inkscape:window-maximized="1" />
  <metadata
     id="metadata2167">
    <rdf:RDF>
      <cc:Work
         rdf:about="">
        <dc:format>image/svg+xml</dc:format>
        <dc:type
           rdf:resource="http://purl.org/dc/dcmitype/StillImage" />
        <dc:title></dc:title>
      </cc:Work>
    </rdf:RDF>
  </metadata>
  <g
     inkscape:label="Layer 1"
     inkscape:groupmode="layer"
     id="layer1"
     transform="translate(126.2363,27.287606)">
    <path
       style="fill:#fb0000;fill-opacity:1;stroke-width:0.40738595"
       d="m -76.898265,61.232411 c -0.389619,-0.247234 -0.493129,-1.617114 -0.407386,-5.391629 0.113246,-4.98585 0.129229,-5.062205 1.087337,-5.19767 0.534817,-0.0756 1.127811,0.107626 1.317767,0.40738 0.550852,0.869053 0.438616,9.467332 -0.131015,10.036969 -0.567269,0.567266 -1.132036,0.611117 -1.866703,0.144888 z"
       id="path2752"
       inkscape:connector-curvature="0" />
    <path
       style="fill:#fb0000;fill-opacity:1;stroke-width:0.40738595"
       d="m -95.300773,55.284263 c -0.268697,-0.323758 -0.428637,-1.011216 -0.355421,-1.527702 0.110043,-0.776237 0.380312,-0.939032 1.558969,-0.939032 1.178658,0 1.448929,0.162795 1.55897,0.939032 0.159365,1.124201 -0.571492,2.116355 -1.55897,2.116355 -0.393254,0 -0.934851,-0.264895 -1.203548,-0.588653 z"
       id="path2750"
       inkscape:connector-curvature="0" />
    <path
       style="fill:#fb0000;fill-opacity:1;stroke-width:0.40738595"
       d="m -59.05764,55.267172 c -0.293693,-0.353875 -0.393328,-1.04181 -0.2396,-1.654313 0.224132,-0.893011 0.457465,-1.029754 1.573189,-0.921911 1.011027,0.09777 1.340411,0.340941 1.443146,1.065659 0.254192,1.793105 -1.672409,2.841196 -2.776735,1.510565 z"
       id="path2748"
       inkscape:connector-curvature="0" />
    <path
       style="fill:#28b5f5;fill-opacity:1;stroke-width:0.40738595"
       d="m -95.047792,44.601918 c -0.837354,-0.83735 0.671648,-2.607142 10.105498,-11.851968 L -74.565206,22.58078 -79.284923,8.8719639 c -4.939596,-14.347476 -5.052249,-14.9216969 -2.927439,-14.9216969 0.972579,0 0.77433,-0.492788 6.462845,16.064714 l 4.609453,13.416714 -10.969347,10.704163 c -10.334221,10.084407 -11.984833,11.419612 -12.938381,10.46606 z"
       id="path2746"
       inkscape:connector-curvature="0" />
    <path
       style="fill:#fb0000;fill-opacity:1;stroke-width:0.40738595"
       d="m -106.86674,41.276801 c -0.37082,-0.409752 -0.67422,-0.931304 -0.67422,-1.159014 0,-0.531837 1.35323,-1.762448 1.93806,-1.762448 0.62646,0 1.72841,1.168776 1.72841,1.833229 0,0.697974 -1.11419,1.833245 -1.79919,1.833245 -0.28536,0 -0.82224,-0.335245 -1.19306,-0.745012 z"
       id="path2744"
       inkscape:connector-curvature="0" />
    <path
       style="fill:#fb0000;fill-opacity:1;stroke-width:0.40738595"
       d="m -45.792888,41.381657 c -0.3521,-0.35209 -0.640178,-0.888961 -0.640178,-1.193057 0,-0.697959 1.114187,-1.83323 1.799194,-1.83323 0.599294,0 1.867279,1.292924 1.867279,1.904026 0,0.531836 -1.35323,1.762448 -1.938061,1.762448 -0.246432,0 -0.736139,-0.288083 -1.088234,-0.640187 z"
       id="path2742"
       inkscape:connector-curvature="0" />
    <path
       style="fill:#fb0000;fill-opacity:1;stroke-width:0.40738595"
       d="m -114.8077,21.702042 c -0.29968,-0.189963 -0.48301,-0.782958 -0.40739,-1.317774 0.13567,-0.959516 0.20588,-0.973901 5.30042,-1.086175 5.01133,-0.110445 5.1713,-0.08744 5.44779,0.783728 0.49195,1.55001 -0.70277,1.978778 -5.49441,1.971818 -2.36584,-0.0031 -4.54674,-0.161655 -4.84641,-0.351597 z"
       id="path2740"
       inkscape:connector-curvature="0" />
    <path
       style="fill:#fb0000;fill-opacity:1;stroke-width:0.40738595"
       d="m -47.638982,21.468375 c -0.269999,-0.32533 -0.427429,-0.921132 -0.349843,-1.324005 0.127135,-0.660177 0.66283,-0.732495 5.425925,-0.732495 4.763095,0 5.298787,0.07232 5.425924,0.732495 0.307113,1.594704 -0.601626,1.915521 -5.425924,1.915521 -3.511297,0 -4.700147,-0.138576 -5.076082,-0.591516 z"
       id="path2738"
       inkscape:connector-curvature="0" />
    <path
       style="fill:#fb0000;fill-opacity:1;stroke-width:0.40738595"
       d="m -106.82803,5.7318136 c -1.08109,-0.6296773 -0.90721,-2.3406306 0.29347,-2.8876986 0.76953,-0.3506234 1.15306,-0.3368274 1.62954,0.058617 0.87155,0.7233111 0.77778,2.3429063 -0.16484,2.8473808 -0.93781,0.5019031 -0.86371,0.5026744 -1.75817,-0.018292 z"
       id="path2736"
       inkscape:connector-curvature="0" />
    <path
       style="fill:#fb0000;fill-opacity:1;stroke-width:0.40738595"
       d="m -45.72014,5.7318136 c -1.08109,-0.6296773 -0.907209,-2.3406306 0.293475,-2.8876986 0.769533,-0.3506234 1.153061,-0.3368274 1.629544,0.058617 0.871538,0.7233111 0.77777,2.3429063 -0.164848,2.8473808 -0.937815,0.5019031 -0.863716,0.5026744 -1.758171,-0.018292 z"
       id="path2734"
       inkscape:connector-curvature="0" />
    <path
       style="fill:#fb0000;fill-opacity:1;stroke-width:0.40738595"
       d="m -77.122809,-6.3213392 c -0.149368,-0.1493689 -0.27159,-2.520229 -0.27159,-5.2685638 0,-4.678215 0.05323,-5.013867 0.834322,-5.261779 1.654439,-0.525097 2.017379,0.395143 2.017379,5.115094 0,2.4189241 -0.111276,4.6880236 -0.247279,5.0424425 -0.245894,0.6407957 -1.814212,0.8914261 -2.332832,0.3728063 z"
       id="path2732"
       inkscape:connector-curvature="0" />
    <path
       style="fill:#fb0000;fill-opacity:1;stroke-width:0.40738595"
       d="m -95.713702,-8.8770343 c -0.670526,-1.2528887 0.146105,-2.5539367 1.500941,-2.3912997 2.253864,0.270556 2.253864,2.8336694 0,3.1042255 -0.729194,0.087534 -1.18958,-0.1311386 -1.500941,-0.7129258 z"
       id="path2730"
       inkscape:connector-curvature="0" />
    <path
       style="fill:#fb0000;fill-opacity:1;stroke-width:0.40738595"
       d="m -59.39388,-8.7751813 c -0.229146,-0.4369883 -0.241534,-1.121862 -0.03039,-1.6813087 0.270785,-0.717542 0.615829,-0.912979 1.438468,-0.814772 1.390698,0.166021 2.144485,1.2843917 1.528622,2.2679717 -0.631725,1.0089227 -2.453049,1.1503958 -2.936681,0.228109 z"
       id="path2726"
       inkscape:connector-curvature="0" />
    <path
       style="opacity:0.87699998;fill:#000000;fill-opacity:1;fill-rule:evenodd;stroke:#000000;stroke-width:1.9607842;stroke-miterlimit:4;stroke-dasharray:none;stroke-opacity:1"
       d="m -76.236163,-26.307214 a 49.019608,49.019608 0 0 0 -49.019747,49.019747 49.019608,49.019608 0 0 0 49.019747,49.019229 49.019608,49.019608 0 0 0 49.019229,-49.019229 49.019608,49.019608 0 0 0 -49.019229,-49.019747 z m 0.479041,5.091163 a 44.117648,44.117646 0 0 1 44.117204,44.117718 44.117648,44.117646 0 0 1 -44.117204,44.117723 44.117648,44.117646 0 0 1 -44.117718,-44.117723 44.117648,44.117646 0 0 1 44.117718,-44.117718 z"
       id="path2758"
       inkscape:connector-curvature="0" />
  </g>
</svg>
