<svg xmlns="http://www.w3.org/2000/svg" width="377.952" height="377.952" viewBox="0 0 100 100"><path style="fill:#d9e2ec;fill-opacity:1;stroke-width:.40738595" d="M-76.898 61.232c-.39-.247-.493-1.617-.408-5.391.114-4.986.13-5.062 1.088-5.198.535-.075 1.127.108 1.317.407.551.87.44 9.468-.13 10.037-.568.568-1.133.612-1.867.145zM-95.3 55.284c-.27-.323-.43-1.011-.356-1.527.11-.777.38-.94 1.559-.94 1.178 0 1.449.163 1.559.94.16 1.124-.572 2.116-1.56 2.116-.392 0-.934-.265-1.203-.589zm36.242-.017c-.293-.354-.393-1.042-.24-1.654.225-.893.458-1.03 1.574-.922 1.011.098 1.34.34 1.443 1.066.254 1.793-1.672 2.84-2.777 1.51z" transform="translate(126.236 27.288)"/><path style="fill:#044e54;fill-opacity:1;stroke-width:.40738595" d="M-95.048 44.602c-.837-.837.672-2.607 10.106-11.852l10.377-10.17-4.72-13.708C-84.225-5.476-84.337-6.05-82.212-6.05c.972 0 .774-.493 6.462 16.065l4.61 13.417-10.97 10.704c-10.334 10.084-11.984 11.42-12.938 10.466z" transform="translate(126.236 27.288)"/><path style="fill:#d9e2ec;fill-opacity:1;stroke-width:.40738595" d="M-106.867 41.277c-.37-.41-.674-.932-.674-1.16 0-.531 1.353-1.762 1.938-1.762.627 0 1.729 1.17 1.729 1.834 0 .698-1.115 1.833-1.8 1.833-.285 0-.822-.335-1.193-.745zm61.074.105c-.352-.352-.64-.89-.64-1.193 0-.698 1.114-1.834 1.8-1.834.598 0 1.866 1.293 1.866 1.904 0 .532-1.353 1.763-1.938 1.763-.246 0-.736-.288-1.088-.64zm-69.015-19.68c-.3-.19-.483-.783-.407-1.318.136-.96.206-.974 5.3-1.086 5.012-.11 5.172-.087 5.448.784.492 1.55-.703 1.979-5.494 1.972-2.366-.003-4.547-.162-4.847-.352zm67.169-.234c-.27-.325-.427-.92-.35-1.324.127-.66.663-.732 5.426-.732s5.299.072 5.426.732c.307 1.595-.602 1.916-5.426 1.916-3.511 0-4.7-.139-5.076-.592zm-59.189-15.736c-1.081-.63-.907-2.34.293-2.888.77-.35 1.153-.337 1.63.059.872.723.778 2.343-.165 2.847-.938.502-.864.503-1.758-.018zm61.108 0c-1.081-.63-.907-2.34.293-2.888.77-.35 1.153-.337 1.63.059.871.723.778 2.343-.165 2.847-.938.502-.864.503-1.758-.018zM-77.123-6.321c-.15-.15-.271-2.52-.271-5.269 0-4.678.053-5.014.834-5.262 1.654-.525 2.017.395 2.017 5.115 0 2.42-.111 4.688-.247 5.043-.246.64-1.814.891-2.333.373zm-18.591-2.556c-.67-1.253.146-2.554 1.501-2.391 2.254.27 2.254 2.833 0 3.104-.729.087-1.19-.131-1.5-.713zm36.32.102c-.229-.437-.241-1.122-.03-1.681.27-.718.616-.913 1.438-.815 1.39.166 2.145 1.284 1.529 2.268-.632 1.009-2.453 1.15-2.937.228z" transform="translate(126.236 27.288)"/><path style="opacity:.87699998;fill:#102a43;fill-opacity:1;fill-rule:evenodd;stroke:#102a43;stroke-width:1.9607842;stroke-miterlimit:4;stroke-dasharray:none;stroke-opacity:1" d="M-76.236-26.307a49.02 49.02 0 0 0-49.02 49.02 49.02 49.02 0 0 0 49.02 49.019 49.02 49.02 0 0 0 49.02-49.02 49.02 49.02 0 0 0-49.02-49.02zm.479 5.09a44.118 44.118 0 0 1 44.117 44.12A44.118 44.118 0 0 1-75.757 67.02a44.118 44.118 0 0 1-44.118-44.117 44.118 44.118 0 0 1 44.118-44.118z" transform="translate(126.236 27.288)"/></svg>