<svg xmlns="http://www.w3.org/2000/svg" class="icon-inbox-download" width="189.475" height="184.013"><path style="fill:#102a43;fill-opacity:1" d="M85.993 181.61c-3.292-1.973-5.768-5.364-13.865-18.99l-9.858-16.588H51.99c-12.347 0-20.33-2.148-29.062-7.821-10.16-6.602-17.15-15.62-21.065-27.179C.197 106.113 0 102.1 0 73.032c0-31.745.055-32.65 2.38-39C8.623 16.99 22.478 4.645 39.3 1.137c7.271-1.516 103.129-1.516 110.4 0 18.89 3.94 35.178 20.646 38.785 39.782 1.357 7.2 1.304 57.164-.069 64.68-3.834 20.992-22.292 37.994-43.916 40.452-4.675.531-10.75.98-13.5.996l-5 .03-9.5 16.082c-7.942 13.444-10.17 16.475-13.588 18.478-5.422 3.177-11.591 3.168-16.92-.026zm-14.956-80.328C79.437 90.704 86.5 72.423 86.5 61.256c0-8.63-6.201-18.487-13.315-21.164-6.389-2.405-15.627-.106-20.387 5.072-9.378 10.2-5.433 26.791 7.122 29.953 2.52.634 4.58 1.707 4.58 2.385 0 2.716-2.482 8.334-6.133 13.882l-3.85 5.85 4.241 4.855c2.333 2.67 5.023 4.873 5.977 4.898.955.025 3.79-2.542 6.302-5.705zm56.104-.5c14.793-19.937 18.868-44.95 9.061-55.618-3.02-3.286-9.432-6.083-14.002-6.11-6.234-.036-14.08 5.037-17.29 11.179-2.016 3.86-1.775 12.165.484 16.59 2.602 5.098 4.812 6.86 10.356 8.253 2.612.656 4.75 1.585 4.75 2.064 0 2.29-4.12 11.29-6.894 15.062-1.708 2.324-3.106 4.596-3.106 5.05 0 1.727 8.34 9.78 10.13 9.78 1.138 0 3.696-2.455 6.511-6.25z"/></svg>