<?xml version="1.0" encoding="UTF-8" standalone="no"?>
<svg
   xmlns:dc="http://purl.org/dc/elements/1.1/"
   xmlns:cc="http://creativecommons.org/ns#"
   xmlns:rdf="http://www.w3.org/1999/02/22-rdf-syntax-ns#"
   xmlns:svg="http://www.w3.org/2000/svg"
   xmlns="http://www.w3.org/2000/svg"
   xmlns:sodipodi="http://sodipodi.sourceforge.net/DTD/sodipodi-0.dtd"
   xmlns:inkscape="http://www.inkscape.org/namespaces/inkscape"
   viewBox="0 0 189.4747 184.0132"
   class="icon-inbox-download"
   version="1.1"
   id="svg6"
   sodipodi:docname="citation.svg"
   width="189.4747"
   height="184.0132"
   inkscape:version="0.92.3 (2405546, 2018-03-11)">
  <metadata
     id="metadata12">
    <rdf:RDF>
      <cc:Work
         rdf:about="">
        <dc:format>image/svg+xml</dc:format>
        <dc:type
           rdf:resource="http://purl.org/dc/dcmitype/StillImage" />
        <dc:title></dc:title>
      </cc:Work>
    </rdf:RDF>
  </metadata>
  <defs
     id="defs10" />
  <sodipodi:namedview
     pagecolor="#ffffff"
     bordercolor="#666666"
     borderopacity="1"
     objecttolerance="10"
     gridtolerance="10"
     guidetolerance="10"
     inkscape:pageopacity="0"
     inkscape:pageshadow="2"
     inkscape:window-width="1859"
     inkscape:window-height="1145"
     id="namedview8"
     showgrid="false"
     inkscape:zoom="3.4766083"
     inkscape:cx="138.46543"
     inkscape:cy="47.380118"
     inkscape:window-x="61"
     inkscape:window-y="27"
     inkscape:window-maximized="1"
     inkscape:current-layer="svg6" />
  <path
     style="fill:#102a43;fill-opacity:1"
     d="m 85.992694,181.61084 c -3.291769,-1.9735 -5.767509,-5.36442 -13.865168,-18.99053 L 62.269664,146.03226 H 51.990168 c -12.346673,0 -20.330258,-2.14867 -29.062298,-7.82171 C 12.7671,131.6093 5.77771,122.59156 1.86276,111.03226 0.19678,106.11326 0,102.09905 0,73.032258 0,41.287136 0.0553,40.381282 2.38062,34.032258 8.62237,16.989863 22.47674,4.6454475 39.299222,1.1373375 c 7.271856,-1.51645 103.129698,-1.51645 110.401558,0 18.89015,3.9393 35.17747,20.6454735 38.78403,39.7814105 1.35712,7.200721 1.30413,57.164281 -0.0686,64.679852 -3.83423,20.99208 -22.29223,37.99418 -43.91621,40.45226 -4.675,0.53142 -10.75,0.97951 -13.5,0.99576 l -5,0.0295 -9.49997,16.0824 c -7.94203,13.44496 -10.17037,16.47527 -13.58786,18.47805 -5.422539,3.17782 -11.591645,3.16843 -16.919476,-0.0258 z M 71.037069,101.28226 c 8.400638,-10.578261 15.462932,-28.859261 15.462932,-40.026342 0,-8.629814 -6.201284,-18.486648 -13.3151,-21.164122 -6.388746,-2.404575 -15.626551,-0.106272 -20.387172,5.072191 -9.377509,10.200574 -5.432339,26.791156 7.122583,29.952522 2.518829,0.634248 4.579689,1.707607 4.579689,2.385241 0,2.716157 -2.482059,8.334649 -6.13252,13.881829 l -3.85061,5.85132 4.241565,4.853651 c 2.332861,2.66951 5.022485,4.87392 5.976942,4.89868 0.954458,0.0248 3.790219,-2.54247 6.301691,-5.70497 z m 56.104251,-0.5 c 14.79222,-19.93698 18.86736,-44.951157 9.06095,-55.618273 -3.02059,-3.285712 -9.43203,-6.083353 -14.00193,-6.109767 -6.23465,-0.03604 -14.08126,5.037086 -17.28962,11.178378 -2.01704,3.860922 -1.77533,12.16494 0.48287,16.589498 2.60247,5.09908 4.81251,6.860428 10.35641,8.253775 2.6125,0.656599 4.75,1.585568 4.75,2.064375 0,2.289361 -4.11912,11.289263 -6.8937,15.062113 -1.70847,2.32315 -3.1063,4.59531 -3.1063,5.04925 0,1.727 8.34084,9.780651 10.12943,9.780651 1.13834,0 3.69614,-2.45493 6.51189,-6.25 z"
     id="path852"
     inkscape:connector-curvature="0" />
</svg>
