<?xml version="1.0" encoding="UTF-8" standalone="no"?>
<!-- Created with Inkscape (http://www.inkscape.org/) -->

<svg
   xmlns:dc="http://purl.org/dc/elements/1.1/"
   xmlns:cc="http://creativecommons.org/ns#"
   xmlns:rdf="http://www.w3.org/1999/02/22-rdf-syntax-ns#"
   xmlns:svg="http://www.w3.org/2000/svg"
   xmlns="http://www.w3.org/2000/svg"
   xmlns:sodipodi="http://sodipodi.sourceforge.net/DTD/sodipodi-0.dtd"
   xmlns:inkscape="http://www.inkscape.org/namespaces/inkscape"
   version="1.1"
   id="svg1288"
   width="380.12918"
   height="116.98431"
   viewBox="0 0 380.12918 116.98431"
   sodipodi:docname="connect.svg"
   inkscape:version="0.92.3 (2405546, 2018-03-11)">
  <metadata
     id="metadata1294">
    <rdf:RDF>
      <cc:Work
         rdf:about="">
        <dc:format>image/svg+xml</dc:format>
        <dc:type
           rdf:resource="http://purl.org/dc/dcmitype/StillImage" />
        <dc:title></dc:title>
      </cc:Work>
    </rdf:RDF>
  </metadata>
  <defs
     id="defs1292" />
  <sodipodi:namedview
     pagecolor="#ffffff"
     bordercolor="#666666"
     borderopacity="1"
     objecttolerance="10"
     gridtolerance="10"
     guidetolerance="10"
     inkscape:pageopacity="0"
     inkscape:pageshadow="2"
     inkscape:window-width="1859"
     inkscape:window-height="1025"
     id="namedview1290"
     showgrid="false"
     inkscape:zoom="2.5362804"
     inkscape:cx="148.87558"
     inkscape:cy="89.331856"
     inkscape:window-x="61"
     inkscape:window-y="27"
     inkscape:window-maximized="1"
     inkscape:current-layer="svg1288" />
  <path
     style="fill:#808080;fill-opacity:1"
     d="m 318.13753,114.78623 c -6.15707,-2.98375 -9.64335,-8.42363 -13.67472,-21.337566 -4.14096,-13.26499 -7.74666,-18.80199 -14.0635,-21.59623 -4.49385,-1.98784 -18.95921,-5.07087 -29.69216,-6.32836 -5.36109,-0.6281 -5.74313,-0.84063 -5.12577,-2.85138 0.36689,-1.19498 0.77795,-2.30196 0.91346,-2.45997 0.13551,-0.158 5.14211,0.43382 11.12577,1.31515 29.11004,4.28763 34.95358,8.50831 41.49567,29.97158 C 314.11817,107.90965 318.1719,112 329.43325,112 c 6.59425,0 11.09043,-1.68334 14.56675,-5.45371 3.29961,-3.57871 3.21884,-10.069406 -0.26813,-21.546286 -1.42039,-4.675 -2.87211,-10.36182 -3.22606,-12.63738 -2.67028,-17.16728 17.03181,-29.216634 33.63,-20.56735 4.60206,2.39812 5.40889,3.25294 5.67879,6.01658 l 0.31459,3.22132 -6.60756,-3.63197 c -10.28873,-5.6554 -18.65689,-4.78289 -24.86272,2.59232 -3.82219,4.54242 -4.18342,8.55758 -1.63426,18.16541 4.76961,17.97667 5.26785,21.08238 4.08411,25.457196 -1.32066,4.88079 -5.09772,8.97696 -10.60876,11.50503 -5.7026,2.61595 -16.61035,2.45258 -22.36247,-0.33493 z M 206,113.69289 c 0,-0.16891 -0.9,-5.20571 -2,-11.19289 -2.24213,-12.203676 -2.35376,-13.499996 -1.16249,-13.499996 0.46063,0 1.62029,4.3875 2.57703,9.75 0.95673,5.362496 1.9861,10.987496 2.28748,12.499996 0.33778,1.6951 0.11643,2.75 -0.57702,2.75 -0.61875,0 -1.125,-0.1382 -1.125,-0.30711 z M 0,107.59018 c 0,-1.97625 1.146659,-2.93825 6.473329,-5.4309 8.189637,-3.832396 15.745035,-10.862326 19.146701,-17.815086 4.028483,-8.23392 3.196465,-15.43064 -3.568719,-30.86845 C 16.360914,40.49055 14.896624,32.8733 16.915116,26.7572 20.605308,15.57581 41.153639,6.02171 55.227706,8.94348 62.452543,10.44335 69.415641,14.7417 88,29.17395 c 18.36592,14.26262 24.43648,17.43873 36.38713,19.03771 6.71207,0.89806 8.56198,1.47856 8.1482,2.55688 C 132.2409,51.53581 132,52.612594 132,53.161384 c 0,1.46709 -12.38133,-0.0117 -19.32871,-2.308634 C 105.37105,48.43921 101.50306,45.99641 87.214035,34.77544 71.24556,22.23561 60.785247,15.29325 55.779726,13.91292 47.57617,11.65069 32.034727,16.12975 25.632443,22.60138 c -6.502895,6.57334 -6.299909,11.88215 1.101025,28.79574 5.577065,12.745454 5.733724,13.348394 5.742829,22.102884 0.01092,10.4947 -1.652902,14.56724 -9.284677,22.72623 C 18.146007,101.6204 12.722029,105.15786 4.994895,108.09394 L 0,109.99185 Z m 175,1.42992 c 0,-1.05412 7.90473,-21.244236 8.58856,-21.936766 0.22629,-0.22916 0.68701,-0.14109 1.02382,0.19571 0.75132,0.75133 -7.81445,22.705736 -8.86238,22.714606 -0.4125,0.003 -0.75,-0.43461 -0.75,-0.97355 z m 53.12484,-18.394606 c -4.60025,-4.62427 -8.19526,-8.91423 -7.98892,-9.53325 0.20634,-0.61902 4.139,2.658 8.73924,7.28227 4.60025,4.62427 8.19526,8.91423 7.98892,9.53325 -0.20634,0.61902 -4.139,-2.658 -8.73924,-7.28227 z M 149,89.136274 c 0,-0.88093 18.28437,-14.13627 19.49953,-14.13627 2.68058,0 -7.56688,8.07477 -18.24953,14.38022 -0.6875,0.4058 -1.25,0.29602 -1.25,-0.24395 z m 79.25,-15.842 c -2.60449,-0.50165 -2.62745,-0.90421 -0.90068,-15.79427 L 228.509,47.5 l 5.71328,0.11388 c 9.05389,0.18046 14.11105,4.798634 14.11105,12.886124 0,9.81849 -8.24908,15.07364 -20.08333,12.79427 z m -9.80533,-3.54427 C 219.02326,66.237104 221,47.81135 221,45.93101 c 0,-1.00681 4.7188,-0.54554 5.83468,0.57034 0.18633,0.18633 -0.23686,6.224754 -0.94043,13.418724 l -1.27921,13.07993 h -3.35283 c -3.22582,0 -3.33256,-0.12312 -2.81754,-3.25 z M 209,68.099814 c -3.06675,-0.40877 -4.5,-1.07756 -4.5,-2.09981 0,-1.21069 1.24892,-1.44044 6.47545,-1.19122 3.5615,0.16983 6.60959,0.44293 6.77354,0.60688 0.16395,0.16394 0.0144,1.03749 -0.33244,1.94121 -0.65454,1.70572 -0.97869,1.73433 -8.41655,0.74294 z m -46.56964,-11.84981 c 0.84468,-14.133484 1.29256,-16.254604 3.42805,-16.234684 3.90363,0.0364 4.08972,0.97216 2.93593,14.762964 l -1.10617,13.22172 h -2.98002 -2.98002 z m -12.31169,9.74708 c -11.50301,-2.71541 -13.58678,-19.083814 -3.1186,-24.497114 2.04714,-1.05862 5.01233,-1.49646 8.79422,-1.29855 L 161.5,40.5 l -0.22116,9 c -0.12164,4.950004 -0.48671,10.912504 -0.81128,13.250004 -0.55773,4.01683 -0.76505,4.24438 -3.77883,4.14764 -1.7538,-0.0563 -4.71033,-0.46155 -6.57006,-0.90056 z m 99.27434,-1.57887 c 0.33385,-0.86998 0.60699,-2.44498 0.60699,-3.5 0,-1.25154 0.69509,-1.91821 2,-1.91821 1.61905,0 2,0.66667 2,3.5 0,3.10497 -0.29424,3.5 -2.60699,3.5 -1.96639,0 -2.45784,-0.38868 -2,-1.58179 z M 134.66667,55.333334 C 134.3,54.966674 134,53.166674 134,51.33333 134,48.40212 134.31667,48 136.625,48 c 2.40667,0 2.57302,0.25992 2,3.125 -0.34375,1.718754 -0.625,3.518754 -0.625,4.000004 0,1.02665 -2.36707,1.1746 -3.33333,0.20833 z M 215.5,52.235944 C 208.41745,51.61254 206,50.87421 206,49.3345 c 0,-1.30579 1.02158,-1.50099 5.97895,-1.1424 6.3958,0.46263 7.3906,0.89475 6.85945,2.97963 -0.20741,0.814134 -1.49963,1.226064 -3.3384,1.064214 z m 9.01469,-15.259704 c 1.14497,-1.8526 18.57463,-13.11313 19.71094,-12.73436 0.61116,0.20372 -3.23937,3.38264 -8.55674,7.06426 -9.03293,6.2542 -12.65228,8.09405 -11.1542,5.6701 z m -60.47,-12.54978 C 159.51767,19.71101 156.09447,15.5722 156.43758,15.22909 157.10167,14.565 174,30.92105 174,32.22793 c 0,1.96703 -2.3304,0.14081 -9.95531,-7.80147 z M 209,24.81628 c 0,-1.43275 7.63739,-20.7381 8.59777,-21.73294 0.22122,-0.22917 0.64602,-0.17288 0.94399,0.12509 0.61476,0.61476 -7.19997,20.78301 -8.6181,22.24157 C 209.34769,26.0424 209,25.80385 209,24.81628 Z M 189.5122,21.75 c -1.15924,-4.95969 -3.51187,-18.3572 -3.51203,-20 -9e-5,-0.9625 0.38392,-1.75 0.85336,-1.75 0.46945,0 1.64414,4.81769 2.61042,10.70597 0.96629,5.88827 1.98035,11.28827 2.25346,12 0.27311,0.71172 0.007,1.29403 -0.59137,1.29403 -0.59836,0 -1.32459,-1.0125 -1.61384,-2.25 z"
     id="path1300"
     inkscape:connector-curvature="0" />
</svg>
