<svg xmlns="http://www.w3.org/2000/svg" width="380.129" height="116.984"><path style="fill:gray;fill-opacity:1" d="M318.138 114.786c-6.158-2.984-9.644-8.423-13.675-21.337-4.141-13.265-7.747-18.802-14.064-21.597-4.494-1.987-18.959-5.07-29.692-6.328-5.36-.628-5.743-.84-5.126-2.851.367-1.195.778-2.302.914-2.46.135-.158 5.142.434 11.126 1.315 29.11 4.288 34.953 8.508 41.495 29.971 5.002 16.41 9.056 20.501 20.317 20.501 6.594 0 11.09-1.683 14.567-5.454 3.3-3.578 3.219-10.07-.268-21.546-1.42-4.675-2.872-10.362-3.226-12.637-2.67-17.168 17.032-29.217 33.63-20.568 4.602 2.398 5.409 3.253 5.679 6.017l.314 3.221-6.607-3.632c-10.29-5.655-18.657-4.783-24.863 2.593-3.822 4.542-4.184 8.557-1.634 18.165 4.77 17.977 5.268 21.082 4.084 25.457-1.32 4.88-5.098 8.977-10.609 11.505-5.703 2.616-16.61 2.453-22.362-.335zM206 113.693c0-.169-.9-5.206-2-11.193-2.242-12.204-2.354-13.5-1.162-13.5.46 0 1.62 4.388 2.577 9.75.956 5.363 1.986 10.988 2.287 12.5.338 1.695.116 2.75-.577 2.75-.619 0-1.125-.138-1.125-.307zM0 107.59c0-1.976 1.147-2.938 6.473-5.43 8.19-3.833 15.745-10.863 19.147-17.816 4.029-8.234 3.196-15.43-3.569-30.868-5.69-12.985-7.154-20.603-5.136-26.719 3.69-11.181 24.239-20.735 38.313-17.814 7.225 1.5 14.188 5.799 32.772 20.23 18.366 14.264 24.436 17.44 36.387 19.039 6.712.898 8.562 1.478 8.148 2.557-.294.767-.535 1.844-.535 2.392 0 1.467-12.381-.011-19.329-2.308-7.3-2.414-11.168-4.857-25.457-16.078-15.968-12.54-26.429-19.482-31.434-20.862-8.204-2.262-23.745 2.217-30.148 8.688-6.502 6.574-6.3 11.883 1.101 28.796 5.578 12.746 5.734 13.349 5.743 22.103.011 10.495-1.653 14.567-9.284 22.726-5.046 5.394-10.47 8.932-18.197 11.868L0 109.992Zm175 1.43c0-1.054 7.905-21.244 8.589-21.937.226-.229.687-.14 1.023.196.752.751-7.814 22.706-8.862 22.715-.412.003-.75-.435-.75-.974zm53.125-18.395c-4.6-4.624-8.195-8.914-7.99-9.533.207-.619 4.14 2.658 8.74 7.283 4.6 4.624 8.195 8.914 7.99 9.533-.207.619-4.14-2.658-8.74-7.283zM149 89.136C149 88.256 167.284 75 168.5 75c2.68 0-7.567 8.075-18.25 14.38-.688.406-1.25.296-1.25-.244zm79.25-15.842c-2.604-.501-2.627-.904-.9-15.794l1.159-10 5.713.114c9.054.18 14.111 4.799 14.111 12.886 0 9.818-8.249 15.074-20.083 12.794zm-9.805-3.544c.578-3.513 2.555-21.939 2.555-23.819 0-1.007 4.719-.546 5.835.57.186.187-.237 6.225-.94 13.42L224.614 73h-3.353c-3.226 0-3.332-.123-2.817-3.25zM209 68.1c-3.067-.409-4.5-1.078-4.5-2.1 0-1.21 1.249-1.44 6.475-1.191 3.562.17 6.61.443 6.774.607.164.164.014 1.037-.332 1.94-.655 1.707-.98 1.735-8.417.744zm-46.57-11.85c.845-14.133 1.293-16.255 3.428-16.235 3.904.037 4.09.972 2.936 14.763L167.688 68h-5.96zm-12.311 9.747C138.616 63.282 136.532 46.913 147 41.5c2.047-1.059 5.012-1.496 8.794-1.299l5.706.299-.221 9c-.122 4.95-.487 10.913-.811 13.25-.558 4.017-.765 4.244-3.78 4.148-1.753-.057-4.71-.462-6.57-.9zm99.274-1.579c.334-.87.607-2.445.607-3.5 0-1.251.695-1.918 2-1.918 1.619 0 2 .667 2 3.5 0 3.105-.294 3.5-2.607 3.5-1.966 0-2.458-.389-2-1.582zm-114.726-9.085c-.367-.366-.667-2.166-.667-4 0-2.93.317-3.333 2.625-3.333 2.407 0 2.573.26 2 3.125-.344 1.719-.625 3.519-.625 4 0 1.027-2.367 1.175-3.333.208zm80.833-3.097c-7.083-.623-9.5-1.362-9.5-2.901 0-1.306 1.022-1.501 5.979-1.143 6.396.463 7.39.895 6.86 2.98-.208.814-1.5 1.226-3.339 1.064zm9.015-15.26c1.145-1.852 18.574-13.113 19.71-12.734.612.204-3.239 3.383-8.556 7.064-9.033 6.254-12.652 8.094-11.154 5.67zm-60.47-12.55c-4.527-4.715-7.95-8.854-7.607-9.197.664-.664 17.562 15.692 17.562 16.999 0 1.967-2.33.14-9.955-7.802zm44.955.39c0-1.432 7.637-20.738 8.598-21.733.221-.229.646-.173.944.125.615.615-7.2 20.783-8.618 22.242-.576.592-.924.354-.924-.634Zm-19.488-3.066C188.353 16.79 186 3.393 186 1.75c0-.963.384-1.75.854-1.75.469 0 1.644 4.818 2.61 10.706s1.98 11.288 2.253 12c.274.712.007 1.294-.591 1.294s-1.325-1.012-1.614-2.25z"/></svg>