<svg xmlns="http://www.w3.org/2000/svg" width="377.953" height="377.953" viewBox="0 0 100 100"><path style="opacity:1;fill:#102a43;fill-opacity:1;fill-rule:evenodd;stroke:none;stroke-width:21.06358337;stroke-miterlimit:4;stroke-dasharray:none;stroke-opacity:1" d="M0 744.566v377.954h377.953V744.566h-163.66c.002 5.898.002 16.93.004 22.325l.07 206.55 10.826-16.24c5.954-8.932 16.46-24.144 23.346-33.805 11.307-15.86 13.106-17.684 18.547-18.794 14.523-2.964 25.701 7.75 29.004 27.798 1.076 6.532-1.546 21.869-4.447 26.01-.905 1.293-5.74 8.464-10.744 15.938s-16.022 23.781-24.485 36.238c-8.463 12.456-17.02 25.092-19.017 28.082-1.998 2.99-9.058 13.482-15.688 23.316-6.63 9.835-12.558 19.084-13.176 20.553-1.714 4.079-14.117 11.36-19.308 11.336-2.538-.015-6.985-1.505-9.885-3.318-3.383-2.115-10.704-11.343-20.43-25.745a39992.139 39992.139 0 0 0-23.066-34.12c-4.35-6.422-8.8-13.009-9.887-14.637-1.087-1.629-8.863-13.106-17.28-25.504-24.908-36.693-26.238-39.385-26.187-52.977.086-22.544 15.26-38.124 31.336-32.174 4.795 1.775 8.649 6.62 28.283 35.559l22.733 33.504.29-229.895z" transform="translate(0 -197) scale(.26458)"/></svg>