<?xml version="1.0" encoding="UTF-8" standalone="no"?>
<svg
   xmlns:dc="http://purl.org/dc/elements/1.1/"
   xmlns:cc="http://creativecommons.org/ns#"
   xmlns:rdf="http://www.w3.org/1999/02/22-rdf-syntax-ns#"
   xmlns:svg="http://www.w3.org/2000/svg"
   xmlns="http://www.w3.org/2000/svg"
   xmlns:sodipodi="http://sodipodi.sourceforge.net/DTD/sodipodi-0.dtd"
   xmlns:inkscape="http://www.inkscape.org/namespaces/inkscape"
   viewBox="0 0 18 18"
   class="icon-inbox-download"
   version="1.1"
   id="svg6"
   sodipodi:docname="icon-inbox-download.svg"
   width="18"
   height="18"
   inkscape:version="0.92.3 (2405546, 2018-03-11)">
  <metadata
     id="metadata12">
    <rdf:RDF>
      <cc:Work
         rdf:about="">
        <dc:format>image/svg+xml</dc:format>
        <dc:type
           rdf:resource="http://purl.org/dc/dcmitype/StillImage" />
      </cc:Work>
    </rdf:RDF>
  </metadata>
  <defs
     id="defs10" />
  <sodipodi:namedview
     pagecolor="#ffffff"
     bordercolor="#666666"
     borderopacity="1"
     objecttolerance="10"
     gridtolerance="10"
     guidetolerance="10"
     inkscape:pageopacity="0"
     inkscape:pageshadow="2"
     inkscape:window-width="1859"
     inkscape:window-height="1145"
     id="namedview8"
     showgrid="false"
     inkscape:zoom="9.8333333"
     inkscape:cx="9"
     inkscape:cy="9"
     inkscape:window-x="61"
     inkscape:window-y="27"
     inkscape:window-maximized="1"
     inkscape:current-layer="svg6" />
  <path
     class="primary"
     d="M 5,2 H 2 v 10 h 2 a 2,2 0 0 1 2,2 c 0,1.1 0.9,2 2,2 h 2 a 2,2 0 0 0 2,-2 c 0,-1.1 0.9,-2 2,-2 h 2 V 2 h -3 a 1,1 0 0 1 0,-2 h 3 a 2,2 0 0 1 2,2 v 14 a 2,2 0 0 1 -2,2 H 2 A 2,2 0 0 1 0,16 V 2 C 0,0.9 0.9,0 2,0 h 3 a 1,1 0 1 1 0,2 z"
     id="path2"
     style="fill:#102a43;fill-opacity:1"
     inkscape:connector-curvature="0" />
  <path
     class="secondary"
     d="M 8,7.59 V 1 a 1,1 0 0 1 2,0 v 6.59 l 1.3,-1.3 a 1,1 0 0 1 1.4,1.42 l -3,3 a 1,1 0 0 1 -1.4,0 l -3,-3 A 1,1 0 0 1 6.7,6.29 Z"
     id="path4"
     style="fill:#102a43;fill-opacity:1"
     inkscape:connector-curvature="0" />
</svg>
