<svg xmlns="http://www.w3.org/2000/svg" width="226.465" height="225.947" viewBox="0 0 59.919 59.782"><path style="fill:#102a43;fill-opacity:1;stroke-width:.26458332" d="M39.81 152.178c-.956-.53-27.536-27.193-27.97-28.058-.492-.975-.491-1.97 0-3.102.227-.523 4.153-4.655 9.5-9.998l9.113-9.107 3.296 3.33 3.295 3.328-.125 1.297c-.162 1.686.614 3.45 1.903 4.328l.937.638.002 8.102.002 8.102-.909.623c-2.746 1.882-2.516 6.25.416 7.9 1.279.72 3.488.73 4.65.021 2.803-1.709 3.043-5.878.455-7.914l-.643-.506V115.29l2.897 2.887 2.898 2.886-.154 1.296c-.292 2.47 1.542 4.878 3.97 5.211 2.142.294 4.104-.756 4.968-2.66.627-1.378.628-2.464.006-3.901-.785-1.814-3.081-3.11-4.83-2.726-.784.172-.994.014-4.058-3.042l-3.23-3.223-.016-1.58c-.012-1.258-.156-1.784-.707-2.58-1.009-1.455-2.515-2.222-4.143-2.11l-1.313.092-3.356-3.364-3.356-3.364 2.765-2.809c1.52-1.545 3.086-2.978 3.479-3.184.393-.207 1.339-.376 2.102-.376h1.388l13.835 13.822c11.52 11.507 13.9 14.01 14.22 14.948.777 2.28 1.08 1.909-13.607 16.627-7.349 7.364-13.677 13.616-14.064 13.894-.817.587-2.684.662-3.616.145z" transform="translate(-11.471 -92.742)"/></svg>