<svg xmlns="http://www.w3.org/2000/svg" width="725.899" height="979.876" viewBox="0 0 192.061 259.259"><path style="fill:#102a43;fill-opacity:1;stroke-width:.26458335" d="M182.544 310.531c-5.238-5.238-9.727-9.525-9.976-9.525-.25 0-4.894.774-10.32 1.718-11.749 2.046-18.256 3.079-18.412 2.923-.316-.316 4.208-13.642 13.97-41.153 6.239-17.582 8.566-23.813 8.894-23.813.086 0 1.424.758 2.973 1.684 6.173 3.688 12.857 6.89 18.03 8.636 3.292 1.11 5.577 1.49 17.595 2.913 6.932.822 9.033 1.136 9.288 1.391.253.253-4.396 14.086-12.068 35.912-9.31 26.484-10.152 28.84-10.302 28.84-.083 0-4.435-4.287-9.672-9.526zm59.468 8.136c-.157-.473-1.44-4.074-2.851-8.003-7.664-21.33-19.262-55.348-18.939-55.548.37-.228 3.69-.654 9.417-1.209 14.392-1.395 18.46-2.416 26.591-6.674 6.808-3.566 11.724-6.022 12.052-6.022.337 0 .68.825 3.077 7.408 5.457 14.982 19.114 54.065 19.637 56.193l.187.764-1.8-.18c-.99-.098-7.67-1.163-14.846-2.366l-13.046-2.186-.95 1.073c-.523.59-3.999 4.22-7.724 8.064-6.657 6.87-9.512 9.546-10.182 9.546-.187 0-.467-.387-.623-.86zm-51.727-73.497c-5.164-.869-8.989-3.578-15.088-10.683-4.1-4.776-8.075-8.743-10.213-10.19-2.281-1.544-4.863-2.803-10.354-5.05-10.28-4.206-13.982-6.865-16.345-11.74-1.517-3.128-2.222-6.58-2.981-14.583-.654-6.896-1.114-9.652-2.107-12.616-1.002-2.989-1.696-4.338-5.28-10.259-4.984-8.231-6.36-11.62-6.563-16.165-.101-2.26-.02-3.212.429-4.983.699-2.764 2.779-7.047 5.733-11.804 5.751-9.259 6.456-11.323 7.412-21.696.835-9.065 1.613-12.91 3.348-16.536.872-1.822 1.485-2.65 3.228-4.366 2.694-2.65 4.77-3.821 13.064-7.366 10.33-4.416 11.874-5.522 18.493-13.244 6.628-7.735 8.683-9.626 12.4-11.416 4.838-2.328 9.91-2.227 20.214.403 6.99 1.785 11.454 2.208 15.63 1.482 1.383-.24 4.776-.963 7.54-1.607 7.581-1.765 9.587-2.06 13.098-1.925 2.674.104 3.336.23 5.47 1.042 4.817 1.835 6.903 3.532 12.793 10.406 7.52 8.778 9.709 10.372 20.3 14.783 7.693 3.204 9.907 4.447 12.707 7.136 4.02 3.86 5.465 8.345 6.535 20.282.996 11.11 1.501 12.637 7.133 21.58 3.481 5.529 5.262 9.094 6 12.013.794 3.146.615 7.905-.414 10.99-.89 2.667-3.13 6.952-6.042 11.559-4.966 7.858-5.724 10.29-6.539 20.984-.807 10.602-1.971 14.8-5.204 18.767-2.545 3.123-6.447 5.476-14.507 8.746-9.437 3.828-11.85 5.577-18.626 13.498-7.516 8.785-10.559 11.098-16.418 12.479-2.695.635-6.895.342-11.92-.83-10.615-2.477-9.973-2.38-15.742-2.367l-5.292.013-5.376 1.38c-7.927 2.037-12.505 2.559-16.516 1.883zm37.636-23.932c3.853-.459 6.42-1.048 10.447-2.4 23.16-7.77 40.356-26.322 46.337-49.99.85-3.365 1.09-9.087.868-20.638-.156-8.087-.17-8.245-.974-11.245-2.675-9.99-7.362-19.296-13.725-27.252-2.3-2.878-7.255-7.834-10.146-10.15-8.37-6.707-20.225-12.367-29.465-14.068-3.249-.598-19.54-1.107-23.014-.719-3.52.393-11.326 2.401-15.155 3.899-10.683 4.177-21.17 11.514-28.303 19.803-8.214 9.545-13.593 21.503-15.61 34.705-.598 3.915-.69 14.546-.158 18.256 1.455 10.154 5.024 20.197 9.965 28.046 4.029 6.399 10.817 13.9 16.473 18.204 6.148 4.677 13.147 8.43 20.056 10.752 5.37 1.805 8.29 2.405 14.676 3.017 2.947.282 14.737.136 17.728-.22zm-15.744-11.526c-13.535-1.39-25.776-7.449-35.594-17.617-8.07-8.358-12.89-17.791-15.102-29.558-.704-3.744-.97-11.832-.519-15.803 2.627-23.151 19.95-42.956 42.573-48.675 8.712-2.203 17.92-2.244 26.898-.12 8.227 1.946 17.016 6.356 23.548 11.818 2.556 2.137 5.914 5.538 7.791 7.893 2.153 2.701 5.327 7.785 7.021 11.245 3.756 7.672 4.9 13.442 4.9 24.715 0 10.887-.95 15.116-5.448 24.252-8.512 17.29-23.302 28.208-42.442 31.33-3.846.628-10.213.871-13.626.52z" transform="translate(-121.315 -60.798)"/></svg>