<?xml version="1.0" encoding="UTF-8" standalone="no"?>
<!-- Created with Inkscape (http://www.inkscape.org/) -->

<svg
   xmlns:dc="http://purl.org/dc/elements/1.1/"
   xmlns:cc="http://creativecommons.org/ns#"
   xmlns:rdf="http://www.w3.org/1999/02/22-rdf-syntax-ns#"
   xmlns:svg="http://www.w3.org/2000/svg"
   xmlns="http://www.w3.org/2000/svg"
   xmlns:sodipodi="http://sodipodi.sourceforge.net/DTD/sodipodi-0.dtd"
   xmlns:inkscape="http://www.inkscape.org/namespaces/inkscape"
   width="192.06076mm"
   height="259.25888mm"
   viewBox="0 0 192.06076 259.25889"
   version="1.1"
   id="svg853"
   inkscape:version="0.92.3 (2405546, 2018-03-11)"
   sodipodi:docname="licence.svg">
  <defs
     id="defs847" />
  <sodipodi:namedview
     id="base"
     pagecolor="#ffffff"
     bordercolor="#666666"
     borderopacity="1.0"
     inkscape:pageopacity="0.0"
     inkscape:pageshadow="2"
     inkscape:zoom="0.7"
     inkscape:cx="3.1821017"
     inkscape:cy="515.56109"
     inkscape:document-units="mm"
     inkscape:current-layer="layer1"
     showgrid="false"
     inkscape:window-width="1859"
     inkscape:window-height="1145"
     inkscape:window-x="61"
     inkscape:window-y="27"
     inkscape:window-maximized="1" />
  <metadata
     id="metadata850">
    <rdf:RDF>
      <cc:Work
         rdf:about="">
        <dc:format>image/svg+xml</dc:format>
        <dc:type
           rdf:resource="http://purl.org/dc/dcmitype/StillImage" />
        <dc:title></dc:title>
      </cc:Work>
    </rdf:RDF>
  </metadata>
  <g
     inkscape:label="Layer 1"
     inkscape:groupmode="layer"
     id="layer1"
     transform="translate(-121.31504,-60.797601)">
    <path
       style="fill:#102a43;fill-opacity:1;stroke-width:0.26458335"
       d="m 182.5436,310.53149 c -5.23723,-5.23875 -9.72645,-9.52501 -9.97603,-9.52501 -0.24958,0 -4.89363,0.77303 -10.32012,1.71784 -11.74827,2.0455 -18.25519,3.0784 -18.41105,2.92253 -0.3159,-0.3159 4.20768,-13.6419 13.96957,-41.15287 6.2386,-17.58162 8.56589,-23.8125 8.89421,-23.8125 0.0862,0 1.42407,0.75736 2.97301,1.68302 6.17269,3.68886 12.85724,6.89081 18.02979,8.63639 3.29168,1.11085 5.5771,1.48927 17.59479,2.91334 6.93188,0.82141 9.03303,1.13606 9.28783,1.39085 0.25315,0.25315 -4.39518,14.08575 -12.06787,35.91182 -9.31002,26.48374 -10.15155,28.83959 -10.30173,28.83959 -0.0826,0 -4.43517,-4.28625 -9.6724,-9.525 z m 59.46796,8.13593 c -0.1564,-0.47294 -1.43938,-4.07458 -2.85106,-8.00364 -7.66334,-21.329 -19.26163,-55.34752 -18.93832,-55.54734 0.3689,-0.22799 3.6896,-0.65447 9.41725,-1.20945 14.39198,-1.3945 18.4598,-2.4155 26.59063,-6.67407 6.80764,-3.56554 11.72417,-6.02227 12.05206,-6.02227 0.33701,0 0.68004,0.82582 3.07731,7.40833 5.45634,14.98225 19.11343,54.06523 19.63612,56.19338 l 0.18744,0.76317 -1.79991,-0.17909 c -0.98995,-0.0985 -7.67054,-1.16319 -14.84576,-2.36598 l -13.04587,-2.18689 -0.95044,1.07364 c -0.52275,0.59051 -3.99851,4.2192 -7.72393,8.06376 -6.65724,6.87014 -9.51175,9.54635 -10.18241,9.54635 -0.18631,0 -0.46671,-0.38695 -0.62311,-0.8599 z m -51.72699,-73.49693 c -5.16311,-0.86922 -8.98861,-3.57814 -15.08735,-10.68372 -4.09937,-4.77612 -8.07538,-8.74297 -10.21293,-10.18941 -2.28175,-1.54402 -4.86292,-2.80288 -10.35423,-5.04987 -10.28047,-4.20667 -13.98175,-6.86509 -16.3449,-11.73964 -1.51705,-3.12927 -2.22253,-6.5802 -2.98137,-14.58366 -0.65385,-6.89621 -1.11423,-9.65267 -2.10711,-12.61624 -1.0014,-2.98897 -1.69598,-4.33837 -5.2805,-10.25879 -4.98356,-8.23115 -6.35972,-11.62102 -6.56264,-16.16563 -0.10086,-2.25863 -0.0188,-3.21157 0.42909,-4.98271 0.699,-2.76415 2.77932,-7.04679 5.73375,-11.80372 5.75066,-9.25913 6.4556,-11.3228 7.41112,-21.69583 0.83507,-9.06533 1.61357,-12.90943 3.34892,-16.536458 0.87182,-1.822162 1.48425,-2.650649 3.22715,-4.365625 2.69417,-2.650999 4.76964,-3.821282 13.06463,-7.366678 10.32967,-4.415041 11.87423,-5.521206 18.49235,-13.243614 6.62864,-7.734692 8.68325,-9.626074 12.40078,-11.415595 4.83775,-2.328773 9.90998,-2.227602 20.21375,0.403183 6.98938,1.784548 11.45382,2.207805 15.62998,1.481825 1.38245,-0.240324 4.77573,-0.963689 7.54062,-1.607477 7.58073,-1.765125 9.58661,-2.059871 13.09688,-1.92447 2.67469,0.10317 3.33635,0.229211 5.47055,1.042094 4.81676,1.834631 6.90254,3.531266 12.79244,10.405731 7.52041,8.777531 9.70946,10.371588 20.29999,14.782356 7.69307,3.20403 9.9073,4.447508 12.7074,7.13631 4.0197,3.859908 5.46502,8.345478 6.53531,20.282378 0.99611,11.10967 1.50085,12.63672 7.13295,21.58052 3.48125,5.52824 5.26182,9.09333 5.99924,12.01177 0.79495,3.14616 0.61589,7.90565 -0.41346,10.99 -0.89038,2.66793 -3.12962,6.95228 -6.0415,11.55926 -4.96695,7.85836 -5.72469,10.29 -6.53918,20.98449 -0.80739,10.6014 -1.97167,14.80012 -5.20392,18.76674 -2.54495,3.12319 -6.44761,5.47587 -14.50753,8.74573 -9.43723,3.82863 -11.84963,5.57688 -18.62586,13.49795 -7.51557,8.78534 -10.55897,11.09854 -16.41817,12.47901 -2.69449,0.63483 -6.89439,0.3424 -11.91951,-0.82996 -10.61554,-2.47659 -9.97366,-2.3801 -15.74271,-2.36659 l -5.29167,0.0124 -5.37584,1.38103 c -7.92667,2.03632 -12.50502,2.55826 -16.51652,1.88292 z m 37.63669,-23.93255 c 3.85269,-0.45866 6.41927,-1.04815 10.44671,-2.39937 23.16054,-7.77047 40.35649,-26.32255 46.33714,-49.99146 0.85005,-3.36417 1.09063,-9.08625 0.86767,-20.63751 -0.15607,-8.08648 -0.16979,-8.24496 -0.97332,-11.24479 -2.67581,-9.98962 -7.3628,-19.29594 -13.72515,-27.25208 -2.30113,-2.87758 -7.25529,-7.83344 -10.14634,-10.149828 -8.37074,-6.706873 -20.22465,-12.366499 -29.46508,-14.068045 -3.24863,-0.598209 -19.5395,-1.107059 -23.01361,-0.718836 -3.52103,0.393465 -11.32604,2.401221 -15.15567,3.898636 -10.68234,4.176869 -21.16906,11.514413 -28.30249,19.803223 -8.2144,9.54485 -13.59322,21.50322 -15.61001,34.70464 -0.59815,3.91538 -0.69049,14.546 -0.15858,18.25625 1.45572,10.15408 5.02431,20.19709 9.96553,28.04584 4.02854,6.399 10.81656,13.9003 16.47339,18.20438 6.14745,4.67739 13.14651,8.4296 20.05572,10.75192 5.37014,1.80502 8.28921,2.40516 14.67539,3.01714 2.94707,0.28242 14.73711,0.13604 17.7287,-0.22011 z m -15.74433,-11.52552 c -13.53472,-1.39031 -25.77608,-7.44916 -35.59372,-17.61707 -8.07042,-8.35837 -12.89006,-17.79132 -15.10258,-29.55863 -0.70391,-3.74372 -0.96935,-11.83144 -0.51866,-15.80317 2.62694,-23.15056 19.9492,-42.95557 42.57282,-48.674688 8.71229,-2.202416 17.9197,-2.243458 26.89839,-0.119896 8.22721,1.945822 17.01544,6.356244 23.54792,11.817654 2.55633,2.13718 5.91362,5.53874 7.79089,7.89361 2.15299,2.70072 5.32714,7.78437 7.02108,11.24479 3.75567,7.67215 4.89949,13.44195 4.89949,24.71456 0,10.88702 -0.95,15.11627 -5.44759,24.252 -8.51233,17.29069 -23.30209,28.2087 -42.442,31.33129 -3.84582,0.62743 -10.21256,0.87019 -13.62604,0.51955 z"
       id="path1462"
       inkscape:connector-curvature="0" />
  </g>
</svg>
