<?xml version="1.0" encoding="UTF-8" standalone="no"?>
<!-- Created with Inkscape (http://www.inkscape.org/) -->

<svg
   xmlns:dc="http://purl.org/dc/elements/1.1/"
   xmlns:cc="http://creativecommons.org/ns#"
   xmlns:rdf="http://www.w3.org/1999/02/22-rdf-syntax-ns#"
   xmlns:svg="http://www.w3.org/2000/svg"
   xmlns="http://www.w3.org/2000/svg"
   xmlns:sodipodi="http://sodipodi.sourceforge.net/DTD/sodipodi-0.dtd"
   xmlns:inkscape="http://www.inkscape.org/namespaces/inkscape"
   width="52.543125mm"
   height="52.504719mm"
   viewBox="0 0 52.543125 52.504719"
   version="1.1"
   id="svg8"
   inkscape:version="0.92.3 (2405546, 2018-03-11)"
   sodipodi:docname="menuicon.svg">
  <defs
     id="defs2" />
  <sodipodi:namedview
     id="base"
     pagecolor="#ffffff"
     bordercolor="#666666"
     borderopacity="1.0"
     inkscape:pageopacity="0.0"
     inkscape:pageshadow="2"
     inkscape:zoom="3.959798"
     inkscape:cx="76.597099"
     inkscape:cy="94.150411"
     inkscape:document-units="mm"
     inkscape:current-layer="layer1"
     showgrid="false"
     inkscape:window-width="1859"
     inkscape:window-height="1025"
     inkscape:window-x="61"
     inkscape:window-y="27"
     inkscape:window-maximized="1" />
  <metadata
     id="metadata5">
    <rdf:RDF>
      <cc:Work
         rdf:about="">
        <dc:format>image/svg+xml</dc:format>
        <dc:type
           rdf:resource="http://purl.org/dc/dcmitype/StillImage" />
        <dc:title />
      </cc:Work>
    </rdf:RDF>
  </metadata>
  <g
     inkscape:label="Layer 1"
     inkscape:groupmode="layer"
     id="layer1"
     transform="translate(-150.99987,-110.69862)">
    <path
       style="fill:none;fill-opacity:1;stroke:#fb0000;stroke-width:9.36098385;stroke-miterlimit:4;stroke-dasharray:none;stroke-opacity:1"
       d="m 176.97764,168.95539 c -5.02047,-2.10463 -15.37891,-6.43425 -23.01875,-9.62139 -7.63985,-3.18714 -19.78422,-8.25625 -26.9875,-11.2647 -14.90095,-6.22338 -18.21069,-7.6034 -22.48958,-9.37724 -1.67349,-0.69375 -3.69756,-1.56011 -4.497921,-1.92523 -1.411011,-0.64371 -1.435118,-0.67225 -0.79375,-0.93988 1.603791,-0.66921 12.157951,-4.94672 22.747551,-9.21938 l 11.50275,-4.64109 1.46183,0.58976 c 0.804,0.32436 3.24776,1.33817 5.43058,2.2529 2.18281,0.91473 9.86234,4.11989 17.06562,7.12257 7.20328,3.00268 16.25203,6.77483 20.10833,8.38256 3.85631,1.60774 7.5369,3.15052 8.1791,3.42841 l 1.16764,0.50526 2.53653,-1.22874 c 2.58306,-1.25127 26.28801,-12.63504 32.30215,-15.51238 1.81901,-0.87027 6.28385,-3.01636 9.92188,-4.76908 3.63802,-1.75273 7.66843,-3.69021 8.95647,-4.30552 l 2.34189,-1.11875 5.99248,2.04666 c 3.29587,1.12565 11.02288,3.75713 17.17113,5.84772 6.14826,2.09059 11.17865,3.87446 11.17865,3.96415 0,0.0897 -1.8157,1.0355 -4.0349,2.1018 -6.69855,3.21858 -18.21825,8.748 -24.67239,11.84266 -3.34698,1.60483 -8.10948,3.89583 -10.58333,5.09111 -2.47386,1.19528 -5.61415,2.70311 -6.97843,3.35073 -2.62429,1.24573 -5.92329,2.82583 -12.20387,5.84516 -2.11005,1.01438 -6.63442,3.18617 -10.05416,4.82619 -3.41974,1.64001 -9.77732,4.69252 -14.12795,6.78335 -4.35063,2.09083 -8.04157,3.79419 -8.20208,3.78524 -0.16052,-0.009 -4.3995,-1.73823 -9.41997,-3.84285 z"
       id="path1859"
       transform="matrix(0.27955661,0,0,0.3152567,124.72614,94.728026)"
       inkscape:connector-curvature="0" />
    <path
       style="fill:none;fill-opacity:1;stroke:#000000;stroke-width:9.36098385;stroke-miterlimit:4;stroke-dasharray:none;stroke-opacity:1"
       d="m 182.53389,210.91598 c -3.56231,-1.52188 -42.48157,-17.79497 -45.24375,-18.91752 -0.80037,-0.32527 -4.78896,-1.99109 -8.86354,-3.70183 -4.07459,-1.71074 -8.36084,-3.499 -9.525,-3.97391 -2.6132,-1.06602 -8.36215,-3.47225 -9.78959,-4.09743 -0.58208,-0.25494 -3.17169,-1.33669 -5.75468,-2.40388 -2.583,-1.0672 -4.695252,-2.00525 -4.693901,-2.08456 0.0013,-0.0793 2.293301,-1.0587 5.093231,-2.17641 2.79992,-1.11771 9.63086,-3.87603 15.17985,-6.12959 5.54899,-2.25356 10.66868,-4.30114 11.37708,-4.55017 l 1.28801,-0.45277 7.40833,3.11285 c 4.07458,1.71206 8.06318,3.38099 8.86354,3.70872 0.80037,0.32772 2.94349,1.21786 4.7625,1.97808 1.81901,0.76021 4.37886,1.82763 5.68854,2.37203 1.30969,0.5444 7.38188,3.07736 13.49375,5.62881 6.11188,2.55144 12.01337,5.0116 13.11443,5.46701 l 2.00191,0.82802 5.53871,-2.67775 c 6.9346,-3.35261 11.33234,-5.47046 15.0637,-7.25432 1.60073,-0.76526 4.69636,-2.25341 6.87917,-3.307 2.18281,-1.05359 5.27844,-2.53936 6.87917,-3.30172 1.60072,-0.76236 7.55385,-3.62415 13.22916,-6.35952 l 10.31875,-4.97341 8.33438,2.80381 c 16.23749,5.46253 24.07708,8.19249 24.07708,8.38428 0,0.10682 -0.8632,0.59068 -1.91823,1.07526 -1.05503,0.48459 -3.88276,1.82588 -6.28385,2.98065 -2.4011,1.15478 -5.43719,2.60759 -6.74688,3.22847 -1.30969,0.62087 -4.22672,2.02011 -6.48229,3.1094 -2.25557,1.0893 -8.62542,4.15163 -14.15521,6.80518 -14.53675,6.97568 -21.99871,10.56581 -28.41528,13.67126 -3.11361,1.5069 -5.6919,2.73983 -5.72954,2.73983 -0.0376,0 -2.31217,1.0842 -5.05451,2.40933 -10.08854,4.87489 -15.96601,7.64408 -16.16204,7.6148 -0.11062,-0.0165 -1.80847,-0.71672 -3.773,-1.556 z"
       transform="matrix(0.27955661,0,0,0.3152567,124.72614,94.728026)"
       id="path1861"
       inkscape:connector-curvature="0" />
    <path
       style="fill:none;fill-opacity:1;stroke:#28b5f5;stroke-width:9.36098385;stroke-miterlimit:4;stroke-dasharray:none;stroke-opacity:1"
       d="m 181.21097,129.43613 c -2.69213,-1.13737 -8.76432,-3.68204 -13.49375,-5.65484 -4.72943,-1.9728 -11.63505,-4.85894 -15.34583,-6.41365 -3.71078,-1.55471 -8.1161,-3.39002 -9.78958,-4.07846 -1.67349,-0.68844 -6.67412,-2.76914 -11.1125,-4.62379 -4.43839,-1.85465 -9.43901,-3.94268 -11.1125,-4.64006 -1.67349,-0.69738 -5.60256,-2.33868 -8.73125,-3.64733 -3.1287,-1.308646 -7.33109,-3.066358 -9.33864,-3.906019 -2.00755,-0.83966 -3.555363,-1.619239 -3.439583,-1.732396 0.115781,-0.113155 2.353633,-1.112393 4.973013,-2.220529 2.61937,-1.108136 5.83406,-2.474423 7.14375,-3.036197 4.16898,-1.788229 25.51887,-10.891922 37.57083,-16.020378 6.40292,-2.724627 18.57976,-7.916914 27.05965,-11.538418 8.47989,-3.621503 15.63932,-6.584551 15.90984,-6.584551 0.27053,0 3.33368,1.078256 6.80702,2.396124 3.47334,1.317868 8.63687,3.276106 11.47453,4.35164 2.83766,1.075534 7.24297,2.749066 9.78958,3.718961 2.54662,0.969894 9.7499,3.703776 16.0073,6.075292 24.53639,9.299152 33.23869,12.599723 37.27328,14.136857 2.3102,0.88016 4.24496,1.600293 4.29947,1.600293 0.0545,0 0.0991,0.100438 0.0991,0.2232 0,0.122758 -1.33945,0.858372 -2.97656,1.634693 -1.63711,0.776322 -5.06016,2.416027 -7.60677,3.643787 -2.54662,1.227762 -7.07099,3.395538 -10.05417,4.817279 -2.98318,1.421744 -7.44802,3.565212 -9.92187,4.763262 -2.47386,1.19806 -10.09386,4.85968 -16.93334,8.13694 -6.83948,3.27726 -14.16182,6.79037 -16.27187,7.80689 -4.89065,2.35609 -9.86535,4.7364 -12.56771,6.01345 -1.16417,0.55014 -4.8399,2.3235 -8.1683,3.9408 -3.3284,1.61729 -6.1859,2.93256 -6.35,2.92281 -0.1641,-0.01 -2.50102,-0.9483 -5.19316,-2.08566 z"
       transform="matrix(0.27955661,0,0,0.3152567,124.72614,94.728026)"
       id="path1840"
       inkscape:connector-curvature="0" />
  </g>
</svg>
