<?xml version="1.0" encoding="UTF-8" standalone="no"?>
<!-- Created with Inkscape (http://www.inkscape.org/) -->

<svg
   xmlns:dc="http://purl.org/dc/elements/1.1/"
   xmlns:cc="http://creativecommons.org/ns#"
   xmlns:rdf="http://www.w3.org/1999/02/22-rdf-syntax-ns#"
   xmlns:svg="http://www.w3.org/2000/svg"
   xmlns="http://www.w3.org/2000/svg"
   xmlns:sodipodi="http://sodipodi.sourceforge.net/DTD/sodipodi-0.dtd"
   xmlns:inkscape="http://www.inkscape.org/namespaces/inkscape"
   width="73.967628mm"
   height="54.548065mm"
   viewBox="0 0 73.967628 54.548065"
   version="1.1"
   id="svg8"
   inkscape:version="0.92.3 (2405546, 2018-03-11)"
   sodipodi:docname="sensor.svg">
  <defs
     id="defs2" />
  <sodipodi:namedview
     id="base"
     pagecolor="#ffffff"
     bordercolor="#666666"
     borderopacity="1.0"
     inkscape:pageopacity="0.0"
     inkscape:pageshadow="2"
     inkscape:zoom="0.49497475"
     inkscape:cx="69.558126"
     inkscape:cy="568.13566"
     inkscape:document-units="mm"
     inkscape:current-layer="layer1"
     showgrid="false"
     inkscape:window-width="1853"
     inkscape:window-height="1145"
     inkscape:window-x="67"
     inkscape:window-y="27"
     inkscape:window-maximized="1" />
  <metadata
     id="metadata5">
    <rdf:RDF>
      <cc:Work
         rdf:about="">
        <dc:format>image/svg+xml</dc:format>
        <dc:type
           rdf:resource="http://purl.org/dc/dcmitype/StillImage" />
        <dc:title></dc:title>
      </cc:Work>
    </rdf:RDF>
  </metadata>
  <g
     inkscape:label="Layer 1"
     inkscape:groupmode="layer"
     id="layer1"
     transform="translate(-46.632476,-131.70905)">
    <path
       style="fill:#000000;stroke-width:0.22966644"
       d="m 58.296026,185.9359 c -1.228057,-0.54177 -4.367893,-4.30543 -6.436747,-7.71562 -2.351974,-3.87686 -3.750876,-7.6759 -4.91598,-13.35048 -0.414431,-2.01845 -0.414431,-9.95625 0,-11.97471 1.754034,-8.54292 4.604613,-14.29059 9.565066,-19.2862 1.877403,-1.89071 1.892161,-1.89984 3.072272,-1.89984 1.361886,0 2.213796,0.48981 2.958262,1.70085 0.875075,1.42352 0.512391,2.7364 -1.279581,4.63193 -0.239471,0.25332 -1.010548,1.18596 -1.713504,2.07255 -2.025738,2.55492 -2.998497,4.33345 -4.786183,8.75076 -0.245004,0.60539 -0.794111,2.6488 -1.175756,4.37537 -0.465221,2.10467 -0.406741,9.88039 0.09093,12.08986 0.507853,2.25469 1.203699,4.3722 2.029576,6.17614 0.366454,0.80043 0.666279,1.50246 0.666279,1.56005 0,0.51724 3.353774,5.20444 5.147984,7.19478 0.999355,1.10859 1.248196,1.64477 1.257342,2.7092 0.0101,1.17553 -0.7388,2.36134 -1.832462,2.90153 -0.947618,0.46805 -1.69061,0.48596 -2.647494,0.0638 z m 47.464904,-0.10626 c -0.99638,-0.64076 -1.51529,-1.58963 -1.517,-2.77398 -0.002,-1.17412 0.22674,-1.55559 2.48144,-4.14369 3.50929,-4.02818 5.7464,-8.77079 6.94966,-14.73301 0.39585,-1.96146 0.39585,-8.40128 0,-10.36274 -1.27937,-6.33935 -3.9137,-11.55842 -8.00126,-15.85189 -1.6175,-1.69898 -1.91548,-3.38598 -0.84688,-4.79452 1.53566,-2.02418 3.61528,-1.93684 5.67154,0.2382 6.40217,6.77196 10.11006,16.12253 10.10166,25.47444 -0.004,4.23116 -0.54899,7.68965 -1.85136,11.74443 -0.61359,1.91032 -0.63634,1.96732 -1.70024,4.26024 -1.90424,4.10401 -5.95625,9.64221 -8.04519,10.99601 -0.80227,0.51993 -2.39148,0.49371 -3.24237,-0.0535 z m -38.760946,-8.41421 c -1.377722,-0.60779 -4.26099,-4.28528 -5.791755,-7.38715 -1.626546,-3.29594 -2.432532,-6.95081 -2.432532,-11.03069 0,-3.54992 0.256982,-5.16248 1.321144,-8.29019 0.805616,-2.36781 1.331694,-3.39891 3.054814,-5.98736 2.09633,-3.14908 3.622216,-4.4912 5.104381,-4.48966 1.670141,0.002 3.229494,1.5889 3.231164,3.28878 9.16e-4,0.99881 -0.288965,1.50787 -2.109189,3.7031 -1.523704,1.83761 -3.167989,5.09492 -3.735485,7.39995 -0.452415,1.8376 -0.538101,6.55438 -0.146418,8.05991 0.131805,0.50662 0.33772,1.30974 0.45759,1.78472 0.413066,1.63675 2.100466,4.68112 3.598983,6.49321 0.826257,0.99915 1.59973,1.9997 1.71883,2.22344 0.32908,0.6182 0.259488,1.75815 -0.156733,2.56736 -0.467545,0.90899 -0.726618,1.16946 -1.630748,1.63952 -0.854475,0.44424 -1.518665,0.45094 -2.484046,0.0251 z m 30.673399,-0.008 c -1.92966,-0.84969 -2.52559,-3.31823 -1.23384,-5.11103 0.36961,-0.51298 0.78419,-1.00239 0.92129,-1.08757 0.52798,-0.32807 2.03793,-2.61836 2.860707,-4.33913 1.23196,-2.57655 1.72496,-4.8264 1.72496,-7.87211 0,-3.09188 -0.49206,-5.28848 -1.79798,-8.02637 -0.807917,-1.69383 -2.475837,-4.13052 -3.333177,-4.86949 -1.21324,-1.04573 -1.43257,-3.13392 -0.46336,-4.41145 1.16037,-1.5295 2.85552,-1.8831 4.300707,-0.89709 1.13739,0.776 2.01196,1.76781 3.46384,3.92822 3.04763,4.53487 4.36334,8.80495 4.36334,14.16103 0,3.43543 -0.52544,6.57204 -1.4852,8.86589 -1.17777,2.81493 -2.38219,4.96763 -3.70212,6.61695 -1.59629,1.99465 -2.12376,2.51909 -2.97046,2.95336 -1.007017,0.51651 -1.629897,0.53738 -2.648707,0.0888 z M 81.680848,168.1249 c -2.14725,-0.39784 -5.213617,-2.64048 -6.097889,-4.45979 -0.20122,-0.414 -0.509145,-1.05384 -0.68428,-1.42188 -0.215288,-0.45242 -0.318427,-1.53396 -0.318427,-3.3391 0,-2.47369 0.04737,-2.76305 0.644468,-3.9365 0.891819,-1.75267 2.678632,-3.50799 4.48771,-4.40862 1.415829,-0.70486 1.660775,-0.7519 3.915356,-0.7519 2.254582,0 2.499527,0.047 3.915356,0.7519 1.809079,0.90063 3.595892,2.65595 4.487711,4.40862 0.600797,1.18073 0.644468,1.4538 0.644468,4.02995 0,2.58383 -0.04256,2.84782 -0.654984,4.06273 -0.848998,1.68422 -2.648044,3.44606 -4.412985,4.32173 -1.519827,0.75407 -4.1122,1.079 -5.926504,0.74286 z"
       id="path839"
       inkscape:connector-curvature="0" />
  </g>
</svg>
